<svg width="270" height="38" fill="none" xmlns="http://www.w3.org/2000/svg"><path d="M51.304 6.187c.37 0 .739 0 1.1.007v5.225h-1.107V7.855h-.03c-.5.8-.993 1.607-1.485 2.406l-.73 1.158h-1.123V6.194h1.122c0 1.204-.007 2.415-.007 3.618h.03l.631-1.013c.438-.754 1.284-2.064 1.6-2.612zm6.556 5.232h-1.145v-2.33H54.66c0 .776.008 1.56.008 2.33h-1.146V6.187h1.146c0 .7-.008 1.386-.008 2.087h2.053V6.187h1.146v5.232zm3.53-5.339c.538 0 1.014.091 1.407.213l-.162.823a4.124 4.124 0 00-1.1-.152c-.976 0-1.507.601-1.507 1.827 0 1.196.385 1.813 1.538 1.813.254 0 .838-.06 1.238-.167l.185.776c-.446.176-1.13.282-1.661.282-1.946 0-2.5-1.173-2.5-2.665 0-1.227.531-2.75 2.561-2.75zm4.767 5.339h-1.123V6.994h-1.676v-.815h4.475v.815h-1.669l-.007 4.425zm5.716-5.232c.369 0 .738 0 1.1.007v5.225h-1.108V7.855h-.03c-.5.8-.993 1.607-1.485 2.406l-.73 1.158h-1.123V6.194h1.123c0 1.204-.008 2.415-.008 3.618h.03l.631-1.013c.439-.754 1.284-2.064 1.6-2.612zm4.571 5.232h-1.122V6.994h-1.677v-.815h4.476v.815h-1.669l-.008 4.425zm4.24-2.056h.038l.454-1.265.708-1.919h1.115l-1.807 4.509c-.246.617-.608.845-1.17.845-.238 0-.568-.015-1.068-.152l.177-.762c.3.061.469.084.623.084.207 0 .346-.053.446-.32l.123-.32h-.285L78.346 6.18h1.13l.747 1.92.461 1.264zm5.342 2.056h-1.122V6.994h-1.677v-.815h4.476v.815h-1.669l-.008 4.425zM51.19 16.815v.038c.714.236.814.868.814 1.203 0 .921-.676 1.523-1.668 1.523h-2.407v-5.232h2.307c1.092 0 1.63.571 1.63 1.401 0 .328-.146.815-.677 1.067zm-1.17.441h-.96v1.531h.96c.6 0 .83-.343.83-.777 0-.411-.268-.754-.83-.754zm-.107-2.117h-.854v1.356h.854c.515 0 .792-.236.792-.655 0-.42-.23-.701-.792-.701zm7.414 4.441h-1.146v-2.331h-2.053c0 .777.008 1.561.008 2.33H52.99v-5.232h1.146c0 .7-.008 1.386-.008 2.087h2.053v-2.087h1.146v5.232zm4.875 0h-3.753v-5.24h3.645v.791h-2.499v1.333h2.1v.747h-2.1v1.569h2.607v.8zm7.447 0H63.12v-5.24h1.123v4.455h1.584v-4.456h1.1v4.456h1.576v-4.456h1.146v5.24zm5.453 0h-1.146v-2.331h-2.053c0 .777.007 1.561.007 2.33h-1.145v-5.232h1.145c0 .7-.007 1.386-.007 2.087h2.053v-2.087h1.146v5.232zm4.875 0h-3.753v-5.24h3.645v.791h-2.5v1.333h2.1v.747h-2.1v1.569h2.608v.8zm2.148.06c-.53 0-1.16-.076-1.591-.251.053-.267.115-.518.176-.785.4.107.93.16 1.192.16 1.054 0 1.507-.502 1.577-1.576l-1.861.03v-.8l1.853.039c-.077-.823-.53-1.326-1.438-1.326-.284 0-.7.03-1.1.137l-.161-.792c.384-.137.9-.228 1.338-.228 2.053 0 2.584 1.21 2.584 2.559 0 1.485-.615 2.833-2.569 2.833zm6.553-2.856l-.008.038c.523.13.707.533.823.945l.492 1.812h-1.138l-.446-1.607c-.13-.472-.377-.73-.915-.73h-.715v2.337h-1.115v-5.225h1.115v2.057h.653c.339 0 .708-.1.87-.716l.353-1.333h1.092l-.385 1.5c-.107.427-.346.777-.676.922zm6.649.176c0 1.538-.83 2.695-2.445 2.695-1.73 0-2.484-1.081-2.484-2.68 0-1.5.73-2.727 2.484-2.727 1.769 0 2.445 1.234 2.445 2.711zm-1.207.014c0-.951-.208-1.926-1.238-1.926-1.046 0-1.292.936-1.292 1.934 0 1.188.338 1.858 1.292 1.858.892 0 1.238-.8 1.238-1.866zm6.498 2.606h-1.145v-2.331H97.42c0 .777.007 1.561.007 2.33h-1.146v-5.232h1.146c0 .7-.007 1.386-.007 2.087h2.053v-2.087h1.145v5.232zm5.906-2.62c0 1.538-.831 2.695-2.446 2.695-1.73 0-2.483-1.081-2.483-2.68 0-1.5.73-2.727 2.483-2.727 1.769 0 2.446 1.234 2.446 2.711zm-1.208.014c0-.951-.207-1.926-1.238-1.926-1.045 0-1.291.936-1.291 1.934 0 1.188.338 1.858 1.291 1.858.892 0 1.238-.8 1.238-1.866zm6.783-.929h-.023l-.384.968c-.269.594-.646 1.5-.908 2.094h-.93c-.261-.617-.631-1.538-.915-2.148l-.338-.876h-.023c0 .96-.008 2.544-.008 3.496h-1.092v-5.232h1.399l.693 1.698c.215.518.522 1.348.738 1.866h.061c.246-.586.508-1.256.754-1.85.2-.427.53-1.28.73-1.714h1.354v5.232h-1.108v-3.534zm5.596-1.698c.369 0 .738 0 1.099.008v5.224h-1.107v-3.564h-.031c-.5.8-.992 1.607-1.484 2.407l-.73 1.157h-1.123v-5.225h1.123c0 1.204-.008 2.415-.008 3.618h.031l.63-1.013c.439-.754 1.284-2.064 1.6-2.612zm6.263.007v5.225h-1.13v-2.125c-.4.115-.892.183-1.277.183-.976 0-1.837-.335-1.837-1.356v-1.926h1.145v1.698c0 .571.346.754.885.754a3.38 3.38 0 001.084-.19v-2.263h1.13zm4.867 5.226h-3.753v-5.24h3.645v.791h-2.499v1.333h2.099v.747h-2.099v1.569h2.607v.8zm3.317-5.34c.539 0 1.016.092 1.408.213l-.162.823a4.118 4.118 0 00-1.099-.152c-.977 0-1.508.601-1.508 1.828 0 1.195.385 1.812 1.538 1.812.254 0 .839-.06 1.238-.167l.185.777c-.446.175-1.13.281-1.661.281-1.945 0-2.499-1.172-2.499-2.665 0-1.226.53-2.75 2.56-2.75zm5.437 2.544l-.008.038c.523.13.707.533.823.945l.492 1.812h-1.138l-.446-1.607c-.131-.472-.377-.73-.915-.73h-.715v2.337h-1.115v-5.225h1.115v2.057h.653c.339 0 .708-.1.869-.716l.354-1.333h1.092l-.385 1.5c-.107.427-.346.777-.676.922zm6.649.176c0 1.538-.83 2.695-2.445 2.695-1.73 0-2.484-1.081-2.484-2.68 0-1.5.731-2.727 2.484-2.727 1.768 0 2.445 1.234 2.445 2.711zm-1.207.014c0-.951-.208-1.926-1.238-1.926-1.046 0-1.292.936-1.292 1.934 0 1.188.338 1.858 1.292 1.858.892 0 1.238-.8 1.238-1.866zm5.537-2.627c.369 0 .738 0 1.1.008v5.224h-1.108v-3.564h-.03c-.5.8-.992 1.607-1.484 2.407l-.731 1.157h-1.123v-5.225h1.123c0 1.204-.008 2.415-.008 3.618h.031l.631-1.013c.438-.754 1.284-2.064 1.599-2.612zm-1.215-.457c-.607 0-1.084-.488-1.43-1.005l.461-.343c.323.434.715.647.992.647.192 0 .523.008 1.169-.594l.331.297c-.485.747-1.069.998-1.523.998zM47.829 27.74V22.5h3.583v.769h-2.445v1.28h1.115c1.115 0 1.853.525 1.853 1.553 0 1.013-.677 1.637-1.715 1.637h-2.39zm2.053-2.43h-.915v1.66h.984c.43 0 .8-.297.8-.86 0-.58-.392-.8-.869-.8zm6.68 2.43H52.81V22.5h3.645v.792h-2.5v1.332h2.1v.747h-2.1v1.569h2.607v.8zm2.603-5.332c1.038 0 1.938.328 1.938 1.333 0 .388-.246.868-.762 1.12l.016.03c.569.19.892.685.892 1.21 0 1.105-.97 1.684-2.246 1.684-.469 0-1.315-.068-1.876-.327l.239-.74a4.716 4.716 0 001.453.245c.83 0 1.246-.313 1.246-.892 0-.487-.431-.754-1.03-.754h-.677v-.708h.63c.577 0 .923-.411.923-.731 0-.457-.346-.647-.992-.647a4.28 4.28 0 00-1.353.243c-.062-.243-.131-.48-.2-.723.453-.19 1.16-.343 1.799-.343zm7.822 2.712c0 1.538-.83 2.696-2.445 2.696-1.73 0-2.484-1.082-2.484-2.681 0-1.5.73-2.727 2.484-2.727 1.768 0 2.445 1.234 2.445 2.711zm-1.207.015c0-.952-.208-1.927-1.238-1.927-1.046 0-1.292.937-1.292 1.934 0 1.188.338 1.859 1.292 1.859.892 0 1.238-.8 1.238-1.866zm6.567 2.605h-1.153v-4.418H69.14l.007 4.417h-1.145V22.5h4.344v5.24zm5.649 0h-1.169l-.369-1.196h-1.93l-.377 1.195h-1.13l1.8-5.232h1.43l1.745 5.232zm-1.768-1.958l-.393-1.378-.307-1.135h-.039l-.323 1.173-.392 1.34h1.454zm4.798-3.382c.539 0 1.015.092 1.408.214l-.162.822a4.123 4.123 0 00-1.1-.152c-.976 0-1.507.602-1.507 1.828 0 1.196.385 1.813 1.538 1.813a6 6 0 001.238-.168l.185.777c-.446.175-1.13.282-1.661.282-1.946 0-2.5-1.173-2.5-2.666 0-1.226.531-2.75 2.561-2.75zm6.752 5.34h-1.146v-2.331h-2.053c0 .777.007 1.561.007 2.33h-1.145v-5.232h1.145c0 .7-.007 1.386-.007 2.087h2.053v-2.087h1.145v5.232zm5.905-2.62c0 1.538-.83 2.696-2.446 2.696-1.73 0-2.483-1.082-2.483-2.681 0-1.5.73-2.727 2.483-2.727 1.77 0 2.446 1.234 2.446 2.711zm-1.208.015c0-.952-.207-1.927-1.237-1.927-1.046 0-1.292.937-1.292 1.934 0 1.188.338 1.859 1.291 1.859.892 0 1.239-.8 1.239-1.866zm4.569-2.735a4.75 4.75 0 011.407.214l-.161.822a4.122 4.122 0 00-1.1-.152c-.977 0-1.507.602-1.507 1.828 0 1.196.384 1.813 1.538 1.813.253 0 .838-.061 1.238-.168l.184.777c-.446.175-1.13.282-1.66.282-1.946 0-2.5-1.173-2.5-2.666 0-1.226.53-2.75 2.56-2.75zm4.767 5.34h-1.123v-4.426h-1.676V22.5h4.475v.814h-1.668l-.008 4.425zm5.716-5.233c.369 0 .738 0 1.1.008v5.224h-1.108v-3.564h-.03c-.5.8-.992 1.607-1.484 2.407l-.731 1.157h-1.123v-5.224h1.123c0 1.203-.008 2.414-.008 3.617h.031l.631-1.013c.438-.753 1.284-2.064 1.599-2.612zm-56.223 8.16c.37 0 .739 0 1.1.008V35.9h-1.107v-3.565h-.03c-.5.8-.993 1.607-1.485 2.407l-.73 1.158h-1.123v-5.225h1.122c0 1.203-.007 2.414-.007 3.618h.03l.631-1.013c.438-.754 1.284-2.064 1.6-2.613zm6.833 5.233h-1.123v-4.425h-1.676v-.815h4.475v.815h-1.669l-.007 4.425zm6.44 0h-1.169l-.369-1.196h-1.93l-.377 1.196h-1.13l1.8-5.233h1.43l1.745 5.233zm-1.769-1.958l-.392-1.378-.307-1.135h-.039l-.323 1.173-.392 1.34h1.453zm7.014-1.576h-.023l-.385.967c-.269.594-.646 1.5-.907 2.094h-.93c-.262-.617-.631-1.538-.916-2.147l-.338-.876H66.3c0 .96-.008 2.544-.008 3.496H65.2v-5.233h1.4l.692 1.699c.215.518.523 1.348.738 1.866h.062c.246-.587.507-1.257.753-1.851.2-.427.53-1.28.73-1.714h1.354V35.9h-1.107v-3.534zm7.002.914c0 1.538-.83 2.696-2.445 2.696-1.73 0-2.484-1.082-2.484-2.681 0-1.5.73-2.727 2.484-2.727 1.769 0 2.445 1.234 2.445 2.712zm-1.207.015c0-.952-.208-1.927-1.238-1.927-1.046 0-1.292.937-1.292 1.935 0 1.188.338 1.858 1.292 1.858.892 0 1.238-.8 1.238-1.866zm7.759-.19l-.007.038c.53.152.738.609.83.944l.485 1.813H83.56l-.438-1.607c-.162-.587-.57-.731-.938-.731h-.57V35.9h-1.122v-2.338h-.554c-.376 0-.776.144-.938.73l-.446 1.608h-1.13c.169-.602.323-1.204.492-1.813.115-.411.315-.807.838-.937l.008-.023c-.423-.19-.592-.502-.685-.845l-.415-1.6h1.084c.123.442.246.892.362 1.333.169.617.523.716.861.716h.523v-2.056h1.123v2.056h.53c.338 0 .7-.099.861-.716.116-.441.239-.89.362-1.332h1.076a85.342 85.342 0 01-.384 1.5c-.116.426-.354.777-.685.922zm5.837 2.795h-3.752v-5.24h3.644v.792h-2.499v1.333h2.1v.746h-2.1V35.1h2.607v.8zm5.247 0h-1.145v-2.33h-2.053c0 .776.008 1.56.008 2.33h-1.146v-5.233h1.146c0 .701-.008 1.386-.008 2.087h2.053v-2.087h1.146V35.9zm5.46 0h-1.146v-2.33h-2.053c0 .776.008 1.56.008 2.33h-1.146v-5.233h1.146c0 .701-.008 1.386-.008 2.087h2.053v-2.087h1.146V35.9zm5.905-2.62c0 1.538-.83 2.696-2.445 2.696-1.73 0-2.484-1.082-2.484-2.681 0-1.5.731-2.727 2.484-2.727 1.769 0 2.445 1.234 2.445 2.712zm-1.207.015c0-.952-.208-1.927-1.238-1.927-1.046 0-1.292.937-1.292 1.935 0 1.188.339 1.858 1.292 1.858.892 0 1.238-.8 1.238-1.866zm3.323 2.605h-1.131v-5.24h3.638v.807h-2.507V35.9zm7.354-2.62c0 1.538-.831 2.696-2.446 2.696-1.73 0-2.483-1.082-2.483-2.681 0-1.5.73-2.727 2.483-2.727 1.769 0 2.446 1.234 2.446 2.712zm-1.208.015c0-.952-.207-1.927-1.238-1.927-1.045 0-1.291.937-1.291 1.935 0 1.188.338 1.858 1.291 1.858.892 0 1.238-.8 1.238-1.866zm8.551 2.605h-3.691v1.34h-.876v-2.11l.507-.015c.677-.708.792-1.873.9-3.397l.077-1.058h3.414v4.455l.546.015v2.11h-.877V35.9zm-2.114-4.471l-.039.51c-.123 1.623-.207 2.552-.738 3.176h2.099V31.43h-1.322zm7.527 4.471h-3.752v-5.24h3.645v.792h-2.499v1.333h2.099v.746h-2.099V35.1h2.606v.8zm5.156 0h-1.131l-.007-4.448h-1.238l-.023.48c-.123 2.582-.208 3.838-2.038 4.211l-.246-.784c1.146-.427 1.123-.983 1.253-3.184l.093-1.515h3.337v5.24zm5.592 0h-1.168l-.37-1.196h-1.93l-.376 1.196h-1.131l1.8-5.233h1.43l1.745 5.233zm-1.768-1.958l-.392-1.378-.308-1.135h-.038l-.323 1.173-.393 1.34h1.454z" fill="#0079C1"/><ellipse cx="19.286" cy="19" rx="19.286" ry="19" fill="#0079C1"/><path fill-rule="evenodd" clip-rule="evenodd" d="M6.56 10.416c-.027.358-.05.716-.05 1.073-.014 3.314.159 5.755.876 9.027.71 3.24 1.162 4.949 3.074 7.652a11.374 11.374 0 001.635 1.9c.261.254.553.537.926.938l.046.05c.091.098.125.135.233.214.085.061.126.1.168.14.033.032.068.065.125.11 1.349 1.073 2.306 1.774 3.914 2.539.515.245 1.018.448 1.541.64.874.318 2.38-.475 3.193-.905.022-.01.043-.022.063-.033.231-.121.444-.243.671-.375l.167-.096c.182-.104.379-.216.514-.311.166-.119.328-.23.487-.34.465-.32.906-.623 1.368-1.034.173-.154.404-.345.592-.495.419-.335 1.702-1.724 2.098-2.213.319-.395.625-.823.921-1.254 1.379-2.01 1.932-3.783 2.486-6.11a40.88 40.88 0 00.683-3.608c.31-2.154.577-5.132.373-7.418l-.007-.073c-.072-.82-.075-.858-1.097-1.12-.883-.226-1.744-.448-2.595-.668-2.51-.65-4.934-1.277-7.58-1.893-1.78-.415-1.946-.377-3.539-.007l-.345.08c-3.016.694-6.843 1.638-9.8 2.477a5 5 0 01-.211.053c-.234.055-.489.115-.622.245-.136.132-.204.195-.24.273-.047.1-.044.222-.068.542z" fill="#fff"/><path fill-rule="evenodd" clip-rule="evenodd" d="M16.354 25.605c.783.048 1.142.267 2.316.236.823-.022 1.36-.262 1.962-.591 1.158-.634 2.9-1.894 3.375-2.99.188-.432.08-.663-.226-.87-1.544-1.053-4.757-1.152-6.512-.79-2.333.483-2.46 1.513-3.245 1.06-.15-.088-.177-.223-.259-.412-.528-1.219-1.086-2.532-.999-4.088.247-4.383 4.699-7.251 8.791-6.008 2.477.753 4.37 2.81 4.769 5.438.385 2.535-1.252 5.535-2.534 7.537-.829 1.294-1.21 1.782-2.143 2.957-.196.247-.393.432-.595.66a5.953 5.953 0 01-.66.638c-.763.621-.953.529-1.696-.025-.297-.222-1.021-1.001-1.26-1.295-.16-.197-1.044-1.227-1.084-1.457zm.39-3.115c-.12-.265-.55-.604-.59-.824.232-.06 4.555-.119 5.044-.096l-2.313 2.041a10.01 10.01 0 00-.472.408c-.195.183-.273.232-.463.413-.1.095-.363.35-.504.379-.136-.213-.093-.642-.128-.913-1.26.077-1.964.372-3.53-.176-2.01-.705-3.207-2.95-2.832-5.104.175-1.004.841-2.279 1.49-2.588-.076.517-.082.803-.275 1.247-.866 1.983-.427 4.288 1.81 5.089 1.002.358 1.712.294 2.763.124zm-7.77-10.9c.001 1.35.036 2.44.163 3.743.108 1.1.297 2.313.496 3.382.411 2.208.86 4.179 1.776 6.021.64 1.288 1.138 1.931 1.963 2.97.126.158.296.36.446.518.997 1.052 1.413 1.347 2.65 2.25.521.38 2.752 1.698 3.17 1.694.361-.003 2.241-1.103 2.612-1.33 1.551-.952 3.027-2.274 4.114-3.718l.802-1.161c1.413-2.205 1.936-4.542 2.464-7.258.275-1.418.895-5.796.647-7.087-.552-.221-7.13-1.846-7.926-2.035-.44-.105-2.433-.607-2.715-.613-.212-.005-1.128.237-1.386.297L8.974 11.59z" fill="#0079C1"/><path fill-rule="evenodd" clip-rule="evenodd" d="M19.931 14.878c.328.169 2.286-.196 2.657-.328.022-.595-1.001-2.266-1.838-2.767-.103-.06-.657-.371-.796-.295-.116.064-.066.257-.065.519v.582c0 .407-.092 2.061.042 2.289zm-3.369-.334c.34.142 2.315.478 2.657.34.1-.091.046-3.313.016-3.36-.103-.16-.708.182-.813.244-.874.521-1.885 2.186-1.86 2.776zm3.347 1.015c-.016.073-.08 1.628.029 1.725.125.076 2.876.085 3.113.016.086-.065.036-.432.026-.55-.038-.427-.141-1.228-.27-1.58-.265-.01-1.058.191-1.405.24-.374.052-1.208.066-1.493.149zm-3.569-.392a7.551 7.551 0 00-.225 1.18c-.136 1.113-.105.981.314.976.452-.006 2.556.07 2.784-.034.104-.091.04-1.657.024-1.733-.328-.085-1.093-.091-1.495-.147-.365-.051-1.116-.25-1.402-.242zm3.606 4.525c.13.082 1.086.103 1.333.135 1.453.184 1.501.477 1.596.03.102-.476.277-1.468.213-1.899-.255-.056-2.965-.057-3.18.007-.02.12-.05 1.484.008 1.67.002.008.012.035.014.03.002-.006.01.019.016.027zm-3.879-1.726c-.06.364.126 1.882.302 2.123.19.01 1.044-.198 1.347-.241 1.252-.18 1.52.066 1.546-.356l-.022-1.529c-.222-.063-2.965-.062-3.173.003zm-2.754-.016c-.11.724.58 2.679.97 2.982l1.42-.622c.02-.195-.143-.863-.181-1.132-.058-.395-.05-.836-.117-1.214-.236-.068-1.804-.054-2.092-.014zm10.119-2.999c.01.284.134.715.182 1.037.053.36.075.723.1 1.094.024.342.104.24.978.24.327 0 .875.039 1.15-.02.05-.472-.172-1.277-.306-1.68-.174-.52-.425-.883-.617-1.294l-1.487.623zm-8.302 2.375c.297.002.291.005.306-.286.04-.808.273-1.894.278-2.09-.219-.118-.511-.192-.739-.3-.215-.1-.534-.313-.745-.319-.194.46-.36.538-.625 1.329-.108.321-.4 1.313-.271 1.648l1.796.018zm9.764 3.604c.336-.427 1.127-2.314.94-2.978l-1.86-.023c-.057.003-.064.003-.12.015-.258.055-.12.465-.228 1.242-.034.249-.2.94-.18 1.12l1.448.625zm-10.189-7.135c.15.157.956.537 1.21.522.224-.43.337-.88.595-1.323l.582-.884c.037-.177-.126-.129-.242-.074-.527.247-2.1 1.305-2.145 1.76v-.001zm8.549.512c.157.038.455-.118.627-.196.115-.053.217-.103.313-.149.142-.069.2-.084.269-.21-.1-.248-.747-.806-.966-.979-.099-.079-2.022-1.453-1.24-.396.671.91.84 1.74.997 1.93z" fill="#0079C1"/><path d="M268.317 15.015l1.683-.397-.07-1.073h-5.7l-.07 1.02 1.49.468v3.495h-4.893v-3.513l1.631-.397-.07-1.073h-5.736l-.07 1.004 1.578.484v8.927l-1.613.502.07.986h5.771l.07-1.107-1.631-.398v-4.014h4.893v4.031l-1.561.485.105 1.003h5.754l.052-1.107-1.683-.398v-8.928zM226.45 13.54c-.918 0-3.264.42-5.317-.092l-.295 1.117s.545.254 1.438.45v8.968l-1.592.375.052 1.09s1.866-.084 2.901-.084c1.035 0 2.954.083 2.954.083l.052-1.09-1.729-.406v-3.176c.38.08 1.814.336 3.189.011 1.603-.379 3.456-1.598 3.005-4.545-.45-2.948-3.739-2.701-4.658-2.701zm-1.536 5.724v-4.041c.095-.006.188-.01.284-.02 2.504-.23 3.206.84 3.206 1.993 0 1.143-.742 2.527-3.49 2.068zm18.28-5.59a.076.076 0 00-.081-.086c-.429.03-2.301.14-4.557-.027l-.07 1.039 1.456.415s-1.143 3.136-1.957 5.211l-.025-.395s-1.19-2.816-1.691-4.125c-.5-1.31-.598-1.653-.625-2.18 0 0-1.46.206-3.911 0l-.123 1.039 1.351.467 3.017 6.8h1.403s-.648 2.153-1.719 2.318l-1.929-1.194s-1.145.358-1.107 1.544c.037 1.185 2.759 2.127 4.357.395 1.528-1.655 3.607-7.534 4.17-8.572.319-.588.984-1.402 1.908-1.662l.133-.987zm11.74 10.245a28.015 28.015 0 00-1.576-.166v-8.755l1.613-.38-.038-1.127s-1.535.132-4.324.1c-2.477-.03-5.555-.03-6.211-.03a.135.135 0 00-.135.127l-.056.812c-.004.054.034.1.088.109.48.077 1.005.314 1.568.777 0 0 .088 2.989-.363 4.544-.451 1.557-.89 2.623-2.035 3.788v.001a14.54 14.54 0 00-1.414.163.104.104 0 00-.086.109l.219 4.624h1.246l.806-3.166h8.49l.527 3.166h1.402l.37-4.583a.104.104 0 00-.091-.113zm-8.298-.234a30.503 30.503 0 00-1.009-.028c.365-.56 1.244-2.083 1.539-4.196.376-2.693.225-4.323.225-4.323l3.319-.036v8.723c-.85.043-1.816-.039-4.074-.14z" fill="#0079C1"/><ellipse cx="190.544" cy="19" rx="19.286" ry="19" fill="#0079C1"/><path d="M195.805 21.99a32.178 32.178 0 00-4.537-.365.18.18 0 00-.182.178v4.937a.18.18 0 00.2.175c2.114-.21 3.899-2.095 4.664-4.7a.178.178 0 00-.145-.224zm-2.586-9.915c1.482.874 2.648 2.558 3.194 4.64.019.073.092.12.168.106 2.133-.392 4.02-1.003 5.464-1.789a.144.144 0 00.018-.24 11.8 11.8 0 00-1.428-.907 15.793 15.793 0 00-2.437-1.055v-1.138l-.002-.02v-.49c0-.658.542-1.193 1.209-1.193h.946l.014-.001.015.001a.334.334 0 00.336-.332V7.863a.334.334 0 00-.336-.332h-6.534a.335.335 0 00-.337.332v1.794c0 .184.151.332.337.332l.028-.002.028.002h.946c.667 0 1.209.535 1.209 1.193v1.055a22.945 22.945 0 00-2.75-.43c-.154-.014-.222.19-.088.268zm4.304-.893v.618l.002.019v.797l-.224-.067v-1.586a1.596 1.596 0 011.073-1.333 1.85 1.85 0 00-.851 1.552zm-2.104-1.907h-1.236v-1.08h5.86v1.08h-1.142c-.787 0-1.462.481-1.741 1.16a1.879 1.879 0 00-1.741-1.16zm.397.317a1.59 1.59 0 011.209 1.486l-.002.05v1.345a13.902 13.902 0 00-.292-.078v-.593l.001-.002v-.618c0-.675-.369-1.265-.916-1.59z" fill="#fff"/><path d="M191.215 17.318a32.02 32.02 0 004.837-.405c-.719-2.885-2.663-4.983-4.966-5.095v5.374c0 .07.058.127.129.126z" fill="#fff"/><path d="M201.935 23.853c-1.449-.768-3.325-1.363-5.438-1.745a.11.11 0 00-.127.08c-.579 2.071-1.776 3.73-3.284 4.56-.106.06-.057.219.064.208a23.53 23.53 0 002.248-.31 3.667 3.667 0 01-3.011 1.547h-.229a3.685 3.685 0 01-3.114-1.705c.46.23.948.379 1.455.428a.178.178 0 00.193-.176v-4.936a.18.18 0 00-.182-.178 33.53 33.53 0 00-2.024.085v-.386a33.408 33.408 0 012.029-.084.178.178 0 00.177-.176v-3.186a.178.178 0 00-.177-.175 33.57 33.57 0 01-2.029-.085v-.386a33.24 33.24 0 002.059.085.145.145 0 00.147-.143v-5.357c-.79.039-1.536.315-2.206.772v-1.408c0-.658.542-1.193 1.209-1.193h.967a.334.334 0 00.336-.332V7.863a.334.334 0 00-.336-.332h-9.75a.335.335 0 00-.337.332v1.794c0 .184.151.332.337.332h.953c.667 0 1.209.535 1.209 1.193v1.83c-.683.257-1.329.547-1.929.873-.508.275-.971.568-1.39.877a.176.176 0 00.026.297c.932.501 2.049.929 3.293 1.274v.4c-1.487-.405-2.801-.925-3.853-1.544l-.002-.002c-1.443 1.23-2.218 2.672-2.218 4.187 0 1.53.789 2.985 2.26 4.224a.182.182 0 00.204.019c1.009-.559 2.235-1.031 3.609-1.405v.398c-1.175.326-2.236.725-3.136 1.19a.177.177 0 00-.021.303c.376.266.785.52 1.228.76.728.396 1.524.74 2.373 1.033a.175.175 0 00.114 0 7.83 7.83 0 007.261 4.855h.184c3.012 0 5.709-1.88 6.713-4.68l.005-.022a16.153 16.153 0 002.837-1.186c.478-.259.917-.535 1.316-.824a.11.11 0 00-.013-.186zm-14.123-12.671V24.57c0 2.363 1.949 4.287 4.346 4.287h.229c1.646 0 3.131-.9 3.877-2.35a.284.284 0 00.019-.047c.055-.012.109-.026.164-.04-.91 1.879-2.814 3.075-4.949 3.075h-.114c-3.026 0-5.489-2.429-5.489-5.415V11.657l-.002-.049c.026-1.144.976-2.067 2.142-2.067h.781a1.856 1.856 0 00-1.004 1.64zm-6.563-1.907v-1.08h9.076v1.08h-2.29c-1.052 0-1.948.67-2.277 1.598a2.415 2.415 0 00-2.278-1.598h-2.231zm9.829 20.812h-.185c-3.94 0-7.145-3.162-7.145-7.048V11.182c0-.71-.407-1.33-1.004-1.641h.736c1.167 0 2.117.923 2.143 2.067l-.002.049v.94c0 .009.003.017.005.025v11.46c0 3.132 2.583 5.68 5.758 5.68h.113c2.315 0 4.371-1.338 5.285-3.422l.197-.053c-1.021 2.291-3.335 3.8-5.902 3.8h.001z" fill="#fff"/><path d="M202.69 15.305a.253.253 0 00-.293-.028c-1.472.833-3.418 1.482-5.623 1.898a.249.249 0 00-.201.29 10.647 10.647 0 01-.034 4.004.25.25 0 00.2.293c2.154.404 4.061 1.03 5.524 1.831a.254.254 0 00.287-.027c1.447-1.232 2.222-2.675 2.222-4.192 0-1.467-.726-2.865-2.082-4.069zm-11.427 5.935c1.615.018 3.19.15 4.668.382a.178.178 0 00.203-.137c.141-.67.216-1.378.216-2.11 0-.663-.063-1.306-.179-1.919a.177.177 0 00-.204-.14c-1.488.236-3.076.37-4.704.388a.177.177 0 00-.177.175v3.186c0 .096.079.175.177.176z" fill="#fff"/></svg>