<svg width="288" height="73" fill="none" xmlns="http://www.w3.org/2000/svg"><ellipse cx="37.342" cy="36.5" rx="37.342" ry="36.5" fill="#0079C1"/><path fill-rule="evenodd" clip-rule="evenodd" d="M12.7 20.01a28.708 28.708 0 00-.096 2.061c-.026 6.365.308 11.055 1.697 17.34 1.375 6.225 2.25 9.507 5.953 14.701 1.363 1.912 2.145 2.666 3.165 3.65.505.487 1.07 1.031 1.793 1.801l.088.096c.177.189.243.26.453.411.164.119.242.193.324.27.064.061.131.124.243.213 2.611 2.06 4.463 3.406 7.578 4.875.997.47 1.97.862 2.984 1.229 1.692.613 4.606-.912 6.183-1.737l.122-.064c.446-.233.858-.468 1.298-.721l.324-.184c.352-.2.733-.415.994-.598.322-.227.635-.441.943-.651.9-.616 1.755-1.199 2.649-1.987.336-.297.783-.663 1.146-.952.812-.643 3.295-3.312 4.062-4.251a38.077 38.077 0 001.784-2.409c2.67-3.86 3.74-7.267 4.813-11.736.54-2.251.985-4.613 1.322-6.933.6-4.137 1.117-9.859.723-14.25l-.012-.141c-.14-1.574-.147-1.648-2.127-2.15-1.709-.434-3.376-.862-5.022-1.285-4.863-1.248-9.554-2.453-14.676-3.636-3.45-.797-3.77-.723-6.853-.013l-.669.154c-5.84 1.333-13.249 3.146-18.976 4.758a9.765 9.765 0 01-.408.101c-.453.106-.946.221-1.204.47-.263.255-.395.377-.466.527-.09.19-.085.427-.131 1.04z" fill="#EEF2F9"/><path fill-rule="evenodd" clip-rule="evenodd" d="M31.666 49.189c1.515.092 2.21.512 4.484.453 1.594-.042 2.633-.504 3.798-1.136 2.243-1.217 5.617-3.638 6.535-5.742.364-.831.153-1.274-.438-1.674-2.99-2.02-9.21-2.212-12.61-1.515-4.516.926-4.763 2.906-6.282 2.033-.29-.167-.342-.425-.5-.79-1.023-2.34-2.104-4.863-1.934-7.854.477-8.418 9.097-13.93 17.02-11.54 4.797 1.447 8.462 5.399 9.234 10.446.745 4.869-2.425 10.632-4.906 14.479-1.604 2.487-2.344 3.424-4.15 5.68-.38.475-.761.83-1.152 1.269-.357.4-.823.857-1.279 1.225-1.477 1.194-1.844 1.016-3.282-.049-.574-.425-1.978-1.922-2.44-2.486-.309-.379-2.02-2.357-2.098-2.8zm.754-5.986c-.232-.507-1.064-1.159-1.143-1.582.45-.117 8.82-.228 9.768-.184l-4.478 3.922c-.275.218-.7.584-.914.783-.379.351-.53.445-.898.794-.192.181-.703.671-.975.726-.265-.41-.181-1.233-.248-1.754-2.44.15-3.803.716-6.834-.337-3.892-1.354-6.211-5.667-5.484-9.806.339-1.927 1.628-4.377 2.884-4.971-.148.993-.158 1.543-.533 2.396-1.676 3.81-.826 8.238 3.505 9.776 1.94.688 3.314.566 5.35.237zM17.375 22.265c.003 2.594.07 4.687.317 7.19.208 2.114.574 4.444.96 6.498.796 4.24 1.664 8.027 3.438 11.567 1.24 2.473 2.205 3.709 3.802 5.704.243.303.571.691.862.995 1.93 2.02 2.737 2.588 5.132 4.323 1.009.73 5.329 3.261 6.137 3.254.7-.006 4.34-2.119 5.059-2.556 3.002-1.827 5.86-4.366 7.964-7.14l1.554-2.232c2.736-4.235 3.747-8.726 4.77-13.942.534-2.724 1.733-11.135 1.254-13.615-1.069-.425-13.807-3.546-15.347-3.91-.853-.202-4.712-1.165-5.257-1.177-.412-.01-2.185.455-2.684.57l-17.96 4.471z" fill="#0079C1"/><path fill-rule="evenodd" clip-rule="evenodd" d="M38.592 28.58c.634.325 4.426-.374 5.144-.628.042-1.145-1.94-4.353-3.56-5.316-.199-.117-1.272-.714-1.54-.568-.226.123-.128.494-.127.997.002.373 0 .746 0 1.118 0 .784-.177 3.96.083 4.398zm-6.524-.64c.657.271 4.482.917 5.144.653.194-.175.09-6.365.031-6.454-.2-.308-1.37.348-1.573.468-1.693 1.001-3.65 4.199-3.602 5.332zm6.48 1.95c-.03.14-.153 3.127.056 3.314.242.145 5.568.163 6.029.03.165-.124.068-.83.048-1.056-.072-.82-.272-2.359-.521-3.034-.515-.021-2.05.366-2.721.46-.724.1-2.34.127-2.891.285zm-6.909-.753c-.198.647-.347 1.524-.438 2.266-.261 2.139-.201 1.885.61 1.875.875-.011 4.95.136 5.389-.065.203-.175.078-3.184.047-3.33-.635-.163-2.116-.175-2.894-.282-.707-.098-2.161-.48-2.714-.464zm6.981 8.692c.253.157 2.103.198 2.58.258 2.814.354 2.908.918 3.092.06.196-.915.535-2.82.411-3.649-.493-.108-5.74-.11-6.158.012-.036.232-.096 2.852.016 3.21.005.015.025.067.028.056.004-.01.018.037.03.053h.001zm-7.51-3.316c-.116.7.243 3.615.584 4.078.368.019 2.021-.38 2.608-.463 2.424-.345 2.945.127 2.993-.684l-.041-2.937c-.43-.12-5.742-.12-6.145.006zm-5.333-.03c-.213 1.39 1.124 5.146 1.877 5.727l2.75-1.193c.04-.376-.275-1.66-.35-2.175-.111-.759-.097-1.606-.226-2.333-.457-.13-3.494-.104-4.051-.026zm19.593-5.761c.019.545.259 1.372.352 1.99.103.693.146 1.39.195 2.103.045.657.2.462 1.892.462.634 0 1.696.073 2.227-.04.098-.906-.332-2.453-.593-3.228-.336-.997-.823-1.696-1.193-2.485l-2.88 1.198zm-16.075 4.561c.576.005.564.01.592-.549.08-1.552.53-3.638.539-4.016-.424-.225-.99-.367-1.43-.573-.417-.195-1.035-.602-1.444-.614-.376.883-.696 1.034-1.21 2.552-.21.617-.776 2.523-.525 3.166l3.478.034zM48.2 40.209c.65-.822 2.182-4.447 1.82-5.722l-3.6-.045c-.112.006-.125.006-.233.028-.499.106-.232.894-.441 2.388-.067.478-.387 1.805-.35 2.15l2.804 1.2zM28.473 26.5c.29.302 1.85 1.032 2.344 1.003.432-.825.65-1.691 1.15-2.542l1.127-1.697c.072-.34-.245-.248-.468-.144-1.02.476-4.065 2.508-4.153 3.38zm16.553.984c.304.073.88-.226 1.213-.377.224-.101.421-.197.605-.285.276-.132.388-.161.522-.404-.193-.476-1.447-1.548-1.87-1.88-.192-.151-3.915-2.792-2.403-.761 1.302 1.747 1.627 3.341 1.932 3.707z" fill="#0079C1"/><path d="M284.612 28.845l3.26-.764-.136-2.061h-11.038l-.135 1.961 2.886.897v6.714h-9.475v-6.747l3.158-.764-.136-2.061h-11.105l-.137 1.928 3.057.93v17.15l-3.124.965.136 1.894h11.173l.136-2.128-3.158-.764v-7.71h9.475v7.743l-3.023.931.204 1.928h11.14l.102-2.128-3.26-.764v-17.15zm-81.064-2.833c-1.777 0-6.32.805-10.295-.177l-.572 2.146s1.055.487 2.785.865v17.228l-3.083.719.102 2.093s3.612-.16 5.616-.16c2.005 0 5.719.16 5.719.16l.102-2.093-3.348-.781V39.91c.737.152 3.512.645 6.175.02 3.104-.727 6.692-3.069 5.819-8.731-.873-5.663-7.241-5.189-9.019-5.189l-.001.001zm-2.973 10.995v-7.764c.182-.01.363-.019.549-.036 4.849-.443 6.207 1.613 6.207 3.827 0 2.197-1.436 4.855-6.757 3.973h.001zm35.393-10.738a.147.147 0 00-.156-.166c-.832.058-4.456.269-8.824-.051l-.135 1.995 2.819.797s-2.214 6.025-3.79 10.011l-.048-.76s-2.304-5.408-3.274-7.924c-.969-2.515-1.159-3.175-1.21-4.186 0 0-2.827.394-7.572 0l-.238 1.995 2.615.897 5.842 13.062h2.716s-1.255 4.137-3.328 4.454l-3.735-2.294s-2.217.688-2.144 2.966c.072 2.277 5.342 4.086 8.437.759 2.958-3.18 6.983-14.473 8.074-16.466.618-1.13 1.906-2.694 3.695-3.194l.256-1.895zm22.732 19.68a54.423 54.423 0 00-3.052-.318V28.812l3.124-.73-.073-2.165s-2.974.253-8.373.19c-4.797-.056-10.756-.054-12.026-.054a.261.261 0 00-.262.243l-.109 1.56a.2.2 0 00.171.208c.929.15 1.946.604 3.037 1.493 0 0 .17 5.742-.703 8.73-.873 2.99-1.724 5.039-3.941 7.277v.002a28.41 28.41 0 00-2.737.314.204.204 0 00-.168.208l.425 8.883h2.412l1.561-6.083h16.439l1.019 6.083h2.716l.717-8.805a.201.201 0 00-.177-.216v-.001zm-16.068-.448a59.573 59.573 0 00-1.953-.055c.707-1.074 2.409-4 2.98-8.06.727-5.173.437-8.305.437-8.305l6.425-.07v16.76c-1.645.08-3.516-.076-7.888-.27h-.001z" fill="#0079C1"/><ellipse cx="134.025" cy="36.5" rx="37.342" ry="36.5" fill="#0079C1"/><path d="M144.213 42.245a62.777 62.777 0 00-8.786-.703.346.346 0 00-.352.342v9.484c0 .203.182.358.388.337 4.094-.404 7.548-4.024 9.03-9.03a.341.341 0 00-.28-.43zm-5.008-19.049c2.87 1.68 5.127 4.915 6.184 8.912a.283.283 0 00.326.206c4.129-.753 7.783-1.927 10.58-3.436a.275.275 0 00.034-.464 22.88 22.88 0 00-2.765-1.74 30.736 30.736 0 00-4.718-2.026V22.46c0-.012-.004-.024-.004-.037v-.942c0-1.263 1.05-2.291 2.341-2.291h1.832l.027-.003c.01 0 .019.003.028.003.36 0 .651-.286.651-.638v-3.446a.644.644 0 00-.651-.638h-12.651a.645.645 0 00-.652.638v3.446c0 .352.292.638.652.638.019 0 .036-.004.054-.005.019 0 .036.005.054.005h1.833c1.291 0 2.341 1.028 2.341 2.291v.974l-.001.006v1.047a44.768 44.768 0 00-5.324-.825c-.299-.029-.43.362-.172.514l.001-.001zm8.333-1.715v1.187c0 .012.003.024.004.037v1.53l-.433-.128V21.06c.127-1.192.958-2.178 2.078-2.56-.992.638-1.649 1.735-1.649 2.98zm-4.073-3.664h-2.393v-2.073h11.346v2.073h-2.21a3.643 3.643 0 00-3.372 2.23 3.64 3.64 0 00-3.371-2.23zm.768.609c1.317.328 2.298 1.476 2.342 2.855 0 .032-.005.064-.005.096v2.584c-.187-.05-.375-.101-.565-.15v-1.139l.001-.004V21.48c0-1.297-.713-2.43-1.772-3.055h-.001z" fill="#EEF2F9"/><path d="M135.325 33.27c3.252-.031 6.417-.3 9.366-.78-1.392-5.541-5.156-9.572-9.616-9.787v10.323c0 .135.113.245.25.243z" fill="#EEF2F9"/><path d="M156.081 45.823c-2.805-1.475-6.437-2.619-10.528-3.352a.216.216 0 00-.247.153c-1.12 3.979-3.439 7.165-6.358 8.762-.205.112-.111.418.124.397a45.898 45.898 0 004.353-.596c-1.32 1.855-3.475 2.973-5.831 2.973h-.444a7.146 7.146 0 01-6.028-3.274 8.13 8.13 0 002.816.822.342.342 0 00.374-.34v-9.483a.346.346 0 00-.353-.34 65.062 65.062 0 00-3.919.163v-.741a65.359 65.359 0 013.929-.163.343.343 0 00.343-.338v-6.119a.342.342 0 00-.343-.338 65.608 65.608 0 01-3.929-.162v-.742a65.14 65.14 0 003.988.164.28.28 0 00.284-.275v-10.29c-1.529.074-2.974.603-4.272 1.482l.001-2.705c0-1.264 1.05-2.291 2.341-2.291h1.832l.02-.002.02.002c.36 0 .652-.286.652-.638v-3.446a.645.645 0 00-.652-.638h-18.878a.645.645 0 00-.652.638v3.446c0 .352.292.638.652.638h1.846c1.291 0 2.341 1.027 2.341 2.291v.907l-.001.012v2.597a29.955 29.955 0 00-3.735 1.677 22.968 22.968 0 00-2.691 1.685.336.336 0 00.05.57c1.805.963 3.967 1.784 6.376 2.447v.767c-2.878-.777-5.424-1.775-7.46-2.965-.002 0-.003-.002-.004-.003-2.795 2.364-4.294 5.133-4.294 8.044 0 2.94 1.527 5.734 4.375 8.113a.356.356 0 00.396.037c1.952-1.074 4.327-1.98 6.987-2.7v.766c-2.275.627-4.329 1.393-6.071 2.287a.337.337 0 00-.041.581c.727.512 1.519 1 2.377 1.46a30.56 30.56 0 004.594 1.984.345.345 0 00.222 0c2.234 5.459 7.691 9.327 14.058 9.327h.357c5.831 0 11.054-3.613 12.997-8.99.005-.015.007-.03.011-.043 1.98-.62 3.827-1.381 5.492-2.277a23.237 23.237 0 002.548-1.584.21.21 0 00-.025-.358v.001zM128.737 21.48v.914l-.001.005v24.802c0 4.54 3.775 8.235 8.414 8.235h.444c3.186 0 6.063-1.73 7.508-4.513a.52.52 0 00.035-.09l.319-.077c-1.762 3.609-5.448 5.906-9.584 5.906h-.22c-5.86 0-10.628-4.666-10.628-10.402V22.393c0-.032-.004-.062-.004-.093.051-2.199 1.89-3.972 4.149-3.972h1.511c-1.154.599-1.944 1.787-1.944 3.152h.001zm-12.709-3.663v-2.074h17.574v2.074h-4.433c-2.039 0-3.772 1.285-4.41 3.07-.639-1.785-2.371-3.07-4.41-3.07h-4.321zm19.031 39.98h-.357c-7.629 0-13.835-6.074-13.835-13.54V22.68l.001-.012v-1.187c0-1.366-.789-2.553-1.944-3.153h1.425c2.259 0 4.098 1.774 4.149 3.972-.001.031-.005.062-.005.094V24.2c0 .016.007.031.01.047v22.015c0 6.017 5.002 10.912 11.149 10.912h.22c4.482 0 8.462-2.57 10.233-6.575.127-.032.254-.066.38-.1-1.976 4.4-6.457 7.3-11.426 7.3v-.001z" fill="#EEF2F9"/><path d="M157.544 29.402a.494.494 0 00-.568-.055c-2.85 1.6-6.617 2.847-10.888 3.647a.479.479 0 00-.389.556c.217 1.175.334 2.404.334 3.669 0 1.391-.139 2.74-.399 4.022a.479.479 0 00.387.566c4.17.775 7.863 1.976 10.695 3.517a.496.496 0 00.556-.053c2.801-2.365 4.303-5.138 4.303-8.052 0-2.819-1.405-5.504-4.031-7.817zm-22.126 11.402c3.127.034 6.177.286 9.038.733a.345.345 0 00.393-.263 19.56 19.56 0 00.42-4.055c0-1.273-.123-2.507-.348-3.685a.344.344 0 00-.395-.269c-2.88.453-5.956.71-9.108.744a.342.342 0 00-.343.338v6.12c0 .185.154.335.343.337z" fill="#EEF2F9"/></svg>