<svg width="56" height="56" fill="none" xmlns="http://www.w3.org/2000/svg"><path d="M28 54c14.36 0 26-11.64 26-26S42.36 2 28 2 2 13.64 2 28s11.64 26 26 26z" stroke="#fff" stroke-width="2.25" stroke-linecap="round" stroke-linejoin="round"/><path d="M20.648 30.402a.82.82 0 010-1.64h2.054v-11.89a1.5 1.5 0 011.5-1.5h5.663c2.282 0 4.145.637 5.588 1.913 1.47 1.275 2.204 3.097 2.204 5.465a9.26 9.26 0 01-.354 2.538 9.03 9.03 0 01-1.141 2.459c-.525.78-1.312 1.418-2.362 1.913-1.05.494-2.282.742-3.7.742h-5.116v2.264h5.517a.82.82 0 110 1.64h-5.517v5.924a1.141 1.141 0 11-2.282 0v-5.924h-2.054a.82.82 0 010-1.64h2.054v-2.264h-2.054zm4.336-1.64h4.92c1.522 0 2.807-.468 3.857-1.405 1.05-.937 1.574-2.434 1.574-4.49 0-1.848-.525-3.253-1.574-4.216-1.023-.99-2.362-1.484-4.015-1.484h-4.762v11.595z" fill="#fff"/></svg>