<svg width="783" height="465" fill="none" xmlns="http://www.w3.org/2000/svg"><g clip-path="url(#clip0_35_4463)"><path d="M523.862 156.03c52.873 6.849 107.51 30.602 157.995 67.886 51.505 38.034 98.092 89.735 133.485 150.303 40.114 68.638 64.491 146.261 64.319 221.167-.184 91.294-36.451 167.946-110.102 203.187-86.316 41.303-199.505 15.704-303.249-74.881-99.511-86.895-158.476-206.264-167.556-319.067-7.479-93.019 20.936-164.855 71.014-207.546 41.888-35.7 96.296-48.543 154.069-41.062m240.096 627.096c134.086-61.787 126.044-263.463 42.616-408.381-65.105-113.116-178.507-200.233-277.979-212.678-118.395-14.796-245.021 74.637-231.838 242.665 19.328 245.997 284.627 462.486 467.201 378.394z" fill="#F05147"/><path d="M593.864 181.085c51.195 10.322 101.598 34.856 145.695 70.451 45.367 36.617 83.228 84.238 107.794 138.096 27.869 61.097 37.427 127.426 21.915 187.753-18.686 72.673-70.908 127.288-151.382 143.011-91.903 17.957-195.145-18.789-276.588-101.816-77.048-78.547-111.755-175.769-102.393-262.795 7.796-72.575 45.457-126.035 99.315-155.277 45.805-24.878 100.485-30.567 155.638-19.442m118.236 514.119c142.915-25.05 176.37-181.28 121.136-306.523-43.302-98.144-140.08-179.571-235.046-198.131-109.7-21.432-238.704 37.834-251.281 165.786-17.785 180.817 182.058 370.943 365.209 338.862" fill="#005BAA"/><path d="M265.662 278.415c25.258-40.875 88.992-63.4 171.668-66.886 71.814-3.028 151.849 8.681 227.602 31.234 70.14 20.89 133.649 50.196 183.198 83.997 50.042 34.12 84.21 71.71 96.69 108.053 13.718 39.936.558 76.258-42.553 101.735-49.97 29.553-133.985 41.145-238.844 27.767-117.914-15.048-235.653-57.979-318.585-118.56-81.532-59.54-108.07-120.62-79.182-167.359m666.196 153.427c-21.882-66.647-136.241-142.29-266.954-180.621-151.665-44.483-328.664-41.258-370.305 31.832-53.588 94.085 132.809 245.154 368.858 275.961 188.919 24.638 294.631-47.252 268.383-127.166" fill="#0056A7"/><path d="M458.705 938.057c-146.563-10.609-247.698-126.244-267.772-292.441C174.674 510.883 218.54 382.86 292.737 290.48c56.663-70.553 126.059-113.497 194.731-130.458 57.928-14.325 114.682-9.993 164.909 9.899 48.214 19.081 90.946 52.68 123.929 98.205 36.137 49.878 60.811 114.367 67.733 188.363 8.596 91.81-10.375 194.615-64.666 287.503-71.658 122.599-188.901 203.604-320.668 194.065zm191.647-760.105c-99.132-38.861-239.521-1.327-330.743 120.596C166.84 502.732 188.741 855.184 467.361 881.477 696.857 903.121 856.312 650.966 839.19 455.02c-11.308-129.4-97.209-241.149-188.838-277.068z" fill="#0079C1"/><path d="M163.191 554.866c-50.683-90.275-25.758-184.243 50.635-256.059 61.107-57.433 146.787-92.039 236.152-104.019 74.928-10.024 149.206-3.644 214.362 15.676 60.728 18.007 113.018 47.082 151.709 84.089 40.494 38.744 65.827 85.925 70.337 136.922 5.273 59.598-18.054 122.186-74.72 175.904-70.847 67.182-182.935 111.11-313.962 109.564-151.351-1.801-278.547-62.387-334.513-162.077zM807.79 297.854c-72.762-70.074-214.333-109.875-346.454-90.103C275.673 235.545 108.291 377.41 200.923 535.16c111.179 189.339 453.108 208.434 605.715 66.499 99.464-92.489 80.63-227.243 1.127-303.818" fill="#ED1D24"/><path d="M231.217 192.186c61.031-31.571 147.588-37.574 241.385-22.384 82.976 13.442 168.292 42.974 245.816 83.454 75.523 39.441 142.234 88.547 192.087 142.024 53.76 57.657 86.488 118.785 89.072 174.727 3.043 65.642-35.378 119.114-118.625 144.33-99.305 30.097-238.396 4.435-386.449-60.261C338.869 586.053 213.819 492.85 169.44 389.832c-38.912-90.34-11.449-159.769 61.777-197.646zm755.66 373.887c-2.96-99.691-128.92-226.612-274.373-302.225-153.042-79.574-351.303-118.354-453.154-60.602-175.49 99.51-57.107 308.659 241.329 439.747 271.732 119.36 487.409 82.846 486.198-76.92z" fill="#7AC143"/><path d="M325.991 891.405c-145.018-55.384-208.78-192.951-180.677-348.73 21.978-121.764 96.374-223.454 189.594-289.253 71.853-50.72 150.065-76.404 222.788-80.309 62.674-3.37 121.026 9.448 170.126 35.391 48.26 25.506 88.19 64.036 115.28 112.804 30.416 54.75 39.211 119.818 29.84 194.194-11.876 94.287-52.057 197.788-139.568 277.914-115.064 105.389-268.976 150.831-407.407 97.976m400.946-677.069c-95.244-50.24-245.402-36.641-363.051 53.206-194.049 148.15-282.544 468.046-13.018 569.941C638.31 946.164 837.942 715.236 865.765 512.008c17.603-128.65-32.817-240.315-138.846-297.666" fill="#00A94F"/></g><defs><clipPath id="clip0_35_4463"><path fill="#fff" transform="rotate(162.761 482.997 483.08)" d="M0 0h878.259v839.01H0z"/></clipPath></defs></svg>