<svg width="340" height="228" fill="none" xmlns="http://www.w3.org/2000/svg"><g clip-path="url(#clip0_35_4574)"><path d="M234.173 83.448c28.278 3.663 57.499 16.366 84.499 36.307 27.546 20.341 52.462 47.992 71.391 80.385 21.454 36.709 34.491 78.224 34.399 118.285-.098 48.827-19.494 89.822-58.885 108.669-46.163 22.09-106.7 8.399-162.184-40.048-53.221-46.473-84.756-110.315-89.613-170.644-4-49.748 11.197-88.168 37.98-111 22.403-19.093 51.501-25.962 82.4-21.96m128.408 335.384c71.712-33.045 67.412-140.906 22.792-218.411-34.82-60.497-95.469-107.09-148.669-113.745-63.32-7.914-131.043 39.917-123.992 129.782C123.036 348.017 264.924 463.8 362.568 418.826z" fill="#F05147"/><path d="M271.612 96.848c27.38 5.521 54.337 18.642 77.92 37.679 24.264 19.583 44.513 45.052 57.651 73.856 14.905 32.677 20.017 68.151 11.72 100.415-9.993 38.867-37.922 68.077-80.962 76.485-49.152 9.604-104.367-10.048-147.925-54.453-41.207-42.008-59.769-94.005-54.762-140.549 4.169-38.814 24.311-67.406 53.116-83.045 24.497-13.305 53.742-16.348 83.238-10.398M334.843 371.8c76.435-13.397 94.327-96.952 64.787-163.935-23.159-52.49-74.918-96.039-125.708-105.965-58.67-11.462-127.664 20.235-134.39 88.666-9.513 96.705 97.368 198.388 195.321 181.231" fill="#005BAA"/><path d="M96.082 148.902c13.508-21.861 47.595-33.907 91.811-35.772 38.408-1.619 81.213 4.643 121.727 16.705 37.513 11.173 71.479 26.846 97.979 44.923 26.763 18.249 45.037 38.352 51.711 57.789 7.337 21.359.299 40.785-22.758 54.41-26.725 15.806-71.658 22.006-127.739 14.851-63.063-8.048-126.032-31.009-170.386-63.409-43.605-31.843-57.798-64.51-42.348-89.507m356.296 82.056c-11.703-35.644-72.865-76.1-142.773-96.6-81.114-23.79-175.777-22.065-198.047 17.025-28.66 50.318 71.029 131.113 197.273 147.59 101.038 13.176 157.575-25.272 143.537-68.011" fill="#0056A7"/><path d="M199.326 501.693c-78.385-5.674-132.475-67.518-143.21-156.403-8.696-72.059 14.764-140.528 54.446-189.935 30.305-37.733 67.419-60.7 104.147-69.772 30.981-7.661 61.334-5.345 88.197 5.294 25.786 10.205 48.639 28.175 66.28 52.523 19.327 26.675 32.523 61.165 36.225 100.74 4.597 49.102-5.549 104.084-34.585 153.763-38.324 65.569-101.029 108.892-171.5 103.79zm102.497-406.52c-53.018-20.784-128.101-.71-176.889 64.497-81.704 109.202-69.99 297.701 79.021 311.763 122.74 11.576 208.02-123.282 198.863-228.079-6.048-69.205-51.99-128.971-100.995-148.181z" fill="#0079C1"/><path d="M41.278 296.755c-27.106-48.282-13.775-98.538 27.081-136.946 32.682-30.717 78.505-49.225 126.3-55.632 40.073-5.361 79.798-1.949 114.645 8.384 32.479 9.63 60.444 25.18 81.137 44.972 21.657 20.722 35.206 45.955 37.618 73.229 2.821 31.875-9.656 65.348-39.962 94.078-37.89 35.93-97.837 59.424-167.913 58.597-80.947-.963-148.974-33.366-178.906-86.682zm344.746-137.456c-38.914-37.477-114.63-58.764-185.291-48.189-99.296 14.865-188.816 90.737-139.274 175.105 59.46 101.263 242.332 111.476 323.949 35.566 53.196-49.465 43.123-121.535.603-162.489" fill="#ED1D24"/><path d="M77.66 102.785C110.301 85.9 156.594 82.69 206.758 90.814c44.377 7.189 90.007 22.983 131.468 44.633 40.392 21.094 76.07 47.357 102.732 75.957 28.753 30.837 46.256 63.529 47.638 93.448 1.629 35.107-18.921 63.705-63.443 77.191-53.111 16.097-127.5 2.372-206.682-32.229-83.236-36.38-150.115-86.227-173.85-141.324-20.812-48.315-6.124-85.447 33.04-105.705zm404.144 199.963c-1.583-53.316-68.95-121.197-146.741-161.636-81.85-42.558-187.884-63.299-242.357-32.412-93.856 53.22-30.542 165.078 129.068 235.187 145.329 63.836 260.678 44.308 260.03-41.139z" fill="#7AC143"/><path d="M128.348 476.743c-77.56-29.62-111.66-103.195-96.63-186.509 11.754-65.122 51.542-119.508 101.399-154.699 38.428-27.126 80.257-40.862 119.152-42.95 33.519-1.803 64.727 5.053 90.987 18.927 25.81 13.642 47.166 34.248 61.654 60.33 16.267 29.282 20.971 64.082 15.959 103.86-6.351 50.426-27.841 105.781-74.644 148.634-61.539 56.364-143.854 80.668-217.89 52.4m214.434-362.112c-50.938-26.869-131.246-19.596-194.167 28.456-103.782 79.234-151.11 250.321-6.963 304.817 153.744 58.132 260.511-65.373 275.392-174.064 9.414-68.805-17.551-128.526-74.258-159.199" fill="#00A94F"/></g><defs><clipPath id="clip0_35_4574"><path fill="#fff" transform="rotate(162.761 235.316 254.875)" d="M0 0h469.712v448.721H0z"/></clipPath></defs></svg>