<svg width="604" height="208" fill="none" xmlns="http://www.w3.org/2000/svg"><g clip-path="url(#clip0_13_3017)"><path d="M258.268-134.984c39.895-37.688 94.423-65.772 157.039-81.734 63.879-16.288 135.456-19.753 206.816-8.521 80.872 12.725 158.662 43.847 218.297 92.768 72.7 59.604 110.222 138.435 90.367 220.098-23.267 95.707-117.398 169.265-257.214 192.969-134.115 22.734-267.727-8.004-363.616-74.231-79.064-54.618-117.859-124.054-119.298-191.778-1.197-56.641 23.992-108.378 67.583-149.56m656.55 217.016C952.829-65.084 786.729-190.02 616.807-217.895c-132.624-21.77-275.962 11.891-350.668 83.081-88.905 84.744-100.033 243.93 42.577 342.853C517.518 352.842 862.968 282.35 914.792 82.043z" fill="#F05147"/><path d="M323.841-174.469c41.573-34.088 93.966-58.289 151.076-70.259 58.751-12.317 121.391-11.484 180.348 4.009 66.883 17.575 126.013 53.154 164.03 104.809C865.092-73.685 874.646 3.514 834.78 77.904 789.252 162.86 692.709 221.23 573.445 232.078c-112.827 10.265-212.977-25.387-276.295-89.528-52.812-53.48-70.927-118.319-59.177-180.297 9.986-52.715 41.059-100.009 85.849-136.73m487.077 240.58c73.09-130.241-29.737-258.658-165.605-296.196-106.482-29.4-234.456-5.283-311.105 58.333-88.535 73.49-125.274 214.924-31.406 308.281C435.425 268.46 717.22 232.977 810.906 66.084" fill="#005BAA"/><path d="M187.74 150.548c-16.155-46.755 7.384-112.231 58.445-180.407 44.352-59.22 105.813-115.394 173.135-161.093 62.34-42.307 127.075-73.848 186.304-91.333 59.804-17.67 112.038-20.426 149.153-6.705 40.789 15.074 61.189 49.22 53.435 100.179-8.969 59.081-54.436 133.603-133.394 208.48-88.793 84.195-199.711 150.092-302.041 176.747-100.587 26.217-166.588 7.592-185.056-45.876M743.948-280.6c-67.41-25.961-202.22 15.936-317.919 95.171-134.25 91.93-246.945 235.127-215.764 315.922 40.147 103.994 282.032 53.793 460.328-114.311C813.275-118.371 824.776-249.46 743.94-280.581" fill="#0056A7"/><path d="M839.604 426.27c-103.909 109.924-262.005 115.235-407.642 22.998-118.056-74.787-191.604-193.133-216.969-312.444-19.375-91.119-8.436-174.406 22.757-240.195 26.298-55.507 66.713-97.928 115.289-125.011 46.619-26.008 101.247-38.189 159.039-34.833 63.318 3.677 130.824 26.008 194.354 68.681 78.829 52.941 148.475 135.018 187.209 238.792 51.123 136.969 39.383 283.186-54.037 382.012zM358.127-221.537c-95.555 53.714-157.042 190.07-119.2 342.194 63.376 254.76 358.766 466.844 561.184 261.864 166.719-168.848 69.435-460.18-98.008-574.146-110.578-75.259-255.654-79.562-343.976-29.912z" fill="#0079C1"/><path d="M341.512 412.278C236.5 393.886 177.78 312.818 170.247 205.15c-6.016-86.117 22.179-176.955 70.82-255.995 40.801-66.257 94.261-121.314 152.103-160.671 53.912-36.682 111.156-59.429 165.87-66.171 57.275-7.047 111.406 3.486 155.02 33.104 50.972 34.611 85.702 93.969 91.647 174.125 7.449 100.23-30.509 218.191-117.071 321.633C588.635 370.653 457.475 432.59 341.512 412.278zm214.783-681.231c-103.278 12.365-227.221 99.298-297.491 217.496-98.74 166.104-94.589 391.927 91.563 420.823C573.793 404.05 811.699 143.915 797.87-70.175 788.872-209.7 669.122-282.447 556.269-268.942" fill="#ED1D24"/><path d="M96.528 121.847c14.564-69.212 66.144-142.122 139.344-207 64.758-57.39 143.874-106.167 226.649-141.602 80.642-34.517 163.255-55.715 238.375-60.627 81-5.306 151.071 8.416 197.375 42.789 54.342 40.324 71.97 105.778 37.87 188.562-40.664 98.763-151.713 192.927-299.734 268.814-155.612 79.763-311.39 118.747-422.462 87.031-97.398-27.816-134.892-94.926-117.417-177.967zM886.863-237.03c-81.444-62.566-264.71-44.817-419.745 21.887C303.981-144.968 143.935-12.18 123.671 106.624c-34.913 204.701 209.006 246.544 507.918 94.018C903.755 61.764 1015.09-133.945 886.863-237.03z" fill="#7AC143"/><path d="M715.967 501.68c-138.616 79.533-289.868 40.767-395.821-83.09-82.81-96.821-115.473-222.354-107.248-339.519 6.337-90.31 36.785-169.384 81.03-229.9 38.127-52.155 86.352-90.322 139.02-112.567 51.773-21.859 108.51-28.597 165.051-18.43 63.478 11.41 121.106 46.777 174.328 102.686 67.472 70.873 123.861 170.311 130.781 292.255 9.129 160.361-54.857 312.648-187.167 388.577M436.998-258.882c-102.099 43.205-189.04 171.76-193.992 324.06-8.202 251.174 189.326 530.057 446.125 381.565 273.906-158.367 219.717-467.902 75.735-622.438-91.152-97.818-213.054-130.35-327.849-83.179" fill="#00A94F"/></g><defs><clipPath id="clip0_13_3017"><path fill="#fff" transform="rotate(112 625.31 302.47)" d="M0 0h904v864H0z"/></clipPath></defs></svg>