<svg width="525" height="161" fill="none" xmlns="http://www.w3.org/2000/svg"><g clip-path="url(#clip0_13_3258)"><path d="M256.768-404.69c42.008-44.482 100.904-79.206 169.566-100.951 70.046-22.186 149.468-30.591 229.577-22.622 90.787 9.026 179.307 38.724 248.751 89.387 84.657 61.724 131.388 147.083 114.458 239.239C999.278-91.632 899.19-3.779 745.122 31.488 597.334 65.31 446.727 39.587 335.851-28.035c-91.424-55.77-138.976-130.592-144.857-205.88-4.911-62.968 19.846-122.154 65.745-170.76m744.231 199.839c33.02-166.176-159.684-294.684-350.511-314.916C501.519-535.557 344.16-488.984 265.537-405c-93.566 99.971-95.889 277.86 69.038 378.906 241.476 147.908 621.389 47.502 666.395-178.742z" fill="#F05147"/><path d="M327.233-452.804c44.102-40.582 100.868-70.848 163.656-87.799 64.591-17.441 134.34-20.494 200.919-6.995 75.528 15.313 143.568 51.158 189.131 106.237 54.89 66.351 70.398 151.669 30.741 237.002-45.288 97.452-149.019 168.552-281.033 188.205C505.757 2.44 392.072-30.88 317.567-98.25c-62.14-56.171-86.393-127.189-77.237-196.92 7.781-59.309 39.365-113.924 86.881-157.641m557.152 236.833c73.095-149.607-49.431-286.009-202.978-319.159-120.336-25.959-261.203 9.014-342.468 84.691-93.865 87.422-125.805 247.18-15.462 345.127C479.377 33.109 790.676-24.287 884.37-215.999" fill="#005BAA"/><path d="M196.337-82.4c-20.929-51.014 1.124-125.387 53.629-204.514 45.607-68.732 110.442-135.161 182.461-190.303 66.69-51.051 136.723-90.269 201.52-113.494 65.425-23.466 123.37-29.852 165.533-16.938 46.337 14.186 71.193 50.896 65.786 108.109-6.247 66.329-52.126 152.165-135.248 240.522-93.475 99.355-212.726 179.747-324.9 215.917C294.857-7.53 220.242-24.067 196.316-82.407m591.645-515.216c-76.645-24.613-223.994 30.584-347.72 126.127C296.676-360.644 180.333-194.1 220.132-106.152c51.242 113.2 317.205 41.957 504.964-156.478 150.254-158.828 154.767-305.467 62.858-334.971" fill="#0056A7"/><path d="M939.062 183.081c-108.668 128.952-284.24 144.907-452.113 51.495C350.868 158.833 261.556 31.782 225.793-99.406c-27.315-100.189-20.406-193.587 10.143-268.795 25.753-63.452 68.041-113.236 120.378-146.467 50.227-31.909 110.24-48.938 174.754-48.874 70.684.071 147.206 20.637 220.59 64.099 91.055 53.917 173.733 140.848 223.389 253.894 65.533 149.204 61.713 312.697-35.985 428.63zM362.407-507.373c-102.926 65.857-162.723 221.535-111.004 388.452 86.614 279.534 428.684 496.828 640.953 255.816 174.834-198.528 48.177-516.614-145.332-632.826-127.79-76.743-289.482-72.315-384.617-11.442z" fill="#0079C1"/><path d="M383.973 199.152C265.967 185.353 195.509 98.85 180.324-20.511c-12.135-95.47 13.496-198.369 62.622-289.434 41.211-76.34 97.215-141.017 159.086-188.497 57.667-44.255 119.922-73.209 180.375-84.189 63.282-11.483 124.176-3.197 174.575 26.997 58.902 35.286 101.296 99.148 112.975 187.988C884.579-256.558 849.8-122.851 760.023-2.216c-103.718 139.338-245.74 216.609-376.05 201.368zm195.931-771.888C465.772-552.412 333.36-447.777 262.643-311.753c-99.368 191.155-80.479 442.242 128.47 462.579 250.788 24.411 499.058-280.246 470.142-517.659-18.828-154.726-156.666-228.09-281.38-205.888" fill="#ED1D24"/><path d="M93.036-108.55c11.83-77.961 64.615-162.389 141.961-239.252 68.427-67.992 153.374-127.31 243.235-172.009 87.546-43.543 178.126-72.385 261.399-82.625 89.79-11.051 168.622-.229 222.315 35.088 63.014 41.43 86.764 113.164 54.054 207.473C976.993-247.364 859.383-135.5 699.483-41.63 531.38 57.035 360.516 110.322 234.927 82.078 124.798 57.304 78.84-15.01 93.036-108.55zM949.73-558.205c-94.574-64.466-297.364-33.067-465.649 51.027C307-418.706 137.314-260.739 122.274-127.218c-25.91 230.06 248.132 261.138 571.08 72.38C987.406-226.707 1098.91-451.612 949.73-558.205z" fill="#7AC143"/><path d="M806.262 274.871c-149.207 97.33-319.948 63.79-445.664-67.338C262.34 105.027 218.066-32.622 219.813-163.554c1.344-100.922 30.225-190.87 75.631-261.038 39.126-60.474 90.372-106.019 147.569-134.124 56.224-27.62 118.926-38.724 182.479-30.999 71.351 8.667 137.706 44.371 200.457 103.22C905.501-411.897 974.525-304.8 989.932-169.51 1010.22 8.4 948.651 181.967 806.233 274.885m-358.43-828.834c-110.87 54.575-199.482 203.187-195.368 373.019 6.746 280.089 244.151 577.951 520.496 396.357 294.759-193.67 214.902-534.755 44.934-697.614-107.602-103.086-245.293-131.551-370.04-71.755" fill="#00A94F"/></g><defs><clipPath id="clip0_13_3258"><path fill="#fff" transform="rotate(108.741 794.669 196.426)" d="M0 0h1007.88v962.839H0z"/></clipPath></defs></svg>