<svg width="188" height="137" fill="none" xmlns="http://www.w3.org/2000/svg"><g clip-path="url(#clip0_13_5527)"><path d="M80.425 102.376C92.767 90.697 109.63 81.988 128.99 77.03c19.751-5.059 41.878-6.15 63.935-2.69 24.996 3.921 49.036 13.538 67.459 28.671 22.458 18.438 34.038 42.838 27.88 68.128-7.216 29.641-36.332 52.44-79.559 59.814-41.464 7.072-82.759-2.413-112.385-22.896-24.428-16.892-36.403-38.382-36.831-59.352-.356-17.537 7.443-33.563 20.928-46.325m202.904 67.034c11.795-45.565-39.521-84.208-92.041-92.798-40.993-6.708-85.31 3.75-108.421 25.811-27.504 26.261-30.983 75.554 13.077 106.149 64.511 44.785 171.316 22.873 187.385-39.162z" fill="#F05147"/><path d="M100.706 90.134c12.86-10.565 29.062-18.071 46.719-21.791 18.164-3.829 37.528-3.586 55.749 1.197 20.671 5.425 38.941 16.427 50.68 32.412 14.142 19.256 17.077 43.157 4.735 66.201-14.095 26.316-43.953 44.413-80.824 47.801-34.88 3.206-65.83-7.808-85.388-27.653-16.312-16.546-21.896-36.618-18.249-55.812 3.1-16.325 12.717-30.976 26.572-42.357m150.509 74.372c22.627-40.345-9.128-80.082-51.12-91.672-32.909-9.077-72.475-1.578-96.185 18.138-27.387 22.777-38.778 66.579-9.784 95.463 40.971 40.82 128.09 29.765 157.092-21.935" fill="#005BAA"/><path d="M58.553 190.805c-4.982-14.473 2.31-34.752 18.112-55.875 13.725-18.347 32.738-35.756 53.56-49.922 19.281-13.115 39.3-22.897 57.614-28.326 18.491-5.486 34.639-6.352 46.109-2.113 12.605 4.658 18.903 15.226 16.494 31.006-2.788 18.296-16.861 41.382-41.287 64.586-27.469 26.091-61.773 46.522-93.413 54.801-31.1 8.143-51.499 2.392-57.194-14.159M230.598 57.17c-20.832-8.022-62.515 4.984-98.3 29.546-41.523 28.498-76.396 72.865-66.776 97.874 12.384 32.19 87.17 16.587 142.327-35.508 44.14-41.697 47.728-82.29 22.747-91.906" fill="#0056A7"/><path d="M259.994 276.018c-32.147 34.062-81.021 35.745-126.018 7.221-36.476-23.128-59.183-59.754-66.995-96.691-5.967-28.209-2.564-54 7.094-74.378 8.143-17.194 20.647-30.338 35.67-38.737 14.417-8.064 31.307-11.849 49.172-10.824 19.572 1.123 40.434 8.021 60.063 21.219 24.355 16.373 45.864 41.769 57.812 73.892 15.77 42.398 12.105 87.675-16.798 118.298zM111.316 75.552c-29.552 16.655-48.593 58.891-36.932 105.985C93.913 260.404 185.174 326 247.797 262.481c51.579-52.322 21.577-142.505-30.156-177.752-34.164-23.276-79.01-24.572-106.325-9.177z" fill="#0079C1"/><path d="M106.025 271.808c-32.458-5.669-50.59-30.756-52.892-64.092-1.839-26.664 6.9-54.797 21.955-79.283 12.629-20.526 29.168-37.586 47.059-49.786 16.674-11.372 34.375-18.43 51.291-20.53 17.707-2.196 34.437 1.052 47.912 10.212 15.749 10.704 26.47 29.075 28.288 53.893 2.278 31.033-9.484 67.567-36.268 99.617-30.943 37.019-71.503 56.23-107.345 49.969zm66.562-210.986c-31.929 3.854-70.265 30.802-92.016 67.417-30.564 51.456-29.336 121.378 28.201 130.279 69.059 10.685 142.666-69.92 138.443-136.207-2.747-43.2-39.747-65.695-74.636-61.486" fill="#ED1D24"/><path d="M30.364 181.94c4.52-21.434 20.482-44.022 43.126-64.128 20.033-17.786 44.502-32.909 70.098-43.901 24.937-10.708 50.481-17.291 73.703-18.831 25.041-1.663 46.698 2.569 61.004 13.2 16.789 12.473 22.222 32.735 11.66 58.377-12.595 30.59-46.946 59.774-92.722 83.308-48.123 24.735-96.288 36.844-130.615 27.051-30.102-8.589-41.676-29.359-36.254-55.076zM274.766 70.625c-25.161-19.353-81.818-13.812-129.759 6.88C94.559 99.274 45.052 140.43 38.759 177.22c-10.843 63.391 64.549 76.287 156.988 28.987 84.168-43.069 118.631-103.694 79.019-135.582z" fill="#7AC143"/><path d="M221.756 299.398c-42.869 24.66-89.616 12.694-122.338-25.631-25.575-29.959-35.642-68.82-33.07-105.101 1.981-27.964 11.412-52.456 25.105-71.205 11.799-16.158 26.716-27.988 43.002-34.889 16.01-6.78 33.55-8.88 51.026-5.747 19.62 3.518 37.426 14.454 53.865 31.753 20.84 21.928 38.246 52.704 40.356 90.46 2.782 49.651-17.035 96.82-57.954 120.363M135.706 63.969c-31.572 13.403-58.48 53.23-60.048 100.388-2.597 77.774 58.396 164.078 137.816 118.037 84.71-49.104 68.035-144.933 23.564-192.748-28.153-30.265-65.828-40.309-101.326-25.675" fill="#00A94F"/></g><defs><clipPath id="clip0_13_5527"><path fill="#fff" transform="rotate(112 145.076 165.638)" d="M0 0h280v267H0z"/></clipPath></defs></svg>