<svg width="196" height="154" fill="none" xmlns="http://www.w3.org/2000/svg"><g clip-path="url(#clip0_13_5578)"><path d="M130.913-31.814c15.824-6.19 34.724-7.932 54.529-5.258 20.205 2.728 41.123 10.025 60.266 21.513C267.404-2.54 286.074 15.4 297.467 36.342c13.893 25.522 15.464 52.484.261 73.612-17.817 24.762-53.363 34.961-96.196 25.566-41.086-9.014-75.799-33.31-95.566-63.417C89.668 47.275 86.637 22.861 94.114 3.264c6.255-16.388 19.5-28.313 36.79-35.078M293.794 106.5c28.04-37.803-5.012-92.886-50.465-120.567-35.474-21.608-80.476-28.555-110.18-16.785C97.798-16.84 76.066 27.54 105.415 72.439c42.976 65.73 150.194 85.523 188.379 34.06z" fill="#F05147"/><path d="M154.306-35.546c15.886-4.964 33.721-5.838 51.483-2.656 18.273 3.272 36.128 10.767 51.221 22.041 17.122 12.79 29.924 29.847 34.803 49.07 5.877 23.157-.377 46.41-20.468 63.135-22.945 19.099-57.413 24.661-92.858 13.958-33.532-10.125-58.083-31.954-68.759-57.69-8.906-21.46-6.545-42.16 4.042-58.58 9.003-13.967 23.417-23.936 40.532-29.282M265.875 89.89c36.119-28.897 21.607-77.65-12.96-104.158-27.094-20.77-66.581-28.675-95.959-19.303-33.935 10.828-60.939 47.148-44.911 84.805 22.647 53.216 107.543 75.68 153.835 38.652" fill="#005BAA"/><path d="M77.44 41.933c.816-15.285 15.19-31.343 37.765-44.987 19.61-11.852 43.768-20.848 68.386-26.16 22.795-4.916 45.022-6.466 64.033-4.621 19.199 1.858 34.49 7.118 43.529 15.354 9.935 9.05 11.804 21.208 3.646 34.93-9.453 15.91-31.165 32.023-62.516 44.358-35.256 13.87-74.721 19.926-107.154 15.72-31.882-4.131-48.63-17.12-47.694-34.599m209.637-59.257c-16.296-15.256-59.813-18.853-102.202-9.523-49.185 10.822-98.164 38.85-98.639 65.64-.607 34.486 74.566 48.103 145.247 20.53 56.566-22.074 75.132-58.35 55.59-76.642" fill="#0056A7"/><path d="M232.148 196.545c-42.585 19.499-88.514 2.709-119.51-40.623-25.123-35.131-32.417-77.603-25.789-114.77 5.061-28.386 17.898-51.013 34.501-66.274 14.003-12.877 30.528-20.366 47.605-22.509 16.39-2.061 33.465.772 49.638 8.43 17.719 8.39 34.465 22.616 47.702 42.217 16.426 24.32 26.826 55.934 25.839 90.193-1.303 45.217-21.7 85.805-59.986 103.336zM169.615-45.078c-33.643 4.341-67.149 36.338-74.023 84.364-11.512 80.429 48.443 175.492 130.334 140.133 67.45-29.129 73.504-123.978 38.789-176.07-22.925-34.4-64.003-52.44-95.1-48.427z" fill="#0079C1"/><path d="M91.024 134.833c-27.955-17.441-35.34-47.5-24.958-79.262 8.307-25.403 26.969-48.197 50.117-65.239 19.411-14.282 41.146-23.884 62.308-28.475 19.724-4.279 38.78-4.174 55.247.23 17.236 4.613 31.523 13.905 40.573 27.454 10.577 15.835 13.617 36.887 5.983 60.572-9.54 29.617-34.159 59.062-71.018 78.711-42.578 22.693-87.383 25.269-118.252 6.009zm140.91-170.558c-31.04-8.416-76.689 2.167-110.597 27.936C73.69 28.427 48.574 93.694 98.56 123.547c59.994 35.832 158.481-11.239 179.455-74.261 13.674-41.07-12.173-75.813-46.09-85.01" fill="#ED1D24"/><path d="M54.641 23.133C66.877 4.962 90.153-9.98 118.689-20.112c25.245-8.963 53.602-13.792 81.453-14.37 27.133-.56 53.279 2.928 75.381 10.22 23.833 7.861 42.317 19.915 51.584 35.14 10.878 17.863 8.305 38.683-11.111 58.483-23.159 23.623-65.954 37.774-117.217 42.399-53.89 4.857-103.077-2.004-131.216-23.97C42.888 68.529 39.959 44.933 54.64 23.133zm268.315-11.407c-16.054-27.384-70.646-43.521-122.849-42.344C145.177-29.383 83.84-9.827 64.193 21.91c-33.85 54.683 31.183 94.942 134.619 85.81 94.181-8.316 148.886-51.566 124.144-95.993z" fill="#7AC143"/><path d="M187.929 203.857c-48.992 6.76-87.825-21.882-103.764-69.689-12.456-37.37-7.194-77.167 8.811-109.827 12.336-25.175 30.273-44.334 50.003-56.57 17.003-10.546 35.27-15.91 52.956-16.19 17.385-.274 34.43 4.365 49.451 13.831 16.864 10.627 29.26 27.45 38.001 49.654 11.082 28.149 15.66 63.208 3.439 98.994-16.063 47.064-52.141 83.341-98.905 89.798m8.649-250.513c-34.295.568-74.187 27.378-93.347 70.498-31.608 71.108-7.482 173.999 83.415 161.145 96.949-13.705 117.474-108.784 94.21-169.798-14.73-38.622-45.878-62.076-84.274-61.84" fill="#00A94F"/></g><defs><clipPath id="clip0_13_5578"><path fill="#fff" transform="rotate(134.053 180.358 113.03)" d="M0 0h280v267H0z"/></clipPath></defs></svg>