<svg version="1.1" id="Layer_1" xmlns="http://www.w3.org/2000/svg" x="0" y="0" viewBox="0 0 207.9 36" xml:space="preserve"><style>.st0{fill:#f60}.st1{fill:#4d148c}</style><path class="st0" d="M81.6 9.4c.2 0 .4.2.4.4v2.8c0 .2-.2.4-.4.4h-3.2c-.4 0-.8-.1-.8-.1V24c0 .2-.2.4-.4.4h-3.5c-.2 0-.4-.2-.4-.4V13.1s-.3.1-.6.1h-3.4c-.2 0-.4-.2-.4-.4V9.9c0-.2.2-.4.4-.4h12.3v-.1zm-71.3.1c-.2 0-.4.2-.4.4v2.8c0 .2.2.4.4.4h3.4c.3 0 .6-.1.6-.1v11.1c0 .2.2.4.4.4h3.5c.2 0 .4-.2.4-.4v-11s.4.1.8.1h3.2c.2 0 .4-.2.4-.4V9.9c0-.2-.2-.4-.4-.4H10.3zM75.4 0c-6.4 0-12 3.7-14.8 9-2.8-5.3-8.3-9-14.7-9S34 3.7 31.2 9c-2.8-5.3-8.3-9-14.7-9C7.4 0-.1 7.5-.1 16.7s7.4 16.7 16.6 16.7c6.4 0 11.9-3.7 14.7-9 2.8 5.3 8.3 9 14.7 9s11.9-3.7 14.7-9c2.8 5.3 8.3 9 14.7 9 9.1 0 16.6-7.5 16.6-16.7S84.5 0 75.4 0M16.5 29.6c-7.1 0-12.8-5.8-12.8-12.9 0-7.1 5.8-12.9 12.8-12.9 7.1 0 12.8 5.8 12.8 12.9 0 7.1-5.7 12.9-12.8 12.9m29.4 0c-7.1 0-12.8-5.8-12.8-12.9 0-7.1 5.8-12.9 12.8-12.9 7.1 0 12.8 5.8 12.8 12.9.1 7.1-5.7 12.9-12.8 12.9m29.5 0c-7.1 0-12.8-5.8-12.8-12.9 0-7.1 5.8-12.9 12.8-12.9 7.1 0 12.8 5.8 12.8 12.9 0 7.1-5.8 12.9-12.8 12.9M52.3 9.2c.3 0 .5.2.5.4v14.1c0 .2-.2.4-.4.4h-2.9c-.2 0-.4-.1-.5-.2 0 0-5.3-7.2-5.4-7.4-.2-.2-.4-.7-.4-.7v7.8c0 .2-.2.4-.4.4h-3.3c-.2 0-.4-.2-.4-.4v-14c0-.2.2-.4.4-.4h2.9c.2 0 .4.1.5.2 0 0 5.2 7 5.4 7.4.2.2.4.7.4.7V9.6c0-.2.2-.4.4-.4h3.2"/><path class="st1" d="M99.6 3h1.1l1.8 5.5.2.8.2-.8 1.8-5.5h1l1.8 5.5.2.8.2-.8 1.8-5.5h1.1l-2.5 7.4h-1.1l-1.8-5.3-.2-.8-.2.8-1.8 5.3h-1.1L99.6 3zm12.7-3h1v1.3h-1V0zm0 3h1v7.4h-1V3zm3.4-3h1v8.4c0 1 .4 1.1.8 1.1h.3v.9h-.4c-.6 0-1.7-.2-1.7-1.8V0zm3.6 0h1v8.4c0 1 .4 1.1.8 1.1h.3v.9h-.4c-.6 0-1.7-.2-1.7-1.8V0zm7.7 0h1v4.2s.6-1.4 2.5-1.4c2 0 3.2 1.6 3.2 3.9s-1.4 3.9-3.4 3.9c-1.8 0-2.4-1.4-2.4-1.4v1.3h-1L127 0zm3.4 9.7c1.3 0 2.4-1.1 2.4-3 0-1.8-1-3-2.3-3-1.2 0-2.4.9-2.4 3-.1 1.5.7 3 2.3 3m8.5-6.9c2.1 0 3.1 1.6 3.1 3.4v.5h-5.7c0 1.9 1.3 2.9 2.9 2.9 1.4 0 2.3-.9 2.3-.9l.5.8s-1.1 1-2.7 1c-2.2 0-3.9-1.6-3.9-3.9-.2-2.4 1.5-3.8 3.5-3.8m2.1 3.1c-.1-1.6-1-2.3-2.1-2.3-1.2 0-2.3.8-2.6 2.3h4.7zm6.3-3.1c1.8 0 2.7 1.1 2.7 1.1l-.5.8s-.8-.9-2.2-.9c-1.6 0-2.9 1.2-2.9 3 0 1.7 1.3 3 2.9 3 1.5 0 2.4-1 2.4-1l.5.8s-1 1.2-2.9 1.2c-2.2 0-3.9-1.6-3.9-3.9 0-2.5 1.7-4.1 3.9-4.1m8.1 0c2.2 0 3.9 1.7 3.9 3.9s-1.8 3.9-3.9 3.9-3.9-1.7-3.9-3.9c0-2.3 1.7-3.9 3.9-3.9m0 6.9c1.6 0 2.9-1.3 2.9-3s-1.3-2.9-2.9-2.9c-1.6 0-2.9 1.3-2.9 2.9 0 1.7 1.3 3 2.9 3m5.8-6.7h1v1.7c.4-1 1.5-1.9 2.7-1.9 1.4 0 2.1.6 2.3 1.9.4-1 1.5-1.9 2.7-1.9 1.8 0 2.5 1 2.5 2.9v4.7h-1V5.9c0-1.2-.3-2.2-1.6-2.2-1.1 0-2.1 1-2.3 2.1-.1.3-.1.7-.1 1.1v3.5h-1V5.9c0-1.1-.2-2.2-1.6-2.2-1.2 0-2.1 1-2.4 2.2-.1.3-.1.6-.1 1v3.5h-1l-.1-7.4zm16.6-.2c2.1 0 3.1 1.6 3.1 3.4v.5h-5.7c0 1.9 1.3 2.9 2.9 2.9 1.4 0 2.3-.9 2.3-.9l.5.8s-1.1 1-2.7 1c-2.2 0-3.9-1.6-3.9-3.9-.1-2.4 1.5-3.8 3.5-3.8m2.1 3.1c-.1-1.6-1-2.3-2.1-2.3-1.2 0-2.3.8-2.6 2.3h4.7zm27.6 25.8c0-.9-.7-1.6-1.6-1.6-.9 0-1.6.7-1.6 1.6 0 .9.7 1.6 1.6 1.6 1 0 1.6-.6 1.6-1.6zm-2 .1v1.1h-.3v-2.3h.8c.5 0 .7.2.7.6 0 .3-.2.5-.4.5.2 0 .3.2.3.5 0 .2.1.6.1.7h-.4c-.1-.2-.1-.5-.2-.8-.1-.2-.2-.3-.4-.3h-.2zm.5-.3c.3 0 .4-.2.4-.3 0-.2-.1-.3-.4-.3h-.4v.7l.4-.1zm-2 .2c0-1.2.9-1.9 1.9-1.9 1 0 1.9.8 1.9 1.9 0 1.2-.9 1.9-1.9 1.9-1 0-1.9-.7-1.9-1.9z"/><path class="st0" d="M150.7 33.3l-2.3-2.5-2.2 2.5h-4.7l4.6-5.1-4.6-5.2h4.9l2.2 2.5 2.2-2.5h4.7l-4.6 5.1 4.6 5.2zm-18.2 0V17.1h9v3.6h-5.2V23h5.2v3.5h-5.2v3.2h5.2v3.6z"/><path class="st1" d="M128.7 17.1v6.6c-.8-1-1.9-1.3-3.1-1.3-2.5 0-4.4 1.7-5 3.9-.8-2.5-2.7-4-5.6-4-2.3 0-4.2 1-5.1 2.8V23H105v-2.3h5.3v-3.6h-9.6v16.2h4.3v-6.8h4.3c-.1.5-.2 1-.2 1.6 0 3.4 2.6 5.8 5.9 5.8 2.8 0 4.6-1.3 5.6-3.7h-3.7c-.5.7-.9.9-1.9.9-1.2 0-2.2-1-2.2-2.2h7.5c.3 2.7 2.4 5 5.3 5 1.2 0 2.4-.6 3.1-1.6v1h3.8V17.1h-3.8zM113 26.5c.2-1 1-1.7 2-1.7 1.1 0 1.9.7 2.1 1.7H113zm13.4 4.3c-1.4 0-2.3-1.3-2.3-2.7 0-1.5.8-2.9 2.3-2.9 1.6 0 2.2 1.4 2.2 2.9s-.6 2.7-2.2 2.7zm31.9 2.5V23h5.7v.8h-4.8v3.8h4.6v.7h-4.6v4.2h5v.8zm6.6 0l2.7-3.7-2.6-3.5h1.1l2.1 2.9 2.1-2.9h1.1l-2.7 3.5 2.8 3.7h-1.1l-2.3-3.1-2.2 3.1zm8.4 2.7h-.9v-9.8h.9v1.1c.5-.9 1.2-1.3 2.3-1.3 2.2 0 3.2 1.8 3.2 3.8 0 1.9-1 3.8-3.2 3.8-1 0-1.8-.4-2.3-1.2V36zm4.5-6.3c0-1.5-.6-3-2.3-3-1.6 0-2.2 1.3-2.2 3s.6 3 2.2 3c1.7 0 2.3-1.5 2.3-3zm5.4-2.9c-1.4 0-1.9 1.2-1.9 2.5v4.1h-.9v-7.2h.9l.1 1c.4-.8 1.1-1.2 2.1-1.2h.4v.9c-.3-.1-.5-.1-.7-.1zm1.6 3.1c0 1.6.8 3 2.3 3 1.2 0 1.8-.8 2-1.6h.8c-.4 1.5-1.3 2.3-2.9 2.3-2.2 0-3.2-1.6-3.2-3.6 0-2.1 1-3.9 3.3-3.9s2.9 2 2.9 3.9l-5.2-.1zm.1-.7h4.3c0-1.4-.7-2.6-2-2.6s-2.2.9-2.3 2.6zm8.6 4.3c-1.5 0-2.6-.7-2.6-2.3h.9c0 1.1.7 1.6 1.8 1.6 1 0 1.7-.5 1.7-1.4 0-.9-.9-1.1-1.8-1.4-1.1-.3-2.4-.7-2.4-2.1 0-1.5 1.3-2 2.5-2 1.4 0 2.4.5 2.5 2h-.9c0-.9-.7-1.3-1.6-1.3-.7 0-1.6.3-1.6 1.2 0 .9.9 1.1 1.8 1.3 1.1.3 2.4.7 2.4 2 0 1.8-1.3 2.4-2.7 2.4zm6 0c-1.5 0-2.6-.7-2.6-2.3h.9c0 1.1.7 1.6 1.8 1.6 1 0 1.7-.5 1.7-1.4 0-.9-.9-1.1-1.8-1.4-1.1-.3-2.4-.7-2.4-2.1 0-1.5 1.3-2 2.5-2 1.4 0 2.4.5 2.5 2h-.9c0-.9-.7-1.3-1.6-1.3-.7 0-1.6.3-1.6 1.2 0 .9.9 1.1 1.8 1.3 1.1.3 2.4.7 2.4 2 0 1.8-1.3 2.4-2.7 2.4z"/></svg>