<svg version="1.1" id="Слой_1" xmlns="http://www.w3.org/2000/svg" x="0" y="0" viewBox="0 0 1222.6 1574" xml:space="preserve"><style>.st0{fill:#f5e57f}</style><g id="Слой_2"><g id="Слой_1-2"><path class="st0" d="M447.7 746.5l-1.3.8-2 1.2-1.8.9-.4.2-1.5.7-.7.3-1.6.7-.7.3-2.3.9-.8.3-1.5.5-2.5.7-4.8 1.3-5 1-1.8.4-.7.1-2.5.5-1.2.1.4.2c.3.3.7.6 1.1.8l.7.4.6.3c.2.1.5.2.7.3l.4.2 1 .3 1.5.6.3.1c1.8.6 3.6 1.1 5.5 1.4l.6.1 1.8.3.4.1 2.1.2c.7.1 1.5.2 2.2.2l4.4.3h11.2l2.1-.1 4.5-.3 4.3-.5 2.2-.2 2.2-.4 4.3-.7c1.4-.3 2.8-.6 4.1-1l1.8-.5c0-.2.1-.5.2-.7l17.9-31.9-2-1.3c-1.5-.7-3-1.4-4.5-1.9l-1.1-.4-1.1-.4-2.5-.7-2.1-.5-.4-.1-1.9-.4-.6-.1-2-.3-.6-.1-2.1-.3-.4-.1-2.6-.3-1.3-.1-2.6-.2h-1.6l-2.5-.1c-1.6 0-3.3.1-5.1.2h-1l-1.6.1c-.3.1-.7.1-1 .1l-1.5.2-2.5.4-2.5.5-2.3.6-1.4.5-.9.2-1.3.5-.8.3-1.3.6-.7.3c-1.3.6-2.6 1.4-3.7 2.2l-1 .9-.5.4-1.1 1.1-.5.5-.4.4-1.1 1.5-.2.4-.1.3-.6 1.2-.1.2-.1.3c3.9 1.3 7 2.5 9.9 3.7l2.9 1.3 2.7 1.5c.9.5 1.8 1 2.7 1.6.9.5 1.8 1.1 2.6 1.7l.5.6c.4.6.3 1.4-.2 1.8-.1.1-.2.1-.3.2l-1 .6zm94.5 26.5l15.4-22.3-59-18.2-16.6 27.1zm12.6-4.6l59.8 13.9s3.2-4 2.7-5.6l-57.8-14.8c-.9.5-1.6 1.1-2.3 1.8-1.4 1.2-2.2 2.9-2.4 4.7z"/><path class="st0" d="M378.8 756.5c5.5 1.7 11 3.4 16.4 5.3 11.1 4.3 22.6 7.7 34.2 10.2 4.9 1 10 1.7 15 2 4.9.4 9.8.1 14.6-.9 4.4-.9 8.5-2.6 12.1-5.1 1.6-1.1 3.2-2.4 4.5-3.9l1.4-1.5-4.3 1.1-4.5 1-2.4.4-2.3.3-4.6.6-4.7.5-2.3.1h-.5l-1.9.1-4.8.2H440l-4.8-.2-2.5-.2-2.4-.3-.3-.2-2.1-.3-.6-.1c-2.2-.3-4.4-.8-6.6-1.5l-.3-.1-2.1-.7-1.1-.5-.9-.3-.8-.3-.8-.4-1-.6-1.8-1.1-.7-.5-.5-.4-.8-.7-1.1-1.1-.5-.5-.4-.6c-.4-1 .5-2 2-2.3l2.7-.3 1.6-.3.8-.1 2.5-.4.7-.2 1.8-.3 4.7-1 2.4-.5 2.3-.7 2.3-.7 1.4-.5.7-.3 2.3-.8.6-.2 1.4-.7.7-.3 1.3-.6.4-.2 1.5-.8c.6-.2 1.1-.5 1.7-.9-1-.5-1.9-1.1-2.8-1.7l-2.6-1.4c-4.7-2.2-9.6-4.1-14.5-5.7h-.2c-.6-.1-1.1-.5-1.4-1-.2-.4-.3-.8-.1-1.3l.9-2.1.1-.4.7-1.4.2-.2.4-.7 1.3-1.8.6-.5.4-.6 1.6-1.4c.2-.1.3-.2.4-.4l1.5-1c1.4-1 2.9-1.9 4.5-2.7l.9-.3c.5-.3 1.1-.6 1.6-.7l.9-.3 1.7-.6.9-.2 1.8-.5 2.8-.5 2.8-.5 2.8-.4 1.9-.1c.3-.1.7-.1 1-.1l1.8-.1 1-.1c2.2-.1 4 0 5.8 0l2.7.1 1.6.1 2.9.2 1.3.2 2.9.4.4.1 2.4.4.6.1 2.2.4.6.1 2.2.5.3.1 2.4.7c.9.2 1.8.5 2.6.9l1.3.4 1.4.5c2.5 1 4.8 2.2 7.1 3.7v-.6l.1-1.2c0-.2 0-.5-.1-.7l-.1-1.3-.2-1.2-.2-.8c-.4-1.2-.9-2.3-1.6-3.4l-.9-1.3-.5-.6-.5-.6-.5-.5-.8-.9-1.6-1.4-.3-.2-1.4-1-.6-.5-4.6-2.8-1.5-.7-1-.5-1.6-.7c-.3-.1-.6-.2-.9-.4l-1.7-.6-1-.4-1.7-.6-1-.3-1.7-.5-1.1-.3-1.8-.4-1-.2-1.8-.4-1-.2-1.9-.2-1-.1-2-.1-1-.1-1.9-.1h-1c-1.9-.1-3.9 0-5.8.1l-2 .2h-.9l-2.1.4-.6.1-.5.1-.8.1-1.4.3-1.2.3-1.4.5-2.4.7-.9.3-1.6.6-.8.4-1 .5.3.2.5.3.2.1.5.4.3.2.6.5.2.1.5.5.2.1.5.6.3.5.3.7c.3.5.4 1.1.4 1.7.1.5.1 1.1 0 1.7l-.4 1.4c-.4.8-1.1 1.3-2 1.4-2.1.4-4.2.6-6.2.8l-1 .1-7 .8-3.4.4-3.4.5-3.3.7-3.2.8-1.6.3-1.5.5-1.5.5-.9.3-.6.2-2.8 1.2-.9.5-.4.2-1 .5-.2.1-1.1.8-.6.3-.9.8-.4.3-.1.2-.9.9-1.3 1.8v.2l2.9.6h.2c1 .2 2.1.4 3.1.8l1.1.3.5.2 1.1.3.3.1 1.4.5.3.1 1.1.5.4.2 1.1.5.4.3c.5.2 1 .5 1.5.9l.4.3 1 .7.5.5.4.4.2.1.8 1.1.1.2.4.8.2.4c.1.2.1.4.1.6l-.1.1c-.1.9-.7 1.7-1.4 2.1-.6.4-1.2.7-1.8.9-1.1.4-2.2.8-3.3 1l-5.5 1.3-.7.1c-3.9.8-7.9 1.6-11.7 2.7-4.5 1.3-7.4 2.6-9.6 4.2-1.1.8-2 1.8-2.7 3-.3.6-.5 1.2-.5 1.9l1.6.3c1.8.4 3.1.8 4.3 1.2zm430.7 70.7l-99.3-26.4c-.7 1.5-1.5 3-2.4 4.5l99.5 25.4c1.3.4 2.8 0 3.7-1 .3-.4.3-1 0-1.4-.4-.6-.9-.9-1.5-1.1zm-117.6-31.1l-42.2-11.4-19.2-5.5c-.7 2.1-2.2 4-2.5 5.7l61.6 15.9c1-1.5 1.7-3.1 2.3-4.7zm-206.5 15.1l.3-.6c.6-1.5 1.2-2.9 2-4.3 1.3-2.2 3-4.2 5-5.8 3.2-2.3 7-3.6 11-3.8 2.2-.1 4.4 0 6.5.3l1.3.1 1.7.3 1.1.2 1.8.4 1 .3 1.7.5 2.5.8.9.3 3.5 1.3.6.3 1.3.5 4.7 2.1.2-.5 2.2-3.3.4-.6-2.5-1-3-1.2-.8-.3-3.8-1.3-1.3-.4-1.9-.6-1-.4-.5-.2-1-.3-3.4-.9-1.7-.4-.6-.2-1.1-.2-2.8-.5-2.9-.4-.9-.1-3-.2c-2.5-.2-5 .1-7.5.6-2.1.5-4.2 1.3-6 2.6-1.6 1.1-3.1 2.5-4.3 4-2 2.4-3.6 5.2-4.7 8.1l-.1.2-2.2 4.7-.6 1.7 7.9-1.8zm136.8-16.4l28.4-3.3-17.5-3.5-8.1 1z"/><path class="st0" d="M605.3 804.4c-1.2 2-2.6 3.8-4.2 5.4-1.7 1.9-3.8 3.4-6.1 4.6-2.8 1.4-6 2.1-9.1 2-3.7-.2-7.4-.8-10.9-1.8-7.5-1.8-14.6-4.3-21.7-6.7l-.9-.3-5.1 6.3c.1-.2 5.6 1.8 6.1 2 3.8 1.3 7.7 2.4 11.6 3.4l6.7 1.6c5.8 1.4 11.5 2.8 17.8 2.3 2.7-.3 5.3-.9 7.8-2 2.3-1 4.5-2.4 6.4-4 3.6-3.1 6.8-6.8 9.4-10.8 2.3-3.5 4.6-7.3 7.3-12.3l3.3-6.2.2-.4 3-5.8c2.2-4.3 4.9-8.3 8-12 1.8-2 3.7-3.7 5.9-5.2 2.5-1.8 5.2-3 8.2-3.8 3.3-.8 6.7-1 10-.5 3 .4 5.8 1.1 8.6 2.2l2.8 1.2c3.2 1.4 6.2 3.1 9.1 5 3.5 2.2 6.8 4.7 10 7.4l.1-.5.6-3.1c.1-.8.3-1.6.5-2.3l.2-.7.9-3-3.4-2.4-1.7-1.1-1.1-.7c-2.6-1.6-5.3-3.1-8-4.5l-1-.4c-4.2-1.9-8.7-3.3-13.3-4.1l-1-.1c-.4-.1-.8-.2-1.2-.2h-.6l-.8-.1h-1.9l-2.9.1-.1.1c-1 0-2 .2-3 .4l-.9.1c-.4 0-.8.1-1.2.3l-.7.1-.3.1c-.3 0-.5 0-.6.2l-.9.2-.7.3-1.1.4-1.8.7c-2.3 1-4.5 2.3-6.5 3.7-4 2.8-7.7 6.1-10.8 9.8-5.8 7.2-10.7 15-14.6 23.3-1.8 4.1-3.9 8.1-6.4 11.8z"/><path class="st0" d="M672.7 788.5l19.9-3.1.1-6.1-36.5 5.2zm-140.5 20.1l.6-1-2.7-1.4-1-.5-139.2 27.5h-.2l-.4.1c-1.5.4-2.3 1.5-1.9 2.5.2.6.7 1.1 1.2 1.3l.3.1c.6.3 1.3.4 2 .4h.9l.4-.1h.3L531 810.4l1.2-1.8zm22.6-6.5l-2 2.7 4.8 1.3 46.7-7.2 1.2-2.4-2.9-1.7-1.1-.7z"/><path class="st0" d="M552.5 801.3c2.2-3.2 4.6-6.3 7.2-9.3 1.5-1.6 3.1-3.1 4.9-4.4 2.1-1.5 4.5-2.6 7.1-3.3 2.8-.6 5.8-.7 8.7-.4 2.5.3 4.9.9 7.3 1.7 2.6.8 5.2 1.8 7.6 3l3.3 1.5 7.5 4 2.6 1.5 1 .5 2.7-5.5-.6-.3-4.3-2.2-3.3-1.6-1.9-.9-2.5-1.1c-3.4-1.5-6.4-2.7-9.4-3.7-4-1.5-8.2-2.5-12.5-3.1-2.3-.3-4.7-.4-7-.2s-4.6.7-6.7 1.5l-1.6.6-1.5.7-1 .5-.4.2-.5.3c-.3.1-.6.3-.8.5l-.5.3-2.2 1.5-.5.4-.8.6-1.2 1.1c-3 2.7-5.8 5.7-8.2 8.9-2.1 2.8-4.3 5.8-6.7 9.5l-1 1.5-2.2 3.2c-2.5 4.9-5.9 9.4-9.9 13.3l-2 1.9-.8.6-.3.3-1.2.8c-1.6 1.1-3.3 2.1-5.2 2.8-3.8 1.6-7.9 2.1-12 1.7-3.1-.3-6.1-1.1-8.9-2.3l-1.4-.6-2.2-1-5.7-4-7.6 1.8c6.5 4.4 13.1 9.6 21.9 12.1 7.9 2.3 15.8 1.3 21.9-2.6 1.9-1 3.7-2.3 5.3-3.6 3.3-2.7 6.4-5.6 9.2-8.7 2.7-2.9 5.3-6.1 8.2-9.7l7.3-10 .8-.3zm160.8-10.8l-.9 5 1.8 1.3.8.4 1.9 1.2 3.6 2 4.6 2.1 1.8.7.8.3.7.2 2.1.6c4.1 1.3 8.4 1.8 12.7 1.7s8.7-.7 12.9-1.8l5.5-1.7c2.9-1 5.8-2.2 8.6-3.5l2.1-1 .8-.4.4-.3c.4-.9.6-2 .5-3 0-1.1-.4-2.1-1.1-2.9l-.4-.1-1.4-.5-.7-.2-.6-.4-.4-.2-1-.5-.3-.2-.3.3c-1.8 1.4-3.6 2.7-5.6 3.9-3.1 1.8-6.4 3.2-9.8 4.2-6.8 1.7-14 1.3-20.6-1.1l-1.1-.4-.4-.2-1.5-.6-1-.5-1.7-.9-.9-.5-1.6-.9-2.3-1.4-.9-.6c-1-.7-1.9-1.4-2.9-2.2l-1.7-1.2-2.2-2-.3 5.3zm2.6-11.1v.2l2 1.9.8.7 61.1-9-.2-.9c-.1-.8-.4-1.6-.8-2.4-.3-.8-.8-1.6-1.3-2.3l-.7-.9-60.7 9.9v.2l-.2 1.7v.9z"/><path class="st0" d="M692 802.3c-1.3 2-3 3.8-5 5.3-2.4 1.8-5.2 3-8.1 3.6-3.2.6-6.4.7-9.6.3-2.9-.3-5.7-.9-8.5-1.8-2.4-.7-4.7-1.5-7-2.4l-4.4-1.9c-5.2-2.3-10.2-4.8-15-7.5l-4.3-2.3-1.1 1.9-1.6 3 .9.5 5.3 2.8 8.5 4 .9.4c3.7 1.6 7.1 3.1 10.6 4.3 4.7 1.7 9.6 3.1 14.5 4.1 2.7.5 5.5.9 8.2 1.1 4.2.3 8.4-.1 12.6-1.1 3.7-1 7.1-2.8 10-5.3 1.7-1.5 3.3-3.2 4.6-5.1.4-.6.7-1.1 1.1-1.7.9-1.4 1.7-2.9 2.4-4.5 1.7-3.7 2.8-7.6 3.2-11.7.4-2 .6-4.1.8-6.2l.1-1.1.2-1.9.1-1.1.2-1.9c.5-4 1.9-7.9 3.9-11.4 1.2-1.8 2.6-3.4 4.2-4.8 4.5-4 11.8-6.2 19.6-5.9 3.7.2 7.4.5 11 1.1.2 0 1-1.1 1.1-1.3s.2-.3.3-.5c.2-.3.3-.6.4-1 .1-.9-.1-1.8-.6-2.7-.2-.4-1-2-1.9-2.1l-1.2-.1c-2.4-.2-5.8-.4-10.1-.4-4.2 0-8.4.3-12.6 1l-2.5.5c-.3.1-.6.2-.9.2l-.7.2-2.5.7c-4.2 1.3-8.1 3.6-11.2 6.7-4.4 4.3-7.3 9.8-8.4 15.8l-.1.8-.5 2.2c-1.7 7.1-1.2 14.3-3.8 21.3 0 .1-.1.2-.1.3-.6 1.6-1.3 3.2-2.2 4.7-.4.3-.6.6-.8.9z"/><path class="st0" d="M743.7 740.9l1.6.7c3.4 1.3 6.6 3.3 9.2 5.8l.4.4c1.3 1.3 2.1 3.1 2.2 4.9 0 .5-.2 1-.6 1.3-.4.4-1 .7-1.5 1-.8.6-1.3 1.4-1.7 2.3-.4 1.6-.1 3.4.8 4.8l1.1 1.5v.1l22.7-3.7.2-.5.3-.7c.2-.5.4-.9.7-1.3l.3-.5.6-.8.3-.5.6-.8 1.1-1.2 1.1-1.2.9-.7.8-.7 1-.8 1.3-1.1.9-.7.5-.4 1.4-1 1.1-.6 2-1.3 2.2-1.4c-.1-4.4-.9-8.7-2.4-12.8-.6-2.2-1.4-4.5-2.3-6.8l-2.6-6.8c-2.6-5.6-5.4-11.1-8.5-16.6l-2-3.3-2.1-3.2-.7-.9-2.6 1.6c-.8.5-1.5 1.1-2.3 1.7l-2.2 1.8c-1.3 1.2-2.4 2.5-3.4 3.9-1.9 2.5-2.4 5.8-1.4 8.8.6 1.6 1.4 3 2.4 4.3.9 1.2 2 2.3 3 3.4l.8.9 1.9 2.3c.6.8 1 1.7 1.2 2.6.1.2 0 .5-.2.6-.2.2-.5.3-.8.3-.4 0-.7-.1-1.1-.2l-.4-.2v-.1c-.7-.6-1.5-1.3-2.3-1.8-1.7-1.2-3.5-2.4-5.3-3.5l-.2-.2-2.5-1.5c-1.8-1.1-3.7-2.2-5.7-3.1l-.5-.2-2.4-1-.5-.1-.1.1-.7 1-.2.3-.2.5-.5.8-.3.5-.2.3-.3.8-.3 1.5v.2l-.1.8-.1.8.1.5v.4l.1.5v.4l.5 1.6.8 1.6 1.1 1.6.6.7.7.8 1.5 1.5 1.8 1.5 5.5 3.9 2.5 1.7c.2.1.4.3.5.6 0 .3-.1.5-.4.6-.5.4-1.2.4-1.8.2l-1.4-.4c-1.9-.8-3.9-1.5-5.9-2.1-2.4-.8-4.8-1.3-7.3-1.6-1-.2-2.1-.2-3.1 0-.8.1-1.6.4-2.3.9-.6.4-1.1 1-1.4 1.7l-.5.8 1.4.5 3.6 1.7zm69.6 42.2l-2-.5-.7-.1-1.4-.4-2-.5c-.5-.1-1-.3-1.5-.5l-.7-.1-.7-.2-1.3-.4-2-.6-1.9-.8-1.3-.5-1.9-.8-.5-.3-1.8-1-.9-.5-.5-.3-22.7 3.3v.1l.3 1.6c.4 1.1.9 2.1 1.7 3l.6.6h.1l.6.5.6.5.4.2.6.3 1.3.6.6.2 1 .2.7.1.5.1.7.2c.3.1.5.2.7.4h.1c1.5 1.4 2.3 3.2 2.5 5.2.1 1.7-.3 3.5-1.1 5-1.2 2.4-2.7 4.5-4.6 6.4l-.8.9 1.1.7.9.4c.6.3 1.2.5 1.9.7.9.2 1.8.3 2.7.1 1-.2 2-.5 2.8-.9 1.8-.9 3.4-2.1 4.9-3.5l3.5-3.5.7-.8c.5-.5 1.3-.6 2-.4h.1c.4.1.7.6.6 1l-.8 2.2c-.5 1.7-1.1 3.3-1.5 5l-.2 1.8-.2 1.8v.9l.1.8.5 1.8.6 1.7.9 1.5.3.3.3.5.2.3.5.5.6.7.9.7.1.1 1.6 1.2 1 .7.4.2.6.4 1 .6 1.2.5 1 .5.6.3.3-.3c.6-.5 1.1-1.1 1.5-1.8.9-1.3 1.7-2.8 2.4-4.3l.9-2 .1-.2.9-2.2.8-2.3.5-2.3v-.4c0-.2.2-.4.4-.5.3-.1.6-.2.9-.2l.7.1.5.4c.6.8 1 1.7 1.2 2.6l.3 2.5.1 1 .4 3.9c.5 3.4 2.2 6.4 4.9 8.5 1.5 1.3 3.2 2.4 5.1 3.2l.9.4c1.8.8 3.6 1.4 5.5 2l3.4 1 3.6.8 3.5.7-.2-1c-.3-1.1-.6-2.2-.9-3.4l-1-3.4-1.2-3.4c-3.5-9.3-7.7-18.3-12.8-26.9-2.4-4.3-5.4-8.3-8.7-11.9l-3.1-.5-2.8-.5-1.7-.3zm-20.2-25.5c-.7-.3-1.3-.6-1.9-1l-1.9-1.5h-.3c-.7.2-1.3.5-1.9.8-1.2.7-2.1 1.6-2.8 2.8-.7 1-1 2.2-1 3.4l.1 1.7.4.9.3.9c1.5 2.5 3.7 4.6 6.4 5.8l.6.2 1.7.7 2.5.6 2.4.2h.3c0-.6.1-1.3.3-1.9.2-.7.6-1.3 1-1.9.7-.7 1.5-1.2 2.4-1.6 1-.4 2-.6 3-.7.9-.1 1.9-.2 2.8-.1l2.8.1c.6 0 1.2 0 1.8.1.9.1 1.9 0 2.8-.2l.4-.4c.2-.2.3-.5.3-.8 0-.9-.1-1.7-.4-2.5l-1-2.6-1.4-2.7c-.5-.8-1.1-1.5-1.8-2.1l-.8-.5h-.1l-.5-.1c-1 .1-2 .4-2.9.8l-1.2.5-2.7 1.1c-.8.3-1.6.6-2.5.7-1.1.2-2.2.3-3.3.3-1.2-.1-2.3-.3-3.4-.7l-.5-.3zm-469.6 119h577.9v8.5H323.5zm35-442l1.7-.7 1.3-.7.5-.2c.9-.5 1.8-.9 3-1.4 1.8-.8 3.7-1.5 5.5-2.2l.5-.2c2.2-.7 4.2-1.4 6.2-1.9 1.4-.4 2.9-.8 4.4-1.1.6-.1 1.2-.3 1.9-.4l2-.4c1.4-.3 2.9-.5 4.4-.7l3.1-.4 3.2-.3c1.5-.2 3-.3 4.4-.3l2-.1c1 0 1.9-.1 2.8-.1-.7-.8-1.5-1.6-2.4-2.3-1.4-1.1-2.9-2.1-4.4-3.1l-2.3-.3h-.9l-2.1-.1h-2.2c-.8 0-1.7.1-2.5.2l-1.5.1-1 .1c-1 .1-2.1.3-3.1.5-3 .6-5.7 1.3-8.3 2-2.9.8-5.6 1.7-8.3 2.6-3.2 1.1-6.3 2.2-9.5 3.3-2.3.8-4.7 1.7-7 2.5-2.8 1-5.6 1.9-8.4 2.8l-4.2 1.3-4.3 1.2-4.4 1.1-4.4 1c-1 .2-1.9.4-2.9.5l-1.6.3c-1 .2-2 .3-2.9.4l-1.5.2c-3.5.4-6.4.6-9.1.7-.6 0-1.3.1-2 .1h-4.9l-2.3-.2c-1.3-.1-3-.2-4.6-.5l-1.4-.3c-1-.1-2-.3-3.1-.5l-1.5-.3-3-.6-4.4-1.2-.8-.2c-1.8-.6-3.7-1.2-5.6-1.9l1.5 2.6.5.7c.3.4.5.7.8 1.1.4.6.9 1.2 1.4 1.7l.9 1c.5.6 1 1.1 1.5 1.6.3.3.7.6 1 .9.5.5 1.1 1 1.6 1.4l1.5 1.1c.4.3.9.6 1.4.9l1.1.6c.7.4 1.3.7 2.1 1l.4.2c1 .4 2 .8 3 1.1l1.9.6 1.7.3.7.1c.4.1.7.1 1.1.2l1.9.2c1.5.2 3 .2 4.5.2 1 0 2 0 3-.1 2.5-.1 5.1-.4 7.6-.9 5.1-.9 10.2-2.1 15.1-3.7 2.4-.8 5-1.6 7.5-2.5 2.2-.8 4.5-1.7 7.5-2.8 3.2-1.2 6.4-2.5 9.6-3.8l5.1-2m98.1 19.4l1.2 1.1c2.4 2.2 5 4.5 7.5 7 1.3 1.3 2.5 2.5 3.6 3.7l1.8 1.9 2.3 2.6c.4.4.8.9 1.1 1.3 0 0 2 2.5 2.2 2.8.4.5.7.9 1.1 1.4l2 2.9c.3.5.7 1 1 1.5l1.4 2.2.5.8.9 1.5 1.2 2.3.4.8c.3.5.5 1 .8 1.6l1 2.4 1 2.4 1.6 5.1c.2.6.3 1.2.4 1.8.1.3.4 1.9.4 1.9.4 1.4.6 2.9.8 4.3 0 0 .5 3.2.5 3.5.9-.5 1.7-1 2.5-1.5.3-.2.5-.4.8-.5s.8-.5 1.2-.8l.9-.7c0-.6 0-1.4-.1-2.2l-.1-2-.2-2.2c-.3-3.8-1-7.5-2-11.1-1.3-4.8-3-9.4-5.3-13.8-2.7-5.2-5.9-10.1-9.5-14.6-3-3.7-6.2-7.2-9.6-10.5-.4.3-.8.5-1.2.7-3.7 1.9-7.8 2.8-12 2.6l-.1-.2zM349.8 347l.4.7 1.4 2.8c1.8 3.2 3.9 6.2 6.2 9 1 1.2 2.1 2.4 3.2 3.7.1-.4.2-.7.3-1.1 1.1-3.3 3.1-6.2 5.7-8.4l.6-.5c.5-.4.9-.7 1.4-1l.6-.4c.5-.3.9-.6 1.4-.9l1.1-.6c.4-.2.8-.4 1.2-.5l1.3-.6.2-.1.7-.2c1.4-.4 2.9-.6 4.4-.8h.3c1.6-.1 3.1-.2 4.2-.3 1.5 0 3-.1 4.5-.1h3.6c5.3.1 10.7.4 16 .8 9.2.7 19.3 1.7 31.7 3.2 4.7.6 10.3 1.3 15.8 2.1l7.9 1.2 3.9.7 2 .4 1.7.3h.2c5 .8 9.6 1.4 13.8 1.9 1.2.1 2.3.2 3.5.3s2.3.2 3.4.2c2 .1 3.6.2 5.2.2h1.7c1.3 0 2.3 0 3.4-.1 1.4-.1 2.4-.2 3.4-.3s2.2-.2 3.4-.4c1-.1 2-.3 3-.5l.3-.1c2.2-.5 4.3-1.1 6.4-1.9 2-.8 3.9-1.8 5.7-3s3.5-2.5 5-4.1c1.4-1.5 2.7-3.2 3.7-5l.3-.6c.1-.2.3-.5.5-.8l.7-1.5c.3-.7.6-1.4.8-2.1l.3-.9c.7-2.1 1.2-4.2 1.6-6.3.4-2.2.6-4.4.7-6.6l.1-1.7v-4.9l-.2-3.5c-.1-.8-.1-1.5-.2-2.3l-.1-1c0-.2 0-.4-.1-.6-1.1.5-2.1 1.1-3.2 1.6l-3.2 1.4c-2 .9-4 1.8-6 2.6-6.1 2.5-12.4 4.7-18.7 6.5l-4.7 1.4-4.8 1.2c-2.7.7-5.5 1.3-8.2 1.8l-1.4.3c-2.1.4-4.2.8-6.3 1.1l-3.4.6-3.3.5c-2.1.3-4.3.6-6.5.8-5.9.7-12.1 1.1-19.6 1.5-6.2.2-11.8.4-17.3.4H429c-5.6 0-11.4-.1-16.9-.2l-4.2-.1c-3.7 0-7.4-.1-11.1-.1-2.2 0-4.4 0-6.6.1-6.3.1-12.5.6-18.7 1.5-6.9 1.2-12.4 3-16.6 5.7-2.3 1.4-4.4 3.2-6.2 5.2v.1c.3.4.6 1.3 1.1 2.3m102.6 246.2l-3.7.8c-.8.2-1.7.3-2.5.4l-1.2.2-.8.1c.3.5.5 1 .8 1.6 1.3 2.6 2.9 5.1 4.1 6.9 3.4 5 6.8 8.7 10.4 11.2 1.9 1.4 4.1 2.5 6.4 3.2 1.8.5 3.7.8 5.6.8h1.4c4.4-.3 9.1-2.1 14-5.2 4.5-3 8.6-6.5 12.2-10.4 3.7-4 7.2-8.3 10.3-12.8 3.2-4.5 6-9.2 8.6-14.1 2.6-4.8 4.9-9.8 6.6-15 .3-1 1.2-1.7 2.3-1.7.2 0 .4 0 .6.1.2.1.4.1.5.2l1.1.6c.8.4 1.5.8 2.2 1.3l1.6 1 1.6 1.2c.4.3.9.6 1.3 1l.5.5c.5.4.9.8 1.3 1.2l.4.5c.3.3.6.7.9 1l1.2 1.5 1.2 1.7c.3.4.5.8.7 1.2l.3.6c.7 1.2 1.2 2.5 1.7 3.8s.9 2.6 1.2 3.9c.3 1.3.6 2.6.7 3.9.4 3.3.6 6.6.7 9.9 0 1.7.1 3.4.2 5 .1 1.2.2 2.3.4 3.3.1.9.4 1.9.7 2.8.1.2.2.5.3.7l.2.4c.1.1.2.3.2.4.1.1.2.3.3.4l.1.1.2.2c.7-.2 1.4-.5 2-.9l.1-.1c.4-.2.8-.4 1.2-.7l.6-.4.5-.4c.4-.3.8-.6 1.2-1 .6-.5 1.1-1.1 1.6-1.7l1.2-1.5.3-.4c.3-.4.5-.8.8-1.2s.3-.6.5-.8.2-.5.4-.7c.2-.5.5-.9.7-1.4.7-1.5 1.4-3.1 2-4.7.6-1.6 1.1-3.3 1.6-5 .9-3.1 1.7-6.5 2.4-10.5 1.3-7.2 2.2-14.7 3-21.7.3-2.3.5-4.6.8-7 .5-4.9 1.1-10 1.7-15 .1-1.1 1-1.9 2.1-1.9h.1c.9.1 1.6.6 1.9 1.5.8 2.7 1.8 5.6 3.1 8.9 1.1 3 2.3 5.9 3.5 8.7 2.4 5.7 5.2 11.3 8.4 16.6l.5.8c.6 1 1.3 2.1 1.9 3s1.5 2.1 2.2 3.1l.5.7.2.3c.9 1.1 1.7 2.1 2.6 3.1.5.6.9 1 1.5 1.6l.2.2c.4.4.8.9 1.3 1.2 1.1 1 2.2 1.9 3.3 2.7.2.1.4.3.7.4s.7.4 1 .6l1.7.8 1.8.6 1.4.3v-3c0-1.2 0-2.3-.1-3.5l-.3-5.5-.4-5.5c-.3-3.3-.7-7.2-1.1-11-.1-1.2-.3-2.4-.5-3.6l-.2-1.9c-.2-1.8-.5-3.7-.7-5.5-1-6.7-2.1-14-3.5-22.1l-3.2-18h-.2c-.6 0-1.1.1-1.7.1h-1c-1.3 0-2.6-.1-3.9-.2-1.6-.2-3.2-.4-4.7-.8-3-.7-6-1.6-8.9-2.7-1.3-.5-2.7-1.1-4.2-1.8s-2.8-1.4-4-2c-5.4-2.8-10.5-5.9-15.3-8.8l-2.4-1.5c-2.9-1.8-5.9-3.7-9-5.4-.2.2-.5.3-.8.4l-.3 3.9c-.2 2.8-.3 5.4-.3 7.8v7.8l.1 3.9.2 3.9c0 .9.1 1.8.2 2.7l.2 1.7c.1 1.1.2 2.2.4 3.2l.5 3.8.7 3.7c.1.8.3 1.6.5 2.3.1.4.2.9.3 1.3l.5 1.8c.1.3.2.7.3 1l.2.7c.1.4.3.8.4 1.3.2.7.5 1.4.8 2.1l1.5 3.4c1 2.2.1 4.8-2.1 5.8-.6.3-1.2.4-1.8.4-1.7 0-3.1-.1-4.4-.2s-2.7-.2-4.2-.5c-2.8-.4-5.6-.9-8.3-1.5-1.6-.4-2.9-.7-4.1-1.1-1.4-.4-2.7-.8-4-1.3s-2.7-1-3.9-1.6-2.5-1.2-3.8-2c-.4-.2-.9-.5-1.4-.8l-.5-.3c-.7-.4-1.3-.8-1.9-1.2-1.1-.7-2.2-1.6-3.2-2.4l-.2-.2-.2-.2c-1.1-.9-2.1-1.9-3-2.9-.5-.5-1-1.1-1.4-1.7l-.4-.5c-.4-.4-.7-.8-1-1.3l-1.1-1.7-1.1-1.9c-.3-.5-.5-.9-.7-1.4-.1 1-.3 2.1-.4 3.1-.7 5.1-1.5 9.7-2.5 14-1 4.7-2.4 9.3-4 13.8-.3.9-.6 1.8-1 2.7l-.3.7c-.4 1.1-.9 2.2-1.4 3.2s-1 2.2-1.6 3.4-1 2.4-1.6 3.4v.1c-.6 1-1.2 2.1-1.9 3.1l-.5.8c-.5.8-1 1.6-1.6 2.3-1.4 2-3 3.9-4.7 5.7l-.9.9c-.6.6-1.1 1.2-1.7 1.7l-2.8 2.5-3 2.3c-.7.5-1.4 1-2.1 1.4-.4.2-.7.4-1 .7-.7.5-1.5.9-2.3 1.3l-1 .5-.6.3-1.2.6-1.7.7c-2.1.9-4.3 1.6-6.5 2.2l-.4.6z"/><path class="st0" d="M413.6 402c7 4.4 14.2 9 21.3 13.7 7.5 5 13.1 9 18.3 12.9 5.8 4.3 11.3 9 16.5 13.9.9-1.4 1.6-2.9 1.9-4.6.7-3.8.4-7.7-.7-11.4-1.1-3.9-2.6-7.7-4.7-11.2-2-3.6-4.5-6.9-7.2-9.9s-5.8-5.8-9.2-8c-3.3-2.3-7-4-10.9-5.2-1.2-.3-1.9-1.6-1.6-2.8.2-.8.9-1.5 1.8-1.6l1.7-.4c1.1-.2 2.2-.5 3.4-.6.5 0 1-.1 1.5-.2 1.2-.2 2.5-.3 3.8-.3l2.5-.1h3.5c.6 0 1.1 0 1.7.1l2.6.3c1.5.1 2.9.4 4.4.6l.8.1c1.2.2 2.4.5 3.6.8l1.5.4 1.3.3 1.3.5 2.4.9c.8.3 1.7.6 2.5 1l2.4 1c1.1.5 2.1 1 3.1 1.6.5.3 1 .6 1.6.8.8.4 1.6.9 2.3 1.4l3.3 2.1 3.2 2.4c1 .8 2.1 1.6 3 2.5l1 .9.7.6c.4.4.9.8 1.3 1.2l3.6 3.8c.4.5.8.9 1.1 1.4l.6.7 1.8 2.2c.4-.9.7-1.7 1-2.5.5-1.2.9-2.5 1.3-3.8l.3-1 .1-.6c.3-1.4.6-2.8.8-4.2v-.4c0-.3.1-.6.1-.9l.1-2.5v-.7l-.1-1.7c0-.2-.1-.4-.1-.6s-.3-1.7-.3-1.7c0-.2-.4-1.6-.4-1.6-.1-.2-.1-.5-.2-.7l-.4-1.1c-.2-.6-.5-1.2-.8-1.8l-.2-.4c-.8-1.4-1.6-2.8-2.6-4.1l-.5-.5c-.4-.4-.8-.9-1.1-1.3l-.6-.6-1.1-1.1c-1.3-1.1-2.6-2.2-4-3.2-1.5-1.1-3-2.1-4.4-2.9-1.5-1-3.1-1.8-4.6-2.7s-3.1-1.7-4.6-2.5-3.3-1.7-4.9-2.6c-3.1-1.7-6.1-3.6-8.9-5.8l-1.3-.2-2-.2-3.9-.4-7.9-.7c-5.2-.4-10.5-.8-15.7-1.1-9.4-.5-19.7-1-31.5-1.3l-5.3-.1c.1.4.2.7.3 1.1l.3 1.7.1 1.8c.1 3.8-.8 7.5-2.8 10.7-1.3 2.1-2.9 4-4.7 5.6-3.2 2.8-7 4.8-11.1 5.8 4 2.8 8.3 5.7 13.1 8.9s10.1 6.7 15.5 10.1m98.9 96l-.3.9c-.2.6-.5 1.2-.7 1.9l-1.3 2.6c-.4.6-.7 1.2-1.1 1.8l-.5.7c-.4.6-.7 1.1-1.2 1.6-.2.2-.4.5-.6.7-.6.8-1.2 1.5-1.9 2.2l-.6.6c-.5.5-.9 1-1.5 1.4l-1.2 1.1.7 2.2.7 1.7c.2.4.4.9.6 1.3l.5.9c.2.3.4.7.6 1l1.1 1.7 1.1 1.4c.2.3.5.6.8.9l.5.5 1.2 1.2c.8.8 1.7 1.5 2.6 2.2l.3.2.3.2c.9.6 1.8 1.2 2.8 1.8.5.3 1 .6 1.6.9l.5.2 1.2.6c1.2.6 2.5 1.1 3.5 1.5l3.6 1.2c1.2.4 2.4.7 3.7.9 1.1.2 2.3.5 3.7.7 2.5.4 5 .7 7.6.8l1.5.1c0-.2-.1-.4-.1-.6-.1-.5-.2-.9-.3-1.3l-.2-.7c-.1-.5-.2-.9-.3-1.4l-.3-2.1c-.1-.5-.2-.9-.2-1.4-.2-.9-.3-1.8-.4-2.8l-.5-4-.3-4.1c-.1-1.2-.1-2.4-.1-3.5v-4.6l.1-4 .2-4c0-.9.1-1.7.2-2.6 0-.5.1-.9.1-1.4l.3-3.9v-.1c.2-2.4.5-5 .9-8 .2-1.3.4-2.7.6-4-.3-.3-.6-.6-.8-.9l-8.2-11.7c-1.2-1.6-2.3-3.2-3.5-4.9l-.6-.9c-1.5-2.1-2.9-3.8-4.3-5.5-.5-.6-.9-1.1-1.4-1.7-.3-.3-.5-.6-.8-1-.5-.5-1-1-1.4-1.5l-.9-.9-.4-.4c-.7-.6-1.3-1.2-2-1.7l-.4-.3c-.7-.5-1.4-1-2.2-1.4l-.1-.1c-.6-.4-1.3-.7-1.9-.9l-.8-.3-.9-.2c-.7-.2-1.3-.3-2-.4l-.7-.1c-.3 0-.6-.1-.9-.1H506c-.5 0-1.1 0-1.6.1 0 .9.1 1.7.3 2.6.4 1.6.9 3.1 1.5 4.7s1.3 3.3 1.9 4.9 1.2 3.2 1.9 4.8c1.3 3.3 2.4 6.8 3.2 10.2.9 3.6 1.4 7.3 1.5 11 0 1.9-.1 3.8-.4 5.7-.7 2.1-1.2 4-1.8 5.8"/><path class="st0" d="M395.2 368.3c1-1.4 1.7-2.9 2.1-4.5.2-.8.3-1.7.4-2.6v-1.4l-.1-1.3v-.4c-.1-.5-.1-1.1-.2-1.6H391c-2.1 0-4.2 0-6.2.1-1.5.1-2.6.1-3.7.2-1 .1-2 .2-3 .5l-.2.1-1.2.5c-.2.1-.4.2-.5.2l-.8.4c-.2.1-.5.3-.7.5s-.4.3-.6.4l-.6.5-.5.4c-1.4 1.2-2.5 2.7-3.1 4.4-.5 1.5-.5 3.2.1 4.7.8 1.8 1.9 3.3 3.4 4.6.5.4 1 .6 1.6.9.7.3 1.5.5 2.2.7.8.2 1.6.2 2.4.3h1.7l.8-.1c.9-.1 1.7-.3 2.5-.5.9-.2 1.7-.5 2.5-.8 1.6-.6 3.2-1.5 4.6-2.5 1.3-1 2.5-2.2 3.5-3.7m-77.1-4.9c-4.3 1.5-8.6 3.2-12.7 5.2-2.5 1.2-4.8 2.8-6.8 4.7-1.8 1.7-3 3.9-3.6 6.3-.6 2.6-.6 5.3-.2 7.9 0 .3.1.6.2 1 .2 1.1.4 2.1.7 3.2l.6 2.2.7 2.1c1.4 4 3.2 8 5.1 11.8l.6-.5c.3-.3.7-.5 1-.8.7-.6 1.5-1.2 2.4-1.7l1-.7c1.1-.7 2.3-1.4 3.5-2l1.8-1 2.4-1c1.1-.5 2.2-.9 3.4-1.3 2.5-.9 5.1-1.5 7.7-2.1l3.9-.7 3.9-.4c2-.1 4.2-.3 6.5-.3h3.3l2.8.2c1 .1 2 .1 3.1.2 2.5.2 4.9.6 7.6 1s5.1 1 7.6 1.6c1 .2 1.9.5 2.9.7l.8.2c1.3.3 2.5.7 3.7 1.1 2.1.6 4.3 1.4 7.2 2.4 2.2.8 4.5 1.8 7.1 2.9l3.5 1.6 3.5 1.7c1.9 1 4.3 2.4 6.7 3.9 2.2 1.4 4.3 3 6.2 4.7 1 .9 2 1.9 2.9 3 1 1.1 1.7 2.5 2.2 3.9.4 1-.2 2.2-1.2 2.5-.2.1-.4.1-.6.1l-2.2.2c-1.3.1-2.6.2-4 .3l-2 .2c-1.4.1-2.8.3-4.1.5l-3.1.5-3 .6c-1.4.2-2.8.6-4.1.9l-1.9.5c-.5.2-1.1.3-1.8.5-1.4.4-2.7.8-4 1.2-2 .6-4 1.4-5.8 2.1l-.5.2c-1.6.7-3.4 1.4-4.9 2.3-1.1.5-1.9 1-2.6 1.4l-.7.4c-.6.4-1.3.7-1.8 1.1-1.7 1.1-3.3 2.2-4.8 3.5-1.5 1.2-2.9 2.6-4.2 4l-1 1.1c-.2.2-.3.4-.5.6l-.3.4-1.5 2.1-.7.4c-.3.5-.6 1-.9 1.6l-.4.8c-.1.3-.2.5-.3.8-.2.5-.4 1-.5 1.6-.5 1.6-.7 3.3-.6 5 .1 1.6.4 3.1 1.1 4.5.2.5.5 1 .8 1.5.1.2.2.4.4.5l.5.6c.3.4.6.8 1 1.2l.2.2c1.3-2.4 2.8-4.8 4.5-7 2.8-3.7 6.1-7.1 9.8-10 7.3-5.6 15.8-9.5 24.8-11.4 6.5-1.4 13.1-2.1 19.7-2.1 2.3 0 4.6.1 7 .2 4.4.3 8.8.9 13.2 1.7 2.5.5 4.6 1 6.5 1.5l.4.1c.9.3 1.9.5 2.8.8l3 1c3.9 1.2 8 1.9 12 2.2.9.1 1.7.1 2.5.1 2.6.1 5.3-.4 7.7-1.4-5-4.4-10.2-8.6-15.6-12.5-5.1-3.7-10.9-7.6-18.2-12.3-7.1-4.5-14.4-8.9-21.4-13.2-5.5-3.3-10.6-6.5-15.8-9.6-10-6.2-18-11.7-24.5-16.6l-1.5-.9c-.1-.1-.2-.1-.3-.2-.5-.5-1-.9-1.4-1.4-1.3-1.1-2.6-2.1-3.8-3.2-4-3.4-7.8-7.1-11.3-11.1-2.7-3.2-5.2-6.6-7.3-10.2-.7-1.2-1.3-2.4-1.8-3.4v-.1c-.3.3-.6.5-.9.7-5.6 4.5-11.9 7.1-18.3 9.6-1.8.6-3.4 1.2-5 1.8m200.4 5.8c-2.3-1.8-4.5-3.7-6.7-5.6l-.9-.8-.6.1c-1.3.2-2.5.3-3.6.4s-2.1.2-3.6.2c-.9 0-1.7.1-2.6.1h-1c-2.6 0-4.9-.1-7.2-.2-1.2-.1-2.4-.1-3.6-.3s-2.4-.2-3.5-.3-2.6-.3-4-.5l.4.2c2.2 1.2 4.5 2.4 6.7 3.5l2.8 1.4c1.5.8 3.2 1.7 4.8 2.6 1.3.8 3.1 1.8 4.7 2.9 1.6 1 3.1 2.2 4.5 3.4.5.4.9.8 1.4 1.2l.7.6c.5.5 1 1 1.5 1.6l.5.5c1.3 1.5 2.5 3.1 3.5 4.9l.2.4c.4.8.8 1.5 1.2 2.4l.5 1.3c.2.4.2.7.3 1l.3.9c.1.3.2.6.3 1l.4 2c.1.3.2.7.2 1l.2 1.9c0 .3.1.7.1 1l.1 2.9-.1 1.5c-.1 1.7-.3 3.5-.5 5.2l-.1.6-.2.9c-.3 1.6-.7 3.2-1.1 4.8s-.8 3-1.3 4.4l-.3 1c-.4 1.2-.8 2.4-1.3 3.5-.2.6-.5 1.2-.7 1.8-.6 1.7-2.2 2.8-4 2.8-.5 0-1-.1-1.5-.3-.8-.3-1.5-.8-1.9-1.5l-.4-.5-3.2-5.2-2.6-3.6-.9-1.2-3.1-3.7c-.3-.4-.6-.7-1-1s-.4-.4-.6-.6l-1-1c-.7-.8-1.5-1.5-2.4-2.2l-2.8-2.4-2.8-2.1c-.6-.5-1.2-.9-1.9-1.3l-1.5-.9c-.8-.5-1.7-1-2.6-1.5l-2.2-1.1c-.7-.4-1.4-.7-2.1-1l-3.4-1.4-1.1-.3-1.5-.5c-1-.4-2-.7-3.1-.9l-.9-.2c-1.3-.3-2.5-.6-3.8-.8l-2.5-.4-1.5-.1-1.8-.1c-.5 0-1-.1-1.5-.1h-2.8c1.2.6 2.3 1.3 3.4 2 3.8 2.4 7.2 5.3 10.3 8.6 3.1 3.3 5.8 6.8 8.1 10.7 2.3 3.9 4.2 8 5.5 12.3 1.4 4.5 1.8 9.3 1 14-.4 2.5-1.4 5-2.9 7.1-.1.2-.3.4-.5.6 3.4 3.5 6.6 7.1 9.6 11 3.8 4.9 7.1 10.2 9.8 15.7 2.3 4.7 4.1 9.7 5.4 14.8 1 3.9 1.6 8 1.9 12l.2 2.3v.4c.1-.2.3-.3.4-.5.3-.3.6-.6.9-1l1.4-2 1.1-2c.2-.4.4-.8.5-1.2l.4-.9c.5-1.4 1-2.8 1.3-4.3s.5-3.1.6-4.6c.1-3.2-.2-6.4-.8-9.6-.6-3.3-1.5-6.5-2.5-9.7-.5-1.6-1-3.1-1.5-4.7s-1.1-3.4-1.7-5.2c-.6-1.7-1-3.5-1.4-5.3-.5-2.1-.4-4.3.2-6.4.3-.8.9-1.3 1.7-1.4l1.2-.2c.8-.2 1.7-.3 2.5-.4l1.9-.1h2c1 0 2 .1 3 .4l1 .2h.1l.9.3c1 .3 2 .7 3 1.1 1.1.5 2.1 1 3 1.7l.4.2c1 .6 1.8 1.3 2.6 1.9l.5.4 1 .9c.6.5 1.3 1.1 1.9 1.7l.9.9c.6.6 1.2 1.1 1.7 1.7 1.6 1.7 3.1 3.4 4.9 5.4l.7.8c1.3 1.6 2.7 3.1 4 4.7l4.8 5.8c.3-.5.5-1.1.7-1.6l1.7-4c.2-.5.4-1 .5-1.5l1.4-4.5c.1-.3.2-.7.2-1.2l.8-3.8.2-3.1v-1.8c0-.6 0-1.1-.1-1.6 0-.8-.1-1.7-.2-2.5l-.4-2.5c-.1-.5-.2-.9-.3-1.4l-.7-2.5c-.1-.2-.1-.4-.2-.6l-.5-1.3c-.4-1.1-1-2.2-1.6-3.3l-.4-.7c-.2-.4-.4-.8-.6-1.1l-1.2-1.8c-.5-.8-1.1-1.6-1.7-2.3l-.9-1.2c-.8-1-1.8-2.1-2.8-3.3l-6-6.6c-.4-.4-.6-1-.6-1.6 0-.9.6-1.6 1.4-1.9 1.4-.7 2.9-1.2 4.4-1.5 1.5-.4 2.9-.6 4.3-.8 1.9-.3 3.7-.5 5.5-.7l3.1-.4c5.5-.6 10.9-1.7 16.2-3.3 1.5-.5 2.7-.9 3.8-1.4.6-.3 1.2-.5 1.8-.8l1.8-.9c1.2-.6 2.3-1.3 3.4-2l1.6-1.1 1.5-1.2c1-.8 1.9-1.7 2.8-2.6.8-.8 1.5-1.6 2.2-2.4l.5-.5.4-.5c-1.3-.1-2.6-.3-3.9-.4l-5.6-.7-5.7-.9c-1.9-.3-3.8-.6-5.6-1l-.6-.1c-1.6-.3-3.3-.6-5-1.1l-1.8-.4c-1.2-.3-2.5-.6-3.8-1-.6-.2-1.2-.4-1.8-.5-1.2-.4-2.5-.7-3.7-1.2l-1.3-.5c-1.4-.5-2.8-1-4.1-1.6l-2.6-1.1-1.8-.9-.9-.4c-1.5-.7-3-1.5-4.4-2.4l-.7-.4c-1.3-.7-2.5-1.5-3.7-2.3l-1.2-.8c-.6-.4-1.1-.8-1.6-1.1-1-.7-2.1-1.5-3.1-2.3-.6-1.2-2.1-2.3-3.5-3.5m310.7-9.7l.3-1.8.3-1.2-5.3.1c-11.8.4-22.1.8-31.5 1.3-5.2.3-10.5.7-15.7 1.1l-7.9.7-3.9.4-1.9.2-1.3.2c-2.8 2.1-5.8 4.1-8.8 5.8-1.6.9-3.2 1.8-4.9 2.6s-3.1 1.6-4.6 2.5-3 1.7-4.6 2.7c-1.3.8-2.8 1.8-4.3 2.9-1.4 1-2.7 2-4 3.2-.4.4-.8.7-1.1 1.1l-.7.7c-.3.4-.7.8-1.1 1.3l-.5.6c-1 1.3-1.9 2.6-2.6 4l-.2.4c-.3.6-.5 1.1-.8 1.7l-.5 1.2-.4 1.5c-.1.2-.1.5-.2.7-.1.4-.2 1.5-.2 1.6s-.1.5-.1.7l-.1 1.7v.7l.1 2.5.1.8v.3c.2 1.4.4 2.8.8 4.2l.2.7.3 1c.4 1.3.8 2.5 1.2 3.7.3.9.7 1.8 1.1 2.6l2.3-2.9c.4-.5.7-.9 1.1-1.4l3.6-3.8c.4-.4.9-.8 1.3-1.2l.7-.6c.4-.3.7-.6 1.1-1 .9-.9 1.9-1.8 3-2.5l3-2.3 1.2-.8 2.2-1.4c.7-.5 1.5-1 2.3-1.4.5-.3 1-.5 1.5-.8 1-.6 2-1.1 3.1-1.6l2.4-1c.8-.4 1.7-.7 2.5-1l3.6-1.3 1.3-.4 1.5-.4c1.2-.4 2.4-.6 3.6-.8l.8-.1c1.5-.3 2.9-.5 4.4-.7l2.5-.3c.6 0 1.2-.1 1.7-.1h3.5l2.6.1c1.2 0 2.5.2 3.7.3l1.4.2c1.2.1 2.3.4 3.4.6l1.7.4c1.2.2 2 1.4 1.8 2.6-.2.9-.8 1.5-1.6 1.8h-.1c-3.9 1.2-7.5 2.9-10.8 5.2-3.4 2.3-6.5 5-9.2 8.1-2.8 3-5.2 6.4-7.2 9.9s-3.6 7.3-4.7 11.2c-1.1 3.7-1.3 7.6-.7 11.4.3 1.6 1 3.2 1.9 4.6 5.3-4.9 10.8-9.5 16.5-13.9 5.1-3.9 10.8-7.9 18.3-12.9 7.1-4.8 14.3-9.3 21.3-13.8 5.4-3.4 10.5-6.6 15.5-9.9s9.2-6.1 13.2-8.9c-4.1-1-7.9-3-11.1-5.7-1.9-1.6-3.5-3.5-4.7-5.6-1.3-2.1-2.1-4.5-2.5-7-.2-1.2-.3-2.4-.2-3.7l.1-1.6zm124.4 75.4l-4.4 1.2-3 .6-1.5.3c-1 .2-2.1.4-3.1.5l-1.5.2c-1.6.2-3.3.4-4.6.5l-2.2.2-3 .1h-1.9c-.7 0-1.4 0-2-.1-2.7-.1-5.6-.3-9-.7l-1.6-.2c-1-.1-2-.2-2.9-.4l-1.6-.3c-1-.2-1.9-.3-2.9-.5l-4.4-1-4.3-1.1-4.3-1.2-4.3-1.3c-2.8-.9-5.6-1.8-8.4-2.8l-7-2.5c-3.2-1.1-6.3-2.3-9.5-3.4-2.6-.9-5.4-1.8-8.2-2.6-2.6-.8-5.3-1.4-8.3-2-1-.2-2.1-.4-3.1-.5l-1.1-.1-1.4-.1c-.8-.1-1.7-.2-2.5-.2h-2.3l-3.1.2-2.2.3c-1.5 1-3 2-4.4 3.1-.8.7-1.6 1.4-2.3 2.2.9 0 1.9 0 2.8.1l2 .1c1.4.1 2.9.2 4.4.3l3.1.3 3.2.5c1.5.2 2.9.5 4.4.7l1.9.4 1.9.4c1.5.3 3 .7 4.4 1.1 2 .5 4 1.2 6.2 1.9l.5.2c1.8.7 3.7 1.4 5.6 2.2 1.1.5 2.1 1 3 1.4l.5.3 1.3.7 1.7.7 5.3 2.1c3.2 1.3 6.4 2.6 9.6 3.8 2.9 1.1 5.3 2 7.4 2.8 2.5.9 5 1.8 7.5 2.5 5 1.6 10 2.8 15.1 3.7 2.5.4 5.1.7 7.6.9 1 0 2 .1 3 .1 1.5 0 3-.1 4.5-.2l1.9-.2c.4 0 .7-.1 1.1-.2l.7-.1 1.8-.4 1.7-.5c1-.3 2.1-.7 3-1.1l.3-.1c.7-.3 1.5-.6 2.1-1.1.3-.2.7-.4 1.1-.6.5-.3.9-.6 1.4-.9l1.5-1.1c.6-.4 1.1-.9 1.7-1.4.3-.3.7-.6 1.1-1 .5-.5 1-1 1.5-1.6.3-.4.6-.7 1-1.1.5-.6.9-1.2 1.3-1.8l.8-1.1.5-.7.4-.7 1-1.6.1-.1c-1.8.7-3.7 1.3-5.6 1.9l-1 .1z"/><path class="st0" d="M870.1 376.1c-1.2 1-2.5 2.1-3.8 3.2-.5.5-.9.9-1.4 1.3l-.3.3-1.5.9c-6.5 5-14.5 10.4-24.5 16.6-5.1 3.2-10.3 6.3-15.8 9.6-7 4.3-14.3 8.7-21.4 13.2-7.4 4.7-13.1 8.6-18.2 12.3-5.4 3.9-10.6 8.1-15.6 12.5 2.4 1 5.1 1.4 7.7 1.4.8 0 1.6 0 2.5-.1 4-.3 8-1.1 11.9-2.3l3-1c.9-.3 1.8-.6 2.8-.8l.4-.1c2-.5 4-1 6.5-1.5 4.4-.8 8.8-1.4 13.2-1.7 2.3-.1 4.7-.2 7-.2 6.6 0 13.2.7 19.7 2.1 9 1.9 17.5 5.8 24.8 11.4 3.7 2.9 7 6.2 9.8 10 1.7 2.2 3.2 4.6 4.5 7l.2-.2c.4-.4.7-.7 1-1.2l.5-.6.3-.5c.3-.4.6-.9.8-1.4.7-1.4 1.1-3 1.2-4.6.1-1.7-.1-3.3-.6-4.9-.1-.6-.3-1.1-.6-1.7l-.3-.8-.4-.8c-.3-.5-.5-1.1-.9-1.6l-.1-.2c-.4-.7-.9-1.4-1.4-2.1l-.4-.5c-.2-.2-.3-.5-.5-.7l-1-1.1c-1.3-1.4-2.7-2.8-4.2-4s-3.1-2.4-4.8-3.4c-.6-.4-1.2-.8-1.9-1.1l-.7-.4c-.8-.5-1.6-.9-2.6-1.4-1.6-.9-3.3-1.6-5-2.3l-.6-.2c-1.7-.7-3.7-1.4-5.7-2.1-1.4-.5-2.8-.9-4.1-1.2-.6-.2-1.2-.3-1.8-.5l-1.9-.4c-1.3-.3-2.7-.6-4.1-.9l-3.1-.6-3-.5c-1.4-.2-2.8-.4-4.2-.5l-2-.2-3.9-.3-2.2-.2c-.5 0-1-.2-1.4-.6s-.6-.9-.5-1.4c0-.2 0-.4.1-.6.5-1.4 1.3-2.7 2.2-3.9.8-1 1.8-2 2.7-2.9 2-1.7 4.2-3.3 6.4-4.8 2.3-1.5 4.8-2.9 6.6-3.9l3.4-1.7 3.5-1.6c2.6-1.1 4.9-2.1 7.1-2.9 2.9-1.1 5.2-1.8 7.3-2.4 1.2-.4 2.4-.7 3.7-1.1l.8-.2c1-.3 2-.5 2.9-.7 2.4-.6 4.8-1 7.5-1.5s5.2-.8 7.7-1c1-.1 2-.2 3-.2l2.7-.1h3.3c2.3 0 4.5.1 6.5.3l3.9.4 3.9.7c2.6.5 5.2 1.2 7.8 2.1 1.1.4 2.2.8 3.3 1.3l2.3 1 1.8 1c1.2.6 2.4 1.3 3.6 2.1l1 .7c.8.5 1.6 1.1 2.4 1.7l1 .8.6.5c2-3.8 3.7-7.8 5.2-11.8l.8-2.2.5-2.1c.3-1.1.5-2.1.7-3.2.1-.4.1-.7.2-1.1.4-2.6.3-5.3-.2-7.9-.6-2.4-1.9-4.5-3.6-6.2-2-1.9-4.3-3.5-6.8-4.7-4.1-2-8.4-3.7-12.7-5.2l-4.8-1.8c-6.4-2.5-12.7-5.1-18.3-9.6-.3-.2-.6-.4-.9-.7l-.1.1c-.5 1-1.1 2.2-1.8 3.4-2.1 3.6-4.6 7-7.3 10.1-3.5 3.7-7.3 7.4-11.3 10.8m-32.7-7.8c1 1.4 2.2 2.7 3.6 3.7s3 1.9 4.6 2.5c.9.3 1.7.6 2.5.8.8.2 1.7.4 2.6.5l.8.1h1.7c.8 0 1.6-.1 2.3-.3.7-.1 1.5-.3 2.1-.6.6-.2 1.1-.5 1.7-.9 1.4-1.3 2.6-2.9 3.4-4.6.6-1.5.7-3.2.2-4.7-.6-1.7-1.7-3.3-3.2-4.4l-.5-.4-.7-.5c-.1-.1-.3-.2-.5-.3s-.5-.3-.7-.5l-.8-.4c-.2-.1-.3-.1-.5-.2l-1.2-.5-.2-.1c-1-.3-2-.4-3.1-.5-1-.1-2.2-.2-3.7-.2-2-.1-4.2-.1-6.2-.1h-6.4c-.1.5-.2 1-.2 1.6l-.1.5-.1 1.4v1.3c.1.8.2 1.7.4 2.5.5 1.4 1.2 3 2.2 4.3m115.7 97.5c2.4-1.4 4.9-3.1 7.9-5.2 2.6-1.9 5.1-3.8 7.5-5.8 4.9-4 9.6-8.3 13.9-12.9 4.3-4.6 8.3-9.5 11.8-14.7s6.5-10.6 8.9-16.4c2.4-5.7 4-11.7 4.9-17.8.4-3 .7-6.1.7-9.1 0-3.1-.2-6.1-.5-9.1-.4-3-.9-6-1.7-9s-1.7-5.9-2.8-8.8c-1.2-3.2-2.5-6-3.7-8.5l-.4-.7c-.5.9-.9 1.7-1.4 2.6l-.6 1.2-.2.3c-1 1.7-2.1 3.5-3.2 5.3-.8 1.4-1.8 2.8-2.7 4.2l-.8 1.3c-4.9 7.1-10.1 13.9-15.8 20.4-5.5 6.4-11.4 12.6-17.6 18.6-3 3-6.1 5.9-9.3 8.8-2.2 2-4.6 4.1-6.9 6.1.2 1.3.5 2.5.7 3.8.5 3.5.9 7.1 1.1 10.7.2 3.6.2 7.1 0 10.7-.9 14.3-4.9 28.2-11.8 40.8-6.9 12.3-15.7 23.4-26.3 32.9-3 2.8-6.2 5.4-9.5 8 3.4-1.3 6.6-2.5 9.7-3.6s6.4-2.2 9.5-3.1c3.4-1.1 6.5-2 9.7-2.7 1.7-.4 3.3-.8 4.9-1.2s3.3-.7 5-1c2-.3 3.7-.5 5.2-.6.6-.1 1.2-.1 1.8-.1h3.7c1.9 0 3.6 1.4 4 3.2v.2c.9 4.1 1.1 8.3.5 12.4-.6 4.1-2.1 8-4.2 11.6-2 3.4-4.5 6.5-7.4 9.3-2.8 2.6-5.8 5-9 7.2-6.2 4.1-12.9 7.5-19.8 10.2-1.8.7-3.6 1.4-5.4 2 5.7.3 10.8.7 15.6 1.2 6.2.7 11.3 1.4 16 2.3 2.7.5 5.4 1.2 8.1 2 1.4.4 2.8.9 4.1 1.5 1.4.6 2.8 1.3 4.2 2.2s2.1 2.4 1.9 4v.2c-.5 3.7-1.9 7.2-4 10.3-2 2.9-4.4 5.5-7.2 7.6-4.6 3.5-10.1 6.4-17.3 9-5.9 2.1-12 3.7-18.2 4.9l-2.8.5c5.2 1 10.2 2 15.2 3.2 6 1.3 10.8 2.6 15.3 3.8 3 .9 5.4 1.6 7.7 2.4 1.6.6 2.8 1 3.9 1.5 1.4.6 2.7 1.3 4 2.1 1.2.7 2 2.1 2 3.5v.6c-.4 4-1.2 8-2.3 11.8-.3 1-.6 2-1 2.9s-.7 1.7-1.2 2.9-1 2-1.5 2.8-1.1 1.8-1.7 2.7c-.6.9-1.3 1.7-2 2.5s-1.5 1.5-2.3 2.2c-1.6 1.4-3.4 2.5-5.3 3.5-2.4 1.2-4.9 2-7.5 2.6v54.3c.6.5 1.3 1 2 1.5 1.7 1.2 3.4 2.2 5.2 3.2 1 .5 1.9.9 2.8 1.2 1.1.5 2 .8 2.8 1 1 .3 2.1.6 2.9.8 1 .2 2 .4 2.9.5h.3c.9.1 1.7.2 2.6.2h2.9c1-.1 1.9-.2 2.8-.3.7-.1 1.3-.2 1.9-.4l.9-.2 1-.3 1.8-.6 1.4-.5 1.3-.6c.3-.1.5-.2.8-.3-1.7-2.2-3.2-4.5-4.6-6.8-2.4-3.8-4.4-7.9-6.2-12s-3.3-8.3-4.5-12.6c-.7-2.2-1.2-4.4-1.7-6.5-.2-1.1-.5-2.2-.7-3.3-.2-.9-.4-2.1-.5-3.4-.2-1.3.6-2.5 1.9-2.7h.4c.6 0 1.2.2 1.6.7.9.9 2 1.8 3.2 2.8s2.2 1.8 3.3 2.6c2.2 1.7 4.6 3.3 7 4.7 4.7 2.9 9.8 5 15.1 6.3 2.7.7 5.5 1 8.3 1 2.4 0 4.8-.3 7.2-.9 4.1-1 7.9-2.9 11.2-5.5-.4-1.3-1-2.5-1.6-3.8-1.1-2.2-2.4-4.2-3.9-6.2-3.1-4.1-6.4-7.9-10.1-11.5-3.5-3.5-7.3-6.8-11.7-10.4s-8.5-6.7-12.6-9.4c-1.1-.7-1.4-2.1-.8-3.3.4-.7 1.2-1.2 2.1-1.2.3 0 .5 0 .8.1 1.5.5 3.1 1 5 1.5 1.6.5 3.3.9 5 1.3 3.4.8 6.9 1.4 10.2 1.9 3.9.5 7.9.8 11.8.8 2.9 0 5.8-.2 8.6-.5 6.5-.7 12.8-2.8 18.4-6.3 4.5-3 8.3-7 10.9-11.7-1.2-1.3-2.6-2.4-4.1-3.4-2.5-1.7-5-3.1-7.7-4.4-5.6-2.7-11.4-4.9-17.3-6.8-5.6-1.8-11.5-3.5-18.1-5.2s-12.5-2.9-18.3-4h-.1c-1.3-.2-2.2-1.4-2-2.8.2-1.2 1.2-2.1 2.4-2h.4c1.8.3 3.9.5 6.2.6 2 .1 4.1.2 6.3.3h2.5c3.4 0 6.8-.1 10-.4 8.3-.6 16.4-2.4 24.2-5.4 3.7-1.5 7.3-3.4 10.6-5.7 3.2-2.3 6.1-5 8.5-8.1s4.3-6.5 5.6-10.2c.7-1.8 1.2-3.7 1.7-5.6l.2-.7h-5l-5.2-.1c-1.1 0-2.2-.1-3.3-.1l-1.8-.1c-1.7-.1-3.5-.2-5.2-.2l-5.2-.3c-3.5-.2-6.9-.4-10.3-.7-13.2-1-26.6-2.3-41-3.9-1.3-.1-2.3-1.3-2.2-2.7.1-1.2 1-2.1 2.2-2.2 2.1-.2 4.3-.4 7.1-.8 2.4-.3 4.8-.7 7-1.1 4.7-.8 9.4-1.8 13.8-3 9.1-2.2 17.9-5.5 26.2-9.7 4.1-2.1 7.9-4.6 11.5-7.4 3.5-2.8 6.6-6 9.1-9.6 2.5-3.5 4.3-7.5 5.3-11.7.5-2.1.8-4.2.9-6.4 0-.4 0-.8.1-1.3l-.3.1-5.8 1.2-5.7 1c-1.3.2-2.7.5-4 .7l-1.8.3c-2.9.5-6 .9-8.9 1.3l-3 .4c-3.7.5-7.4 1-11.1 1.4-14.6 1.8-29.6 3.2-45.9 4.5h-.2c-1.2 0-2.3-.9-2.4-2.2-.1-1.1.5-2.1 1.5-2.5 4.1-1.8 8.4-3.8 13.3-6.4 4.4-2.3 8.7-4.8 12.8-7.3 8.4-5 16.2-10.8 23.5-17.3 3.5-3.2 6.8-6.7 9.8-10.4 2.9-3.6 5.4-7.6 7.4-11.8 1.9-4.1 3.2-8.5 3.6-13 .3-2.7.2-5.4-.2-8-11.7 5.3-23.6 10.4-35.2 15.4l-1.3.6-41.7 17.8c-.3.1-.7.2-1 .2-1.4 0-2.5-1.1-2.5-2.5-.6-.6-.2-1.4.6-1.8m-189.2-14.5c-.4-.2-.8-.4-1.2-.7-3.4 3.3-6.6 6.8-9.6 10.5-3.7 4.5-6.9 9.4-9.5 14.6-2.2 4.4-4 9-5.3 13.7-1 3.7-1.7 7.4-2 11.1l-.2 2.3-.1 1.9c0 .9-.1 1.6-.1 2.3l.9.7c.4.3.8.5 1.2.8l.8.5c.8.6 1.7 1.1 2.6 1.6 0-.3.5-3.6.5-3.6.2-1.4.5-2.9.8-4.3 0 0 .4-1.6.4-1.9.1-.6.3-1.1.4-1.7l1.6-5 1-2.5 1-2.4c.2-.6.5-1.1.8-1.6.1-.3 1.6-3.1 1.6-3.1l.9-1.5 1.8-3c.3-.5.7-1 1-1.5l2-2.9c.3-.5.7-.9 1.1-1.4.2-.2 2.2-2.7 2.2-2.7l1.1-1.3 2.3-2.6 1.8-1.9c1.1-1.1 2.2-2.4 3.6-3.7 2.5-2.5 5-4.8 7.4-7l1.2-1h-.2c-4 .1-8.1-.8-11.8-2.7"/><path class="st0" d="M835.8 331.9c-3.7 0-7.4 0-11.1.1l-4.1.1c-5.5.1-11.3.2-16.9.2h-2.3c-5.5 0-11.2-.1-17.3-.4-7.5-.3-13.8-.8-19.7-1.5-2.2-.2-4.4-.5-6.5-.8l-3.3-.4-3.5-.6c-2.1-.3-4.2-.7-6.3-1.1l-1.4-.3c-2.7-.5-5.5-1.1-8.2-1.8l-4.8-1.2-4.8-1.4c-6.3-1.9-12.6-4-18.7-6.5-2-.8-4.1-1.7-6-2.6l-3.1-1.4c-1.1-.5-2.2-1.1-3.2-1.6 0 .2 0 .4-.1.6l-.1 1c-.1.8-.2 1.6-.2 2.4l-.2 3.3c-.1.8-.1 1.5-.1 2.2v2.8l.1 1.6c.1 2.2.3 4.4.7 6.6.4 2.1.9 4.3 1.6 6.3l.3.9c.2.7.5 1.4.8 2l.7 1.6c.1.3.3.5.5.8s.2.4.3.5c1.1 1.8 2.3 3.6 3.8 5.1s3.1 2.8 4.9 4c1.8 1.2 3.8 2.2 5.8 3 2.1.8 4.2 1.4 6.3 1.9l.3.1c1 .2 2 .4 3 .5 1.2.2 2.3.3 3.4.4s2.1.2 3.4.3c1.1.1 2.2.1 3.4.1h1.7c1.6 0 3.3 0 5.2-.2 1.2 0 2.3-.1 3.5-.2s2.3-.2 3.5-.3c4.3-.4 8.8-1 13.8-1.9h.3l1.7-.3 2-.4 3.9-.7 7.9-1.2c5.5-.8 11-1.5 15.8-2.1 12.4-1.5 22.5-2.6 31.7-3.2 5.3-.4 10.7-.6 16-.8h3.6c1.5 0 3 0 4.5.1 1.1 0 2.7.1 4.2.2h.3c1.5.1 3 .4 4.4.8l.6.2.2.1 1.4.6c.3.1.7.3 1.1.5l1.1.6 1.5.9.6.4c.5.4 1 .7 1.4 1.1l.5.4c2.7 2.2 4.7 5.2 5.8 8.4.1.4.2.7.3 1.1 1.2-1.3 2.3-2.5 3.2-3.7 2.3-2.8 4.4-5.8 6.2-9 .6-1 1-2 1.4-2.8l.4-.8c.4-1 .8-1.8 1-2.6-1.8-2-3.9-3.8-6.2-5.2-4.2-2.6-9.7-4.5-16.6-5.6-6.2-1-12.4-1.5-18.7-1.5-2.2.3-4.4.2-6.6.3M556.2 452l-.1 3.6-.2 1.2-.4 3.1c-.1.5-.1 1.1-.2 1.6l-1.2 5c-.1.7-.3 1.3-.6 2l-1.5 4.4c-.4 1.1-.8 2.2-1.3 3.2-.2.4-.3.7-.5 1.1l-1 2.1c3.1 1.5 6.1 3.1 9.1 4.6l2.6 1.4c4.6 2.5 10 5.2 15.4 7.6 1.3.5 2.6 1.1 3.9 1.6s2.7 1 3.9 1.4c2.6.8 5.2 1.4 7.9 1.8 1.3.2 2.6.3 3.9.4h1c.9 0 1.9 0 2.8-.1.4 0 .8-.1 1.1-.1h.1c-.8-1.1-1.5-2.1-2.3-3.2-.4-.6-.8-1.2-1.3-1.8-.8-1.1-1.6-2.3-2.3-3.5l-1.2-1.8c-.8-1.2-1.6-2.5-2.3-3.7l-1.1-1.8c-1-1.5-1.9-3.1-2.8-4.6l-.5-.9c-1-1.6-1.9-3.4-3.1-5.6s-2.1-4-3-5.6l-.2-.3-2.7-5.4-.6-1.3-2.1-4.5-.7-1.6c-.6-1.4-1.3-2.8-1.8-4.2l-.7-1.7c-.6-1.4-1.2-2.8-1.7-4.2l-.6-1.5c-.6-1.5-1.2-3-1.7-4.5l-.2-.6c-.6-1.8-1.3-3.6-1.9-5.4-.8-2.2-1.4-4.2-2-6s-1.2-3.9-1.7-5.8l-.1-.3-.9-3.3c-3.2.5-6.8.9-11 1.1l-3.2.2c-1.8.1-3.6.2-5.3.3-1.4.1-2.8.2-4 .5h-.2l3.7 3.5c1.1 1.1 2.2 2.2 3.2 3.3l1 1.1c.7.8 1.4 1.6 2.1 2.5l1.4 1.8c.3.5.6.9.9 1.4l.4.7c.8 1.3 1.6 2.6 2.2 4l.6 1.3.3.9 1 2.6c.3.6.4 1.3.6 2l.6 2.8c.2 1.1.3 2.1.3 3.2 0 .5.1 1 .2 1.6.1.6.1 1.2.1 1.9-.1.1-.1.4-.1.5M744 363.1l-3.6.3c-2.2.1-4.6.2-7.2.2h-1c-.9 0-1.8 0-2.6-.1-1.4 0-2.5-.1-3.6-.2s-2.3-.2-3.6-.4c-.2 0-.4 0-.6-.1l-.9.8c-2.2 1.9-4.5 3.7-6.7 5.6-1.4 1.2-2.9 2.4-4.5 3.5-1 .8-2.1 1.5-3.1 2.3-.5.4-1 .7-1.5 1.1l-1.3.8c-1.2.8-2.4 1.6-3.7 2.3l-.7.4c-1.4.8-2.9 1.6-4.4 2.4l-.9.4c-.6.3-1.2.6-1.7.8l-2.7 1.1c-1.3.6-2.7 1.1-4.1 1.6l-1.3.5c-1.2.5-2.5.8-3.7 1.2-.6.2-1.2.4-1.8.5-1.3.4-2.6.7-3.8 1l-1.8.4c-1.7.4-3.4.8-5 1.1l-.6.1c-1.8.4-3.7.8-5.7 1l-5.6.9-5.7.7c-1.3.2-2.5.3-3.9.4.2.2.3.4.4.6l.4.5 2.1 2.4c.9 1 1.8 1.8 2.8 2.6l1.6 1.3 1.6 1.1c1 .6 2.1 1.4 3.3 2l1.8.9c.6.3 1.2.6 1.8.8 1.1.5 2.3.9 3.8 1.4 5.3 1.6 10.7 2.7 16.2 3.3l3.1.4c1.8.2 3.6.4 5.4.7 1.5.2 3 .4 4.4.8 1.6.3 3.1.9 4.5 1.5.5.2.9.6 1.1 1.1.2.5.3 1.1 0 1.6-.1.3-.2.5-.4.7l-6.1 6.7c-1 1.1-1.9 2.2-2.8 3.3-.2.3-.5.7-.8 1.1-.6.7-1.1 1.5-1.6 2.3l-1.2 1.8c-.2.3-.4.7-.6 1.1l-.4.7c-.6 1.1-1.1 2.2-1.6 3.4l-.6 1.4c0 .1-.9 2.9-.9 2.9-.2.5-.3 1-.3 1.5l-.4 2.5c-.1.8-.2 1.7-.2 2.5 0 .5 0 1.1-.1 1.6v2l.2 3.1.8 3.8c.1.4.2.8.3 1.3l1.4 4.4c.1.5.3 1 .5 1.5l1.7 4c.2.6.5 1.1.8 1.7l4.8-5.8c1.3-1.6 2.7-3.2 4-4.7l.7-.8c1.8-2 3.3-3.7 4.9-5.4.5-.6 1.1-1.1 1.7-1.7l.9-.9c.6-.6 1.2-1.1 1.9-1.7l1-.8.6-.5c.8-.6 1.7-1.3 2.6-1.9l.4-.2c1-.7 2.1-1.2 3.2-1.7.9-.4 1.9-.8 2.9-1.1l.9-.3h.1l1-.2c1-.2 1.9-.3 2.9-.4h2.2l1.9.1c.8.1 1.7.2 2.5.4l1.2.2c.8.1 1.4.6 1.7 1.4.7 2 .7 4.2.3 6.3-.4 1.8-.8 3.6-1.4 5.3-.5 1.7-1.1 3.5-1.7 5.2s-1 3.1-1.5 4.7c-1 3.2-1.9 6.4-2.5 9.7-.6 3.2-.9 6.4-.8 9.6.1 1.6.3 3.1.6 4.6s.7 3 1.3 4.4l.4.8c.2.4.4.9.6 1.3l1.1 2 1.3 1.8c.3.4.6.7.9 1l.4.5v-.3l.2-2.4c.3-4 .9-8.1 1.9-12 1.3-5.1 3-10 5.3-14.7 2.7-5.6 6-10.8 9.8-15.7 3-3.9 6.2-7.5 9.7-11-.2-.2-.3-.4-.5-.6-1.5-2.1-2.4-4.5-2.9-7.1-.7-4.7-.4-9.6 1.1-14.1 1.3-4.3 3.1-8.5 5.5-12.4 2.3-3.8 5-7.4 8.1-10.7 3.1-3.3 6.5-6.2 10.3-8.6 1.1-.7 2.2-1.4 3.4-2h-2.9c-.5 0-1 .1-1.5.1l-.9.1-.8.1c-.5 0-1 .1-1.5.1l-2.4.4c-1.3.2-2.6.5-3.9.8l-.8.2c-1.1.2-2.1.5-3.1.9l-1.5.5-1.1.4-1 .4-2.2.9c-.7.3-1.4.6-2.1 1l-2.2 1.1c-.9.5-1.7 1-2.6 1.5l-1.5.9c-.6.4-1.3.8-1.9 1.3l-3 2.1-2.7 2.3c-.9.7-1.7 1.5-2.4 2.3l-1 1-.6.6-1 1-3.1 3.8-.9 1.2-.5.7-2.1 2.9-3.1 5.1-.5.6c-.8 1.1-2.1 1.7-3.4 1.7-1.8 0-3.4-1.1-4-2.8-.2-.6-.5-1.2-.7-1.8-.4-1.1-.9-2.3-1.3-3.5l-.3-1c-.5-1.4-1-2.9-1.3-4.4s-.8-3.2-1.1-4.7l-.2-.8-.1-.7c-.3-1.7-.5-3.5-.5-5.2l-.1-1.4.1-3c0-.4.1-.7.1-1.1l.2-1.9c0-.4.1-.7.2-1l.4-1.9c.1-.4.2-.7.3-1l.3-.9c.1-.3.2-.6.3-1l.6-1.4c.3-.8.7-1.6 1.2-2.3l.2-.4c1-1.7 2.2-3.3 3.5-4.8l.5-.6 1.5-1.5.7-.7c.5-.4.9-.9 1.4-1.2 1.4-1.2 2.9-2.3 4.5-3.4 1.7-1.1 3.4-2.1 4.7-2.9 1.6-.9 3.3-1.8 4.8-2.6l2.8-1.4c2.3-1.2 4.5-2.3 6.7-3.5l.4-.2c-1.4.2-2.7.3-4 .5s-2.1-.1-3.2 0"/><path class="st0" d="M693.3 515.7c0 1.2 0 2.4-.1 3.6l-.3 4-.5 4.1c-.1.9-.2 1.8-.4 2.8-.1.4-.2.9-.2 1.3l-.4 2c-.1.5-.2 1-.3 1.4l-.2.7c-.1.5-.2.9-.3 1.4l-.2.6 1.5-.1c2.5-.1 5.1-.4 7.6-.8 1.5-.2 2.7-.5 3.7-.7 1.2-.3 2.5-.6 3.7-.9s2.3-.7 3.6-1.2c1-.4 2.2-.9 3.4-1.4.5-.2.8-.4 1.2-.6l.5-.2c.5-.3 1.1-.6 1.6-.9 1-.6 1.9-1.2 2.8-1.8l.3-.2.2-.2c.9-.7 1.7-1.4 2.6-2.2.5-.4.9-.8 1.3-1.3l.4-.5c.3-.3.5-.5.7-.8l1.2-1.5 1-1.5c.2-.3.4-.7.6-1l.3-.6.2-.3.6-1.2.8-1.8.7-2.1-1.2-1.1c-.5-.4-1-.9-1.4-1.4l-.6-.6c-.7-.7-1.4-1.4-2-2.2-.2-.2-.4-.5-.6-.7-.4-.5-.8-1-1.2-1.6l-.5-.7c-.4-.6-.7-1.1-1.1-1.7l-1.3-2.6c-.3-.7-.5-1.3-.8-1.9l-.3-.8c-.6-1.9-1.1-3.8-1.4-5.7-.3-1.9-.4-3.8-.4-5.7.1-3.7.6-7.4 1.5-11 .9-3.5 2-6.9 3.3-10.2l1.8-4.8c.6-1.6 1.3-3.3 1.9-4.9.6-1.5 1.1-3.1 1.5-4.7.2-.8.3-1.7.3-2.6-.5-.1-1.1-.1-1.6-.1H725c-.3 0-.6 0-.9.1-.2 0-.4.1-.7.1-.7.1-1.4.2-2.1.4l-.9.2-.8.3c-.7.2-1.3.5-1.9.9l-.1.1c-.8.4-1.5.9-2.2 1.4l-.4.3c-.6.5-1.3 1.1-2 1.7l-.5.5-.8.8-1.5 1.5c-.3.3-.5.6-.8.9-.5.5-1 1.1-1.4 1.6-1.4 1.7-2.7 3.5-4.3 5.5l-.6.9c-1.2 1.6-2.3 3.2-3.5 4.9l-8.2 11.7c-.2.3-.5.6-.8.9.2 1.3.4 2.7.6 4 .4 2.9.7 5.5.9 8v.1l.3 3.9c0 .5.1.9.1 1.4.1.9.1 1.8.2 2.6l.2 4 .1 4v2.9l.3 1.3zM676.6 448c.1-1.1.2-2.2.4-3.2l.7-2.8c.1-.7.3-1.4.6-2l.9-2.5c.1-.3.2-.5.3-.8l.7-1.4c.6-1.4 1.4-2.7 2.2-4l.4-.6c.3-.4.5-.9.8-1.3l1.4-1.9c.6-.9 1.3-1.7 2-2.5l.9-1.1c1-1.1 2.1-2.2 3.2-3.4l3.8-3.6h-.2c-1.3-.2-2.6-.3-4-.5l-5.4-.3-3.2-.2c-4.3-.2-7.8-.6-11-1.1l-.9 3.3-.1.3c-.5 1.9-1.1 3.9-1.7 5.8s-1.2 3.8-2 6c-.6 1.8-1.2 3.6-1.9 5.4l-.2.6c-.5 1.5-1.1 3-1.7 4.4l-.6 1.5c-.5 1.4-1.1 2.8-1.7 4.2l-.7 1.7-1.8 4.2-.7 1.6-2.1 4.5-.6 1.3c-.8 1.8-1.8 3.6-2.7 5.4l-.2.3c-.8 1.7-1.8 3.5-3 5.6s-2.2 4-3.1 5.6l-.5.8c-.9 1.5-1.8 3.1-2.8 4.7l-1.1 1.7c-.7 1.2-1.5 2.5-2.3 3.7l-1.2 1.8c-.8 1.1-1.5 2.3-2.3 3.5l-1.3 1.8c-.8 1.1-1.5 2.1-2.3 3.2h.1c.4.1.8.1 1.1.1.9.1 1.9.1 2.8.1h1c1.3-.1 2.6-.2 3.9-.4 2.7-.4 5.3-1 7.9-1.8 1.3-.4 2.5-.9 3.9-1.4s2.6-1 3.9-1.6c5.4-2.3 10.8-5.1 15.4-7.6l2.6-1.4c2.9-1.6 6-3.2 9.1-4.6l-1-2.1c-.2-.4-.3-.8-.5-1.1-.5-1.1-1-2.2-1.3-3.3l-1.5-4.4c-.2-.6-.4-1.3-.6-2l-1.2-4.9c-.1-.6-.2-1.1-.2-1.7l-.4-3.1-.2-1.2-.1-3.6v-.7c0-.6 0-1.3.1-1.9.1-.1.1-.6.2-1.1"/><path class="st0" d="M630.6 506.2l-3.2 18c-1.4 8.1-2.5 15.3-3.5 22-.3 1.8-.5 3.7-.7 5.5l-.2 1.9c-.2 1.2-.3 2.4-.4 3.6-.5 3.9-.8 7.8-1.1 11l-.4 5.5-.3 5.5c0 1.2 0 2.3-.1 3.5v1.7c0 .4 0 .8.1 1.3l1.4-.3 1.8-.6 1.8-.9 1-.6.8-.5c1.1-.8 2.2-1.6 3.2-2.6.5-.4.9-.8 1.3-1.3l.2-.2c.6-.6 1-1 1.5-1.6.9-1 1.8-2 2.6-3.2l.3-.3.5-.6c.7-1 1.5-2 2.2-3.1s1.3-2 2-3.1l.5-.8c3.1-5.3 5.9-10.8 8.3-16.5 1.2-2.8 2.4-5.8 3.5-8.7 1.2-3.3 2.2-6.2 3.1-8.9.2-.9 1.1-1.5 2-1.6.2 0 .4 0 .6.1.8.3 1.4 1 1.5 1.9.6 5 1.2 10 1.7 15 .3 2.3.5 4.7.8 7 .8 7 1.7 14.5 3.1 21.7.7 3.9 1.5 7.3 2.4 10.5.5 1.7 1 3.4 1.6 5s1.2 3.2 2 4.7c.2.5.5.9.7 1.4.2.3.3.6.5.8.1.2.3.5.5.7.2.4.5.8.8 1.2l.3.4c.3.5.7 1 1.1 1.4.5.6 1 1.2 1.6 1.7.4.4.8.7 1.2 1 .2.1.3.2.5.4l.6.4c.4.3.7.5 1.2.7l.1.1c.6.4 1.3.6 2 .9l.2-.2.1-.1c.1-.1.2-.3.3-.4.1-.1.2-.3.2-.4l.2-.4.3-.6c.3-.9.6-1.9.7-2.9.2-1 .3-2 .3-3.2.1-1.6.1-3.2.2-5 0-3.3.2-6.7.7-10 .2-1.3.4-2.6.7-3.9.3-1.3.7-2.6 1.2-3.9.5-1.3 1-2.5 1.7-3.7l.3-.6c.2-.4.5-.8.7-1.2l1.1-1.6 1.3-1.6c.3-.3.6-.7.9-1 .2-.2.3-.3.4-.5.4-.4.8-.8 1.3-1.2l.5-.5c.4-.4.8-.7 1.3-1l1.5-1.1 1.7-1.1c.7-.5 1.5-.9 2.2-1.3.4-.2.8-.4 1.1-.6.4-.2.8-.3 1.2-.3.8 0 1.6.5 2.1 1.2.1.2.2.3.2.5 1.8 5.2 4 10.2 6.6 15 2.6 4.9 5.5 9.6 8.7 14.1 3.1 4.5 6.6 8.8 10.3 12.8 3.6 4 7.7 7.5 12.2 10.4 4.8 3.1 9.5 4.9 14 5.2h1.3c1.9 0 3.8-.3 5.7-.8 2.3-.7 4.5-1.8 6.4-3.2 3.5-2.5 7-6.1 10.4-11.2 1.2-1.8 2.7-4.3 4-6.9.3-.5.5-1 .8-1.6l-.7-.1-1.3-.2c-.8-.1-1.6-.2-2.5-.4l-3.6-.8-.7-.2c-2.2-.6-4.4-1.4-6.5-2.2l-1.7-.7-1.2-.6-.5-.3-1.1-.6c-.8-.4-1.6-.8-2.3-1.3-.3-.2-.7-.4-1-.6-.7-.4-1.4-.9-2.1-1.4l-3-2.2-2.8-2.5-1.8-1.8-.9-.9c-1.7-1.8-3.3-3.8-4.8-5.8-.6-.7-1.1-1.5-1.6-2.3l-.5-.8c-.7-1-1.3-2-1.8-3l-.1-.1c-.6-1-1.1-2-1.7-3.2s-1.2-2.3-1.6-3.3-1-2.2-1.4-3.3l-.3-.7c-.3-.9-.7-1.8-1-2.7-1.6-4.5-3-9.1-4-13.8-1-4.4-1.8-9-2.5-14-.1-1-.3-2.1-.4-3.1-.2.5-.4 1-.7 1.5l-1 1.8-1.2 1.7c-.3.4-.6.9-1 1.3-.1.2-.2.3-.4.5-.5.6-.9 1.2-1.5 1.7-.9 1-1.9 2-3 2.9l-.1.1-.2.2c-1 .8-2.1 1.7-3.2 2.5l-1.8 1.2-.5.3c-.5.3-.9.6-1.4.8-1.3.7-2.6 1.4-3.8 1.9s-2.6 1.1-4 1.6-2.7.9-4 1.3c-1.2.4-2.5.7-4.1 1.1-2.7.6-5.5 1.2-8.3 1.5-1.5.2-3 .3-4.2.5s-2.7.2-4.4.2c-2.4 0-4.4-2-4.3-4.5 0-.6.1-1.1.3-1.6l1.5-3.5c.3-.7.6-1.4.8-2.1.1-.4.3-.9.4-1.3l.2-.6c.1-.4.2-.7.3-1.1l.5-1.8c.1-.4.2-.9.3-1.3.2-.8.4-1.5.5-2.3l.7-3.8.5-3.8c.2-1.1.3-2.2.4-3.3l.2-1.7c.1-.9.2-1.8.2-2.7l.2-4 .1-3.9v-7.8c0-2.4-.2-5-.3-7.8l-.3-3.9c-.3-.1-.5-.3-.8-.4-3 1.7-6 3.6-9 5.4l-2.4 1.5c-4.7 2.9-9.8 6-15.3 8.8-1.2.6-2.5 1.2-4 2s-2.8 1.2-4.2 1.8c-2.9 1.1-5.8 2-8.9 2.7-1.6.3-3.1.6-4.7.8-1.3.1-2.6.2-3.9.2h-1c-.5 0-1.1-.1-1.8 0zm591.8-37.5c-4.3 1.8-8.6 3.2-12.2 4.4-5.4 1.7-11.4 3.5-18.2 5.3-10.9 2.9-22.6 5.6-36.6 8.6-11.9 2.5-24.3 4.9-36.9 7.1-6.6 1.2-12.7 2.2-18.5 3.1-3.1.5-6.2 1-9.3 1.4l-4.7.6-2.4.3-1.2.1h-1.6c-.2 0-.4-.1-.5-.1-.2-.1-.3-.1-.5-.2-.4-.3-.8-.7-1-1.2-.2-.6-.2-1.2 0-1.8.2-.6.7-1 1.3-1.3.2-.1.3-.1.5-.1 3.8-.7 8-1.6 13-2.8 4.2-1 8.6-2.1 12.9-3.3 8.8-2.4 17.4-5.1 25.4-8 8.7-3.1 17-6.6 24.6-10.2 8-3.7 15.7-8.1 23-13 7.2-4.8 13.8-10.5 19.7-16.9 5.7-6.2 10-13.7 12.5-21.7 2.3-8 2.6-16.5.7-24.6-.9-4.1-2.2-8.2-3.8-12-.8-1.9-1.8-4-2.9-6.1-7.9 8.1-16.6 15.3-26.1 21.4-11.1 7.2-22.8 13.4-34.9 18.6s-24.4 9.7-37 13.4c-6.2 1.9-12.6 3.6-18.9 5.1-7.4 1.8-13.5 3.1-19.2 4.1h-.4c-1.3 0-2.3-1-2.4-2.3 0-1.1.7-2.1 1.8-2.3 4.3-1.1 8.8-2.4 14.3-4.1 4.8-1.5 9.5-3.1 14.2-4.8 9.7-3.5 19-7.4 27.7-11.4 9-4.2 17.8-8.9 26.3-14.2 8.4-5.2 16.3-11.2 23.6-17.9 7.2-6.5 13.3-14.2 18-22.7 4.6-8.4 7-17.7 7.1-27.2 0-4.7-.5-9.5-1.6-14.1-1.1-4.7-2.7-9.2-4.6-13.6-3-6.7-6.7-13-11-18.9-.7 1.3-1.3 2.5-1.8 3.6-1.9 3.6-3.7 6.9-5.7 10s-3.9 6.3-6.2 9.7-4.6 6.5-6.8 9.3c-18.8 24.3-43.5 43.5-71.7 55.8-7 3.1-14.2 5.7-21.5 7.8-3.7 1.1-7.5 2.1-11.1 2.9-3.8.9-7.5 1.5-11.4 2h-.3c-1.3 0-2.4-1.1-2.4-2.4 0-1.1.8-2.1 1.9-2.4 4.9-1.3 10.3-3.1 16.5-5.4 5.4-2 10.9-4.2 16.1-6.6 10.6-4.7 20.8-10.3 30.5-16.6 9.7-6.3 18.6-13.6 26.6-21.8 8-8.2 14.5-17.6 19.4-27.9 4.7-10.3 7.4-21.4 7.8-32.7.2-5.6-.1-11.3-.9-16.9s-2-11.2-3.7-16.6c-3.4-11-7.9-21.5-13.5-31.5-3.6-6.5-7.5-12.8-11.7-18.9-1.5 15-4.9 29.8-10.3 43.9-6.9 18-16.5 34.8-28.3 49.9a248.45 248.45 0 01-39.9 40.8c-7.2 6-14.9 11.7-22.9 17-3.9 2.6-7.9 5.2-12 7.6-3.3 2-6.2 3.6-8.9 5.1.4 1 .8 2 1.1 3 1.1 3.2 2.1 6.5 2.8 9.8.8 3.3 1.3 6.6 1.6 10 .4 3.4.5 6.8.4 10.2-.1 3.4-.4 6.8-1 10.1-1.1 6.7-3.1 13.2-5.8 19.3-2.7 6.1-6.1 11.9-10 17.4-3.9 5.4-8.1 10.5-12.8 15.2-2.5 2.6-5.2 5.1-8 7.5l15.5-7.5 2.8-1.4c12.5-6 25.3-12.3 37.8-18.7.6-.3 1.3-.5 2-.5 1.7 0 3.2.9 3.9 2.4.1.3.2.5.3.8.7 2.7 1.2 5.5 1.4 8.2.2 2.8.1 5.5-.2 8.3-.7 5.4-2.3 10.6-4.8 15.5-2.4 4.7-5.4 9.1-8.8 13.1-3.4 3.9-7 7.6-10.9 10.9-7.8 6.5-16.1 12.3-25 17.3-3.8 2.1-7.6 4.2-11.6 6.2 10-1.4 19.5-2.8 28.7-4.3 3.6-.6 7.1-1.2 10.6-1.8l.7-.1 2.6-.5c2.8-.5 5.8-1.1 8.6-1.7l1.8-.4c1.3-.2 2.5-.5 3.8-.8l5.6-1.2 5.5-1.4 5.4-1.5c.4-.1.8-.2 1.2-.2 2 0 3.7 1.3 4.3 3.2.1.3.1.6.2.9.2 2.6.1 5.3-.1 7.9-.3 2.6-.7 5.3-1.4 7.8-1.5 5.1-3.8 9.9-7 14.2-3.1 4.1-6.8 7.8-11 10.8-4 3-8.4 5.6-12.9 7.7-8.9 4.2-18.3 7.3-28 9.3-.7.2-1.4.3-2.1.5 4.9.2 9.6.4 14.2.5 3.4.1 6.8.2 10.2.2h15.3l5.1-.2 5-.3 4.9-.4h.4c2.3 0 4.2 1.8 4.4 4.1v.9c-.3 2.3-.8 4.6-1.4 6.9-.6 2.3-1.3 4.5-2.2 6.6-1.8 4.4-4.2 8.4-7.3 12.1-3 3.6-6.5 6.7-10.5 9.3-3.9 2.5-8 4.5-12.3 6-6.4 2.2-13 3.7-19.8 4.3 2 .5 3.9 1 5.8 1.5 6.3 1.6 12.5 3.7 18.6 6.2 3.1 1.3 6.1 2.8 9 4.6 3.2 1.9 6.1 4.3 8.4 7.2 1 1.3 1.2 3 .4 4.5l-.1.1c-.9 1.7-2 3.4-3.1 5s-2.4 3.2-3.7 4.6c-1.4 1.4-2.8 2.8-4.3 4s-3.2 2.3-4.8 3.3c-6.7 3.8-14.2 6-21.9 6.4-1.8.1-3.7.2-5.6.2-5.5 0-11-.5-16.4-1.6-1.6-.3-3.2-.6-4.7-1 4.5 3.2 8.5 6.3 12.2 9.5 4.2 3.6 8.1 7.5 11.7 11.7 1.8 2.2 3.5 4.5 5 7 1.6 2.6 2.8 5.4 3.6 8.4.4 1.6-.1 3.3-1.4 4.4l-.2.2c-5 4-11 6.8-17.3 8.1-2.2.4-4.5.6-6.8.6-4.1 0-8.2-.6-12.2-1.9-5.8-1.8-11.4-4.5-16.4-8-2.5-1.7-4.9-3.5-7.2-5.5l-.1-.1c.4 1.2.9 2.5 1.4 3.8 1.5 3.9 3.2 7.8 5.2 11.5s4.2 7.2 6.6 10.6c2.4 3.3 5.1 6.4 8 9.3l.2.3c1.6 1.7 1.4 4.4-.3 6-.3.3-.6.5-.9.6l-1 .5c-.7.4-1.4.7-2.1 1.1l-1 .4c-.8.4-1.6.7-2.4 1l-1.6.6-1.8.5c-.8.3-1.6.4-2.4.6l-1 .2-1.1.2c-.8.1-1.7.3-2.6.3-1.1.1-2.3.1-3.6.2h-.7c-1 0-2.1-.1-3.1-.2-1.1-.1-2.2-.3-3.3-.5h-.2c-1.2-.3-2.3-.5-3.5-.9-1.4-.4-2.4-.8-3.3-1.2s-2-.8-3.2-1.4c-1-.5-2-1.1-3-1.7-1.5-.9-3-1.9-4.4-3v163.7c2.7-1.2 5.2-2.7 7.4-4.6 3.8-3.3 6.8-7.3 8.9-11.9 2.2-4.7 3.8-9.7 4.7-14.9.5-2.3.8-4.8 1.1-7.9.3-2.6.4-5.3.5-8.1.2-10.9-.6-21.8-2.3-32.6-.8-5.3-1.8-10.8-3-16.2-.8-2.8-1.5-5.1-2-7.4-.9-3.5-1.5-6.2-2-8.8-.1-.6 0-1.2.3-1.7s.8-.9 1.4-1h.5c.9 0 1.7.6 2 1.5 1.6 4.9 3.1 10 4.7 16.2v.1l.2.8c1.9 5.7 4 11.2 6.3 16.4 2.3 5.3 5 10.5 7.9 15.6 2.9 5 6.2 9.7 9.9 14.1 3.6 4.3 7.8 8.2 12.4 11.3 4.5 3.1 9.5 5.2 14.9 6.2 2.1.4 4.1.5 6.2.5h1.7c2.7-.1 5.4-.5 8-1.2 1-.2 1.9-.5 2.8-.8l1.2-.3 1.1-.4c.9-.3 1.8-.7 2.7-1.1l1.5-.7c-5.6-5-10.7-10.5-15.2-16.5-5.7-7.8-10.9-15.9-15.4-24.5-4.3-8.1-8.3-16.6-12.2-26-1.8-4.4-3.5-8.9-5.2-13.3-1.9-5.1-3.3-9.5-4.6-13.6-.2-.6-.1-1.2.1-1.7.3-.5.8-1 1.3-1.2.2-.1.5-.1.7-.1.8 0 1.6.5 2 1.2 1.4 2.5 3 5.2 5.1 8.4 1.8 2.8 3.7 5.5 5.5 8.1 3.9 5.5 8 10.7 12.1 15.4 4.2 4.9 8.8 9.6 13.6 13.9 4.8 4.3 9.9 8.2 15.4 11.6 5.3 3.4 11.1 6 17.2 7.8 4.7 1.4 9.5 2.1 14.3 2.1 1.3 0 2.6 0 3.9-.2 3-.2 6.1-.8 9-1.6 3-.8 5.8-1.9 8.6-3.3 2.8-1.3 5.5-2.9 8.1-4.6.5-.3 1-.7 1.5-1-7.7-3.5-15-7.8-21.8-12.9-8.8-6.6-17-13.8-24.5-21.8-7.5-7.9-14.5-16.1-21-24.8-3.3-4.3-6.5-8.7-9.5-13.2-3.5-5.1-6.3-9.5-8.8-13.7-.7-1.1-.3-2.6.8-3.3 1-.6 2.3-.4 3.1.5 2 2.2 4.3 4.6 7.2 7.5 2.4 2.4 4.9 4.8 7.6 7.3 5.2 4.8 10.6 9.4 15.9 13.6 12.3 9.7 23.8 17 35.1 22.2 6.2 2.9 12.6 5 19.3 6.4 3.8.8 7.6 1.2 11.4 1.2 2.8 0 5.5-.2 8.2-.7 6.3-1.2 12.3-3.9 17.5-7.8 2.6-2 5-4.2 7.1-6.7.8-.9 1.6-1.8 2.4-2.9l-1.8-.6c-3.2-1.1-5.7-2-7.9-3-1.3-.5-2.6-1.1-3.8-1.7l-.6-.2c-1.1-.5-2.2-1-3.2-1.5-2.4-1.1-4.7-2.3-7.4-3.7-9.7-5.2-19.1-10.9-28.2-17-8.8-5.9-17.7-12.3-26.6-19.1-9.4-7.2-17.7-13.9-25.4-20.5-.9-.7-1.1-1.9-.4-2.8.4-.5 1-.8 1.7-.8.4 0 .9.1 1.2.4 4.8 3.2 10.2 6.5 16.5 10.1 5.8 3.2 11.6 6.2 17.2 8.9 11.6 5.6 23.7 10.1 36.1 13.4 6.1 1.6 12.4 2.7 18.7 3.2 2.4.2 4.9.3 7.2.3 3.8 0 7.6-.3 11.4-.9 6-.9 11.7-3 16.9-6.1 2.6-1.5 4.9-3.3 7.1-5.3 1.4-1.3 2.7-2.6 3.9-4.1-2.6-3.2-5.5-6.1-8.7-8.7-4.2-3.4-8.6-6.6-13.2-9.4-9.4-5.7-19.3-10.8-29.4-15.1-9.6-4.2-19.8-8.1-31.2-12-5.2-1.8-10.6-3.5-15.9-5.2-6.1-1.9-11.2-3.3-16.1-4.6h-.1c-1.3-.3-2.1-1.7-1.7-3 .3-1.1 1.3-1.8 2.4-1.8.2 0 .4 0 .5.1 5.3 1.3 11.1 2.5 17.8 3.7 5.9 1.1 12 2 17.9 2.8 11.9 1.6 24 2.5 36 2.7h2.8c11 .1 22-.8 32.8-2.9 5.7-1.1 11.3-2.8 16.7-5 4.6-1.9 9-4.4 12.9-7.5 0-1.8-.5-3.5-1.3-5.1-1.3-2.3-3-4.4-5-6.1-3.8-3.2-8.6-6.1-15.4-9-5.7-2.4-11.6-4.4-17.6-6.1-5.6-1.6-11.6-3-18.3-4.4-11.4-2.3-23.7-4.3-37.5-5.9-2.4-.3-4.9-.5-7.3-.8-3.5-.2-6.6-.3-9.5-.5-8.2-.5-14.9-1.2-21.3-2-1.3-.2-2.3-1.4-2.1-2.8.2-1.2 1.2-2.1 2.4-2.1 5.9.1 12 .4 19.3.9 3.9.2 8 .5 12.9.9 2.2 0 4.4.1 6.7.1h3.5c14 0 28-1.1 41.9-3 6.9-1 13.7-2.3 20.4-4.1 6.6-1.7 13.1-3.9 19.4-6.7 6.1-2.7 11.8-6.3 16.8-10.6 3.8-3.3 6.9-7.3 9.2-11.8-1.3-.5-2.6-1-4-1.5-2.5-.8-5.3-1.6-8.5-2.4-5-1.2-10.7-2.3-17.7-3.3-10.6-1.6-22.1-2.8-36.2-3.8-11.4-.8-23.3-1.5-36.5-1.9-10.2-.3-20.1-.5-29.6-.6h-7.1c-1.2 0-2.2-1-2.2-2.2s1-2.2 2.2-2.2c3.5-.1 7-.2 10.4-.3l2-.1c4-.2 8.1-.5 12.3-.8 8.3-.7 16.5-1.7 24.4-3 18-2.9 33.5-7 47.2-12.5 7.5-2.9 14.7-6.6 21.4-11 6.7-4.2 12.6-9.5 17.6-15.7 2.4-3 4.5-6.3 6.2-9.8 1.7-3.4 3-7 3.9-10.8s1.4-7.6 1.5-11.5c.2-1.4.2-3.3 0-5.3M927 658.5c1.6-.6 3.2-1.4 4.7-2.3 2.8-1.7 5.1-4.1 6.8-6.9.4-.7.8-1.5 1.1-2.2s.6-1.4.9-2.3c.2-.7.5-1.5.7-2.4s.4-1.7.6-2.5c.5-2.6.8-5.3.9-7.9-.2-.1-.5-.3-.7-.4-.9-.5-2-1-3.3-1.5-2-.9-4.2-1.7-7-2.7-4.2-1.5-8.8-3-14.6-4.7-9.4-2.8-19.2-5.3-29.9-7.9h-.1c-.6-.1-1.2-.5-1.5-1.1-.3-.5-.4-1.2-.3-1.8.2-1.1 1.2-1.8 2.2-1.8 2.7-.3 5.5-.8 8.8-1.4 3-.6 6-1.3 8.8-2 5.8-1.4 11.5-3.3 17-5.6 5.4-2.1 10.4-5.1 14.8-8.7 2-1.7 3.8-3.7 5.1-6 .8-1.3 1.4-2.7 1.8-4.2l-.4-.2c-1.1-.5-2.1-1-3.2-1.4-2.3-.9-4.7-1.6-7.1-2.3-4.4-1.2-9.2-2.2-15.1-3.1-4.8-.8-9.8-1.5-15.5-2.1-5.5-.6-10.7-1.1-15.6-1.4-1.4 0-2.5-1.2-2.5-2.6 0-1.1.8-2.1 1.9-2.4 3.2-.9 6.5-1.9 10.2-3.3 3.4-1.2 6.7-2.6 9.8-4 6.4-2.8 12.5-6.3 18.2-10.4 6.3-4.6 10.8-9.5 13.4-14.6 1.5-2.7 2.4-5.7 2.8-8.8.2-2 .2-4-.1-5.9h-1c-1.4 0-2.8.2-4.6.3-1.6.2-3.1.4-4.6.6-1.7.3-3.2.5-4.7.9-3 .6-6.1 1.3-9.4 2.2-3.1.8-6.2 1.7-9.3 2.6-5.7 1.7-11.8 3.7-18.5 6s-12.7 4.7-18.3 6.9c-1.3.5-2.7 0-3.3-1.3-.5-1.2-.1-2.7 1.1-3.3 2.6-1.4 5.4-3 8.7-5.1 2.7-1.7 5.5-3.7 8.3-5.7 5.4-4 10.6-8.3 15.5-13 9.8-9.2 17.9-19.9 24.2-31.7 6.1-11.7 9.5-24.7 10-37.9.1-3.3.1-6.6-.2-9.8-.2-3.3-.7-6.6-1.2-9.8-.6-3-1.3-6.4-2.2-9.6v-.1c-1.8 2.9-3.6 5.7-5.5 8.3-3.7 5.2-7.8 10.5-12.3 15.7-8.7 9.9-17.9 19.4-27.7 28.3-4.8 4.4-9.6 8.8-14.4 13.1s-9.8 8.8-14.6 13.3c-3.9 3.7-9 8.5-13.7 13.6-4.3 4.5-8.2 9.5-11.6 14.9-3.7 6.1-5.4 11.6-5.3 16.6 0 2.9.6 5.7 1.7 8.3 1.2 2.7 2.7 5.3 4.6 7.7 4 5.3 7.7 10.9 11 16.7 3.4 5.9 6.1 12.1 8.1 18.5 2.1 6.7 2.8 13.7 1.9 20.6-1 7-4.1 13.6-8.8 19-4.6 5.1-10 9.4-16.1 12.6-.6.3-1.3.7-2 1h95.7c2.5 0 4.5 1.9 4.5 4.4v14h.4zM269.5 465.8c1.2.7 1.5 2.2.8 3.4-.4.7-1.2 1.2-2.1 1.2-.3 0-.7-.1-1-.2l-41.7-17.8-1.3-.6c-11.6-5-23.5-10.1-35.2-15.4-.4 2.6-.5 5.3-.2 8 .4 4.5 1.7 8.9 3.6 13 2 4.2 4.5 8.2 7.4 11.8 3 3.7 6.3 7.2 9.8 10.4 7.2 6.5 15.1 12.4 23.4 17.4 4.1 2.5 8.4 5 12.8 7.3 4.8 2.5 9.2 4.6 13.3 6.4 1.2.5 1.8 2 1.3 3.2-.4.9-1.3 1.5-2.2 1.5h-.2c-16.3-1.3-31.3-2.8-45.9-4.5-3.7-.4-7.4-.9-11.1-1.4l-3-.4c-2.9-.4-5.9-.8-8.9-1.3l-1.8-.3c-1.3-.2-2.7-.4-4-.7l-5.7-1-5.8-1.2-.3-.1c0 .5 0 .9.1 1.3.1 2.1.5 4.3.9 6.4 1 4.2 2.8 8.1 5.3 11.7 2.6 3.6 5.6 6.9 9.1 9.6 3.6 2.8 7.4 5.3 11.5 7.4 8.3 4.2 17.1 7.5 26.2 9.7 4.5 1.2 9.1 2.2 13.9 3 2.3.4 4.6.8 7 1.1 2.8.4 5 .6 7.1.8 1.2.1 2.2 1.1 2.2 2.3.1 1.3-.9 2.5-2.2 2.6-14.4 1.6-27.9 2.9-41 3.9-3.4.3-6.9.5-10.3.7l-5.1.3c-1.7.1-3.5.2-5.2.2l-1.8.1c-1.1 0-2.2.1-3.4.1l-5.2.1h-5l.1.7c.4 1.9 1 3.8 1.6 5.6 1.3 3.7 3.2 7.1 5.6 10.2 2.4 3.1 5.3 5.8 8.5 8.1 3.3 2.3 6.8 4.2 10.6 5.7 7.7 3 15.9 4.8 24.2 5.4 3.3.3 6.7.4 10.1.4h2.5c2.2 0 4.3-.1 6.3-.3 2.3-.2 4.4-.4 6.2-.6h.4c1.3 0 2.4 1 2.5 2.4 0 1.2-.8 2.2-2 2.4h-.1c-5.8 1.1-11.8 2.4-18.3 4s-12.5 3.3-18.1 5.2c-5.9 1.9-11.7 4.1-17.3 6.8-2.7 1.3-5.3 2.8-7.7 4.4-1.5 1-2.8 2.1-4.1 3.4 2.6 4.7 6.3 8.7 10.8 11.6 5.6 3.5 11.9 5.6 18.4 6.3 2.9.4 5.7.5 8.6.5 3.9 0 7.9-.3 11.8-.8 3.4-.5 6.8-1.1 10.2-1.9 1.8-.4 3.4-.8 5.1-1.3 1.9-.5 3.5-1 5-1.5.3-.1.5-.1.8-.1.9 0 1.6.5 2.1 1.2.3.6.4 1.2.3 1.8s-.5 1.1-1 1.4c-4.1 2.8-8.3 5.9-12.6 9.4s-8.2 6.9-11.7 10.4c-3.7 3.5-7.1 7.4-10.2 11.5-1.5 2-2.8 4-3.9 6.2-.6 1.2-1.2 2.5-1.6 3.8 3.3 2.6 7.1 4.5 11.2 5.5 2.4.6 4.8.9 7.2.9 2.8 0 5.6-.3 8.3-1 5.3-1.3 10.4-3.5 15.1-6.3 2.4-1.4 4.8-3 7-4.7 1.1-.8 2.2-1.7 3.3-2.6s2.2-1.9 3.1-2.8c.4-.4 1-.7 1.6-.7h.4c.6.1 1.2.5 1.5 1s.5 1.1.4 1.7c-.2 1.3-.4 2.5-.5 3.4-.2 1.1-.4 2.2-.7 3.3-.5 2.1-1 4.2-1.7 6.5-1.2 4.3-2.8 8.5-4.5 12.6-1.8 4.1-3.9 8.1-6.2 12-1.4 2.3-2.9 4.5-4.6 6.8.2.1.5.2.8.3l1.3.6 1.4.5 1.8.6 1 .3.9.2c.6.2 1.3.3 1.9.4.9.2 1.8.2 2.8.3h3c.8 0 1.7-.1 2.6-.2h.3c.9-.1 1.9-.3 2.9-.5.8-.2 1.8-.4 2.9-.8.8-.2 1.7-.6 2.8-1 .9-.4 1.8-.8 2.8-1.2 1.8-.9 3.6-2 5.2-3.2.7-.5 1.4-1 2-1.5v-54.3c-2.6-.6-5.1-1.5-7.5-2.6-1.9-.9-3.7-2.1-5.3-3.5-.8-.7-1.6-1.4-2.3-2.2-.7-.8-1.4-1.6-2-2.5s-1.2-1.8-1.7-2.7-.9-1.8-1.5-2.8-.9-2-1.2-2.9-.7-1.9-1-2.9c-1.1-3.9-1.9-7.8-2.3-11.8v-.5c0-1.4.8-2.8 2-3.5 1.3-.8 2.6-1.5 4-2.1 1.1-.5 2.3-1 3.9-1.5 2.2-.8 4.7-1.6 7.7-2.4 4.5-1.3 9.3-2.5 15.3-3.8 5-1.1 10-2.2 15.2-3.2l-2.8-.5c-6.2-1.2-12.3-2.8-18.2-4.9-7.2-2.6-12.7-5.5-17.3-9-2.8-2.1-5.2-4.7-7.2-7.6-2.1-3.1-3.5-6.6-4-10.3v-.2c-.2-1.6.6-3.2 2-4 1.3-.8 2.7-1.6 4.1-2.2 1.3-.6 2.7-1.1 4.1-1.5 2.7-.8 5.4-1.5 8.1-2 4.7-1 9.8-1.7 16-2.3 4.8-.5 10-.9 15.6-1.2-1.8-.6-3.6-1.3-5.4-2-7-2.7-13.6-6.1-19.9-10.2-3.2-2.1-6.2-4.5-9-7.2-2.9-2.7-5.4-5.9-7.4-9.3-2.1-3.6-3.5-7.5-4.2-11.6-.6-4.1-.5-8.3.5-12.4v-.2c.4-1.9 2.1-3.2 4-3.2h3.7c.6 0 1.2 0 1.8.1 1.6.1 3.2.3 5.2.6 1.7.3 3.4.6 5 1s3.3.7 4.9 1.2c3.1.8 6.3 1.7 9.6 2.7 3.1 1 6.3 2 9.5 3.1s6.3 2.3 9.7 3.6c-3.3-2.6-6.5-5.3-9.5-8-10.5-9.4-19.4-20.5-26.3-32.9a97.59 97.59 0 01-11.8-40.8c-.2-3.6-.2-7.1 0-10.7.2-3.8.6-7.5 1.1-10.7.2-1.3.4-2.5.7-3.8-2.4-2-4.7-4-6.9-6.1-3.1-2.9-6.3-5.8-9.3-8.8-6.1-6-12-12.3-17.6-18.6-5.6-6.5-10.9-13.3-15.8-20.4l-.8-1.3-2.7-4.2c-1.1-1.7-2.1-3.5-3.1-5.3l-.2-.3-.6-1.2c-.5-.8-.9-1.7-1.4-2.6l-.4.7c-1.2 2.5-2.5 5.2-3.7 8.5-1.1 2.9-2 5.8-2.8 8.8s-1.3 6-1.7 9-.6 6.1-.6 9.1c0 3.1.2 6.1.7 9.1.9 6.1 2.5 12.1 4.9 17.8 2.4 5.8 5.4 11.3 8.9 16.4 3.5 5.2 7.5 10.1 11.8 14.7 4.4 4.6 9 8.9 14 12.8 2.4 2 5 3.9 7.5 5.8 2.4 1.9 5 3.6 7.4 5"/><path class="st0" d="M.1 468.7c-.1 2-.2 3.9-.1 5.7.1 3.9.6 7.7 1.5 11.5.9 3.7 2.2 7.4 3.9 10.8 1.7 3.5 3.8 6.7 6.2 9.8 5 6.1 10.9 11.4 17.5 15.6 6.8 4.4 13.9 8.1 21.4 11 13.8 5.5 29.2 9.6 47.2 12.5 7.9 1.3 16.1 2.3 24.4 3 4.2.3 8.3.6 12.3.8l2 .1 10.4.3c1.2 0 2.2 1 2.2 2.2s-1 2.2-2.2 2.2h-7.1c-9.5.1-19.4.3-29.6.6-13.2.4-25.2 1.1-36.5 1.9-14.2 1-25.7 2.3-36.2 3.8-7 1.1-12.6 2.1-17.7 3.3-3.2.8-6 1.6-8.5 2.4-1.4.5-2.7 1-4 1.5 2.3 4.5 5.4 8.5 9.2 11.8 5 4.4 10.7 8 16.8 10.7 6.3 2.8 12.8 5.1 19.4 6.8 6.7 1.7 13.5 3.1 20.4 4.1 13.9 1.9 27.9 3 41.9 3h3.5c2.3 0 4.5 0 6.7-.1 4.9-.4 9-.7 12.9-.9 7.3-.4 13.4-.7 19.3-.9 1.4 0 2.4 1.1 2.4 2.5 0 1.2-.9 2.3-2.1 2.4-6.4.8-13.1 1.4-21.3 2-2.9.2-6 .3-9.5.5-2.4.3-4.9.5-7.3.8-13.9 1.7-26.1 3.6-37.5 5.9-6.7 1.4-12.7 2.8-18.4 4.4-6 1.6-11.9 3.7-17.6 6.1-6.7 2.9-11.6 5.8-15.4 9-2 1.7-3.7 3.8-5 6.1-.8 1.6-1.3 3.3-1.3 5.1 3.9 3.1 8.3 5.6 12.9 7.5 5.4 2.2 11 3.9 16.7 5 10.8 2.1 21.8 3 32.8 2.9h2.8c12-.2 24.1-1.1 36-2.7 5.9-.8 12-1.7 17.9-2.8 6.7-1.2 12.5-2.4 17.8-3.7.2 0 .4-.1.5-.1 1.3 0 2.4 1.1 2.5 2.4 0 1.1-.7 2.1-1.8 2.4h-.1c-4.8 1.3-9.9 2.7-16 4.6-5.4 1.6-10.7 3.4-15.9 5.2-11.3 3.9-21.5 7.8-31.2 12-10.2 4.3-20 9.4-29.4 15.1-4.6 2.8-9 6-13.2 9.4-3.2 2.6-6.1 5.5-8.7 8.7 1.2 1.4 2.5 2.8 3.8 4 2.2 2 4.6 3.8 7.1 5.3 5.2 3.1 10.9 5.2 16.9 6.1 3.8.6 7.6.9 11.4.9 2.3 0 4.7-.1 7.2-.3 6.3-.6 12.6-1.7 18.7-3.2 12.4-3.3 24.5-7.8 36.1-13.4 5.7-2.7 11.4-5.7 17.2-8.9 6.3-3.6 11.7-6.9 16.5-10.1.9-.6 2.1-.5 2.8.3s.7 2.1-.2 2.8l-.1.1c-7.7 6.6-16 13.3-25.4 20.5-8.9 6.8-17.9 13.2-26.6 19.1-9.1 6.1-18.5 11.8-28.2 17-2.7 1.4-5 2.6-7.4 3.7-1.1.5-2.2 1-3.2 1.5l-.6.2c-1.2.5-2.5 1.1-3.8 1.7-2.2.9-4.7 1.9-7.9 3l-1.8.6c.8 1.1 1.6 2 2.4 2.9 2.2 2.4 4.6 4.7 7.1 6.6 5.1 3.9 11.1 6.5 17.5 7.7 2.7.5 5.5.7 8.2.7 3.8 0 7.6-.4 11.4-1.2 6.6-1.4 13.1-3.6 19.3-6.4 11.3-5.2 22.8-12.4 35.1-22.2 5.4-4.2 10.7-8.8 15.9-13.6 2.6-2.5 5.2-4.9 7.6-7.3 2.9-2.9 5.2-5.3 7.2-7.5.9-1 2.4-1.1 3.4-.2.4.3.6.8.8 1.2.2.6.1 1.3-.3 1.8-2.5 4.2-5.3 8.5-8.8 13.7-3 4.4-6.2 8.8-9.5 13.2-6.5 8.6-13.5 16.9-21 24.8-7.5 7.9-15.7 15.2-24.4 21.8-6.8 5.1-14.1 9.4-21.8 12.9l1.5 1c2.6 1.7 5.3 3.3 8.1 4.6s5.6 2.4 8.6 3.3c2.9.8 6 1.4 9 1.6 1.3.1 2.6.2 3.9.2 4.9 0 9.7-.7 14.3-2.1 6-1.8 11.8-4.4 17.2-7.8 5.5-3.4 10.6-7.3 15.4-11.6 4.8-4.3 9.4-9 13.6-13.9 4.1-4.8 8.2-10 12.1-15.4 1.8-2.6 3.7-5.3 5.5-8.1 2.1-3.2 3.7-5.9 5.1-8.4.4-.7 1.2-1.2 2-1.2.2 0 .5 0 .7.1 1.2.4 1.9 1.7 1.5 2.9-1.3 4.1-2.7 8.4-4.6 13.6-1.6 4.5-3.4 9-5.2 13.3-3.9 9.3-7.9 17.8-12.2 26-4.5 8.5-9.6 16.7-15.4 24.5-4.5 6-9.5 11.6-15.2 16.5l1.5.7c.9.4 1.8.7 2.7 1.1.4.1.8.3 1.1.4l1.1.3c1 .3 1.9.6 2.8.8 2.6.7 5.3 1.1 8 1.2h1.7c2.1 0 4.2-.2 6.2-.5 5.3-1 10.4-3.1 14.9-6.2 4.6-3.2 8.8-7 12.3-11.3 3.7-4.4 7-9.1 9.9-14.1s5.6-10.2 7.9-15.6c2.3-5.1 4.4-10.7 6.3-16.4l.2-.8v-.1c1.6-6.2 3-11.3 4.7-16.2.3-.9 1.2-1.6 2.2-1.6h.5c.6.1 1.1.5 1.4 1s.4 1.1.3 1.7c-.5 2.6-1.1 5.3-2 8.8-.6 2.2-1.2 4.6-2 7.4-1.2 5.4-2.2 10.9-3 16.2-1.8 10.8-2.6 21.7-2.4 32.7.1 2.7.2 5.4.5 8.1.3 3.1.7 5.6 1.1 7.9.9 5.1 2.5 10.2 4.7 14.9 2.1 4.6 5.1 8.6 8.9 11.9 2.2 1.9 4.7 3.4 7.4 4.6V725c-1.4 1.1-2.9 2.1-4.4 3-1 .6-2.1 1.2-3.1 1.7-1.2.6-2.2 1.1-3.2 1.4s-2 .8-3.3 1.2c-1.2.4-2.4.6-3.5.9h.2c-1.1.2-2.2.4-3.3.5-1 .1-2.1.2-3.1.2h-.6c-1.3 0-2.4 0-3.6-.2-.9 0-1.8-.2-2.6-.3l-1.1-.2-1-.2c-.8-.2-1.6-.3-2.4-.6l-1.8-.5-1.6-.6c-.8-.3-1.6-.6-2.4-1l-1-.4c-.7-.3-1.4-.7-2.1-1.1l-1-.5-.9-.6c-1.7-1.6-1.9-4.3-.3-6l.2-.3c2.9-2.9 5.6-6 8-9.3 2.4-3.4 4.6-6.9 6.6-10.5 2-3.7 3.7-7.5 5.2-11.5.5-1.3 1-2.6 1.4-3.8l-.1.1c-2.3 1.9-4.7 3.8-7.1 5.5-5 3.5-10.6 6.2-16.4 8-3.9 1.2-8 1.8-12.2 1.9-2.3 0-4.5-.2-6.8-.6-6.3-1.3-12.2-4-17.2-8.1l-.2-.2c-1.2-1.1-1.8-2.8-1.4-4.4.8-3 2-5.8 3.6-8.4 1.5-2.5 3.2-4.8 5-7 3.6-4.2 7.5-8.1 11.7-11.7 3.7-3.2 7.7-6.3 12.2-9.5-1.6.4-3.2.7-4.7 1-5.4 1-10.9 1.5-16.4 1.6-1.9 0-3.8-.1-5.6-.2-7.7-.5-15.2-2.7-21.9-6.4-1.7-1-3.3-2.1-4.9-3.3-1.5-1.2-3-2.6-4.3-4-1.4-1.4-2.6-3-3.7-4.6-1.1-1.6-2.2-3.3-3.1-5l-.1-.1c-.7-1.5-.6-3.2.4-4.5 2.3-2.9 5.2-5.4 8.4-7.2 2.9-1.7 5.9-3.3 9.1-4.6 6-2.5 12.2-4.6 18.6-6.2 1.9-.5 3.8-1 5.8-1.5-6.7-.6-13.4-2.1-19.8-4.3-4.3-1.5-8.4-3.5-12.3-6-3.9-2.6-7.5-5.7-10.5-9.3s-5.5-7.7-7.3-12.1c-.9-2.2-1.6-4.4-2.2-6.6-.6-2.3-1.1-4.6-1.4-6.9v-.9c.2-2.3 2.1-4.1 4.4-4.1h.4l4.9.4 5 .3 5.1.2h15.2c3.4 0 6.8-.1 10.2-.2 4.6-.1 9.3-.3 14.2-.5-.7-.1-1.4-.3-2.1-.5-9.7-2-19.1-5.1-28-9.3-4.6-2.2-8.9-4.7-12.9-7.7-4.2-3.1-7.9-6.7-11-10.8-3.2-4.3-5.5-9.1-7-14.2-.7-2.6-1.2-5.2-1.4-7.8-.2-2.6-.3-5.3-.1-7.9 0-.3.1-.6.2-.9.5-1.9 2.3-3.2 4.3-3.2.4 0 .8.1 1.2.2l5.4 1.5 5.5 1.4 5.6 1.2c1.2.3 2.5.5 3.8.8l1.8.4c2.9.6 5.8 1.1 8.6 1.7l2.6.5.7.1c3.5.6 7.1 1.2 10.6 1.8 9.2 1.5 18.7 2.9 28.7 4.3-4-2-7.9-4-11.6-6.2-8.9-5-17.2-10.7-25-17.3-3.9-3.3-7.6-7-10.9-10.9-3.5-4-6.4-8.4-8.8-13.1-2.5-4.8-4.1-10.1-4.9-15.5-.4-2.7-.4-5.5-.2-8.3s.7-5.5 1.4-8.2c.1-.3.2-.6.3-.8.7-1.5 2.3-2.4 3.9-2.4.7 0 1.4.2 2 .5 12.5 6.4 25.4 12.6 37.8 18.7l2.8 1.4 15.5 7.5c-2.8-2.4-5.5-4.9-8-7.5-4.7-4.7-9-9.8-12.8-15.1-3.9-5.4-7.3-11.2-10-17.4-2.7-6.2-4.7-12.7-5.8-19.3-.6-3.3-.9-6.7-1-10.1s0-6.8.4-10.2c.3-3.4.9-6.7 1.6-10 .8-3.3 1.7-6.6 2.8-9.8.4-1 .8-2 1.1-3-2.8-1.5-5.6-3.1-8.9-5.1-4.1-2.5-8.2-5-12-7.6-7.9-5.3-15.6-11.1-22.9-17-14.8-12.1-28.2-25.8-39.9-40.8-11.8-15.2-21.4-32-28.3-49.9-5.4-14.1-8.8-28.9-10.3-43.9-4.2 6.1-8.1 12.4-11.7 18.9-5.6 10-10.2 20.5-13.5 31.5-1.6 5.4-2.9 11-3.7 16.6-.8 5.5-1.1 11.2-.9 16.8.2 5.6.9 11.2 2.3 16.7 1.3 5.5 3.2 10.9 5.5 16 4.9 10.3 11.4 19.7 19.4 27.9 8 8.3 16.9 15.6 26.6 21.9s19.9 11.9 30.5 16.6c5.3 2.4 10.7 4.6 16.1 6.6 6.2 2.3 11.6 4 16.5 5.4 1.3.3 2.1 1.6 1.8 3-.3 1.1-1.2 1.9-2.4 1.9h-.5c-3.8-.5-7.6-1.1-11.4-2-3.6-.8-7.3-1.8-11.1-2.9-7.3-2.2-14.5-4.8-21.5-7.8-28.2-12.3-52.9-31.5-71.7-55.8-2.2-2.8-4.4-5.8-6.8-9.3s-4.4-6.6-6.2-9.7-3.8-6.4-5.7-10c-.6-1.1-1.2-2.3-1.8-3.6-4.3 5.9-8 12.3-11 18.9-2 4.4-3.5 8.9-4.6 13.6-1.1 4.6-1.6 9.3-1.6 14.1.1 9.5 2.5 18.9 7.1 27.2 4.7 8.5 10.8 16.2 18 22.7 7.3 6.7 15.2 12.7 23.6 17.9 8.5 5.3 17.2 10 26.3 14.2 8.7 4.1 18 7.9 27.7 11.4 4.7 1.7 9.5 3.3 14.2 4.8 5.5 1.7 10.1 3 14.4 4.1 1.2.3 2 1.5 1.8 2.7-.2 1.1-1.2 1.9-2.3 1.8h-.4c-5.7-1-11.9-2.3-19.2-4.1-6.3-1.5-12.7-3.3-19-5.1-12.6-3.7-24.9-8.2-37-13.4-12.2-5.2-23.8-11.4-34.9-18.6-9.5-6.1-18.2-13.3-26.1-21.4-1.1 2.1-2 4.2-2.9 6.1-1.7 3.9-2.9 7.9-3.8 12-1.8 8.1-1.6 16.6.7 24.6 2.6 8.1 6.9 15.5 12.6 21.7 5.8 6.4 12.4 12.1 19.7 16.9 7.3 4.9 15 9.2 22.9 13 7.6 3.6 15.8 7 24.6 10.2 8.1 2.9 16.6 5.6 25.4 8 4.4 1.2 8.7 2.3 12.9 3.3 5.1 1.2 9.2 2.1 13 2.8.2 0 .4.1.5.1 1.2.5 1.8 1.9 1.3 3.1-.2.5-.6.9-1 1.2-.1.1-.3.2-.5.2-.2.1-.3.1-.5.1h-1.6l-1.2-.1-2.4-.3-4.7-.6c-3.1-.4-6.2-.9-9.3-1.4-5.8-.9-11.9-1.9-18.5-3.1-12.6-2.2-25-4.6-36.9-7.1-14.1-3-25.7-5.7-36.6-8.6-6.8-1.8-12.8-3.5-18.2-5.3-3.6-1.6-7.8-3-12.2-4.8m295.5 175.9c0-2.5 2-4.5 4.5-4.5h95.7l-2-1c-6.1-3.2-11.5-7.5-16.1-12.6-4.7-5.4-7.7-12-8.8-19-.9-6.9-.2-14 1.9-20.6 2-6.5 4.8-12.7 8.2-18.6 3.3-5.8 7-11.4 11-16.7 1.9-2.3 3.4-4.9 4.6-7.7 1.1-2.6 1.7-5.4 1.7-8.3.1-5-1.6-10.5-5.3-16.6-3.3-5.3-7.2-10.3-11.5-14.9-4.7-5.1-9.8-9.9-13.7-13.6-4.8-4.5-9.8-9-14.6-13.3s-9.6-8.7-14.4-13.1c-9.7-8.9-19-18.3-27.7-28.3-4.5-5.2-8.6-10.5-12.3-15.7-1.8-2.6-3.7-5.4-5.5-8.3v.1c-1 3.2-1.6 6.5-2.2 9.6-.6 3.2-1 6.5-1.2 9.8-.3 3.3-.3 6.6-.2 9.8.5 13.2 3.9 26.1 10 37.9 6.3 11.8 14.4 22.6 24.2 31.7 4.9 4.7 10 9 15.5 13 2.8 2.1 5.6 4 8.3 5.7 3.3 2.1 6.1 3.7 8.7 5.1 1.2.7 1.7 2.2 1.1 3.4-.4.8-1.3 1.4-2.2 1.4-.3 0-.7-.1-1-.2-5.7-2.3-11.6-4.5-18.3-6.8s-12.8-4.3-18.5-6c-3.1-.9-6.3-1.8-9.3-2.6-3.3-.9-6.4-1.6-9.4-2.2-1.5-.3-3-.6-4.7-.9-1.5-.2-3.1-.5-4.6-.6-1.8-.2-3.2-.3-4.6-.3h-1c-.3 2-.3 4-.1 5.9.3 3.1 1.3 6.1 2.8 8.8 2.7 5 7.2 10 13.4 14.6 5.7 4.1 11.8 7.6 18.2 10.4 3.2 1.4 6.5 2.8 9.8 4 3.7 1.3 7 2.4 10.2 3.3 1.4.4 2.1 1.8 1.8 3.2-.3 1.1-1.2 1.8-2.3 1.8-4.9.3-10.1.8-15.6 1.4-5.6.6-10.7 1.3-15.5 2.1-5.9 1-10.7 2-15.1 3.1-2.4.6-4.8 1.4-7.1 2.3-1.1.4-2.2.9-3.2 1.4l-.4.2c.4 1.5 1 2.9 1.8 4.2 1.4 2.3 3.1 4.3 5.1 6 4.4 3.7 9.4 6.6 14.8 8.7 5.5 2.3 11.2 4.2 17 5.6 2.8.7 5.8 1.4 8.8 2 3.3.6 6.2 1.1 8.9 1.4 1.3 0 2.4 1.1 2.3 2.5 0 1.1-.8 2-1.9 2.3h-.1c-10.7 2.5-20.5 5.1-29.9 7.9-5.7 1.7-10.4 3.2-14.6 4.7-2.8 1-5 1.9-7 2.7-1.3.6-2.3 1-3.3 1.5-.2.1-.5.2-.7.4.1 2.7.4 5.3.9 7.9.1.8.3 1.6.6 2.5s.5 1.7.7 2.4c.3.9.6 1.7.9 2.3s.7 1.5 1.1 2.2c1.7 2.8 4 5.2 6.8 6.9 1.5.9 3.1 1.7 4.7 2.3l-.1-14zm100.8-339.4l3.4-.4c6.5-.9 13.1-1.5 19.7-1.9-.4-21.9-3.2-44.3-16.6-55.3l-7.3-6c-6.5.5-12.5 3.8-16.4 9.1-16.9 21.9 5.8 45 17.2 54.5m85.3.1c11.4-9.5 34.2-32.6 17.3-54.7-4-5.4-10.2-8.8-16.9-9.1l-7.3 6c-13.3 11-16.2 33.4-16.6 55.3 6.6.4 13.1 1.1 19.6 1.9l3.9.6zm-42.9-83c-4.7 0-8.5 3.8-8.5 8.5s3.8 8.5 8.5 8.5 8.5-3.8 8.5-8.5-3.8-8.5-8.5-8.5"/><path class="st0" d="M425.8 302.5a281.93 281.93 0 0126 0c.5-24.3 4-47.6 18.9-59.9l-20 6.4-3.4-6c-5.1 3.7-12 3.7-17.1 0l-3.4 6-20-6.4c15 12.3 18.5 35.6 19 59.9m6.6-87h12.8l-2.2-9 9 2.2v-12.8l-9 2.1 2.2-9h-12.8l2.2 9-9-2.1v12.8l9-2.2zm385.8 94c-15.8-1.3-31.6-1.3-47.4 0l-2.8.2c-4.1.4-8.3.8-12.4 1.3v9.7c25 3.2 48 3.8 77.2 2.9V311c-4.1-.5-8.3-1-12.4-1.3l-2.2-.2m14.6-4.8l3.4.5c11.4-9.5 34.1-32.6 17.2-54.6-3.9-5.3-9.9-8.6-16.4-9.1l-7.3 6c-13.3 11-16.2 33.4-16.6 55.3 6.6.4 13.2 1.1 19.7 1.9m-75-57.2l-7.3-6c-6.7.3-12.9 3.7-16.9 9.1-16.9 22.1 5.9 45.2 17.3 54.7l3.9-.5c6.5-.9 13.1-1.5 19.7-1.9-.5-21.9-3.3-44.4-16.7-55.4m44.5-16.7c0-4.7-3.8-8.5-8.5-8.5s-8.5 3.8-8.5 8.5 3.8 8.5 8.5 8.5 8.5-3.8 8.5-8.5"/><path class="st0" d="M802.3 242.9c-5.1 3.7-12 3.7-17.1 0l-3.4 6-20-6.4c14.9 12.3 18.4 35.6 18.9 59.9a281.93 281.93 0 0126 0c.5-24.3 4-47.6 18.9-59.9l-20 6.4-3.3-6zm-14.9-27.4h12.8l-2.2-9 9 2.2v-12.8l-9 2.1 2.2-9h-12.8l2.2 9-9-2.1v12.8l9-2.2zm-273.5-94.3l-9.1-4.2.2 10 9.1 4.2zm196.2 87.9c0-16.2-42.3-29.5-94.1-29.5s-94.1 13.3-94.1 29.5v24.4c16.2-14.5 55.3-22 94.1-22s77.9 7.5 94.1 22v-24.4zm-45.6-81.3c7.8-33.6 34.7-50.8 61.2-56.8-28.3-5.9-62.4 8.4-73.5 26.7-5.7 9.5-10 21.3-13.2 31.9 7.8-3 16.3-3.6 25.5-1.8m-97.5 0c9.4-1.8 18-1.1 25.8 1.8-3.2-10.6-7.4-22.5-13.1-32C568.6 79.3 534.4 65 506 71c26.4 6.1 53.2 23.2 61 56.8"/><path class="st0" d="M554.2 256.3c1.9-10.1 3-20.3 3-30.5-15.7 4-27.3 9.5-32.4 15.8 4.8 5.7 15.6 10.8 29.4 14.7m73.2 7.7c-3.3-14.5-5.2-29.2-5.8-44.1v-.6c-1.9 0-3.7-.1-5.6-.1-1.7 0-3.4 0-5.1.1v.6c-.6 14.8-2.6 29.6-5.9 44.1 3.7.2 7.3.3 11 .3 3.8 0 7.7-.1 11.4-.3m79.8-22.5c-5-6.2-16.5-11.7-31.9-15.6 0 10.1 1 20.3 2.9 30.2 13.6-3.8 24.2-8.9 29-14.6M598.1 69c0 9.4 7.6 16.9 17 16.9s16.9-7.6 16.9-17c0-9.3-7.6-16.9-16.9-16.9-9.4 0-17 7.6-17 17m6.4-24.7h21.1l-6.2-17.9 17.8 6.3V11.5l-17.8 6.3L625.6 0h-21.1l6.3 17.8-17.9-6.3v21.2l17.9-6.3zM728.1 117l-9.1 4.2-.2 10 9.1-4.2zm-230.8 15l-.1-4.9-.2-10-.2-12.4 11.3 5.2 9.1 4.2 4.4 2.1.1 4.9.2 10 .2 12.4-11.3-5.2-9.1-4.2zm27.2 41.7c0 3.2-2.6 5.8-5.8 5.8s-5.8-2.6-5.8-5.8 2.6-5.8 5.8-5.8 5.8 2.6 5.8 5.8zm22.8-17.8c3.2 0 5.8 2.6 5.8 5.8s-2.6 5.8-5.8 5.8-5.8-2.6-5.8-5.8c-.1-3.2 2.5-5.8 5.8-5.8-.1 0 0 0 0 0zm30.1-7c3.2 0 5.8 2.6 5.8 5.8s-2.6 5.8-5.8 5.8-5.8-2.6-5.8-5.8c-.1-3.1 2.5-5.8 5.8-5.8zm78.1 0c3.2 0 5.8 2.6 5.8 5.8s-2.6 5.8-5.8 5.8-5.8-2.6-5.8-5.8c0-3.1 2.6-5.8 5.8-5.8zm30.2 7c3.2 0 5.8 2.6 5.8 5.8s-2.6 5.8-5.8 5.8-5.8-2.6-5.8-5.8c-.1-3.2 2.5-5.8 5.8-5.8-.1 0-.1 0 0 0zm28.5 12c3.2 0 5.8 2.6 5.8 5.8s-2.6 5.8-5.8 5.8-5.8-2.6-5.8-5.8c0-3.2 2.6-5.8 5.8-5.8z"/><path class="st0" d="M711 131.1l.2-10 .1-4.9 4.4-2.1 9.1-4.2 11.3-5.2-.2 12.4-.2 10-.1 4.9-4.4 2.1-9.1 4.2-11.3 5.2z"/><path class="st0" d="M518.4 197.5c13.3-16.9 55.6-25.7 97.5-25.7s84.2 8.8 97.5 25.7c18.4-15.1 70.9-63.5 44.3-105-4.2-6.7-10.1-12.2-17-16-29.7 2.4-62.5 18.3-69.4 56.6l-.7 4.1-4-1c-11.8-3-21.7-1.9-30.3 3.2-2 7.8-3.3 14-4.1 16.6-2 6.9-8.8 11.5-16.3 11.5-7.4 0-13.9-4.6-16.3-11.6-.8-2.5-2.1-8.6-4.1-16.4-8.7-5.3-18.7-6.4-30.6-3.4l-4 1-.7-4.1c-6.9-38.1-39.5-54-69.2-56.5-6.9 3.8-12.8 9.3-17 16-26.5 41.5 26 89.9 44.4 105z"/><path class="st0" d="M606.4 150.2c0 5.3 4.3 9.6 9.6 9.6s9.6-4.3 9.6-9.6-4.3-9.6-9.6-9.6-9.6 4.3-9.6 9.6m-2.3-12.6c6.6-6.3 17-6.3 23.7 0 3.7-15.5 9.7-30.3 17.8-44 .3-.5.7-1 1-1.5-.8-5.5-4.2-10.3-9-13-5.6 12.4-20.1 18-32.6 12.5-5.6-2.5-10-6.9-12.5-12.5-4.2 2.4-7.3 6.3-8.5 11 .8 1.1 1.6 2.3 2.3 3.5 8.1 13.6 14.1 28.5 17.8 44m375.8 107.9c-10.4-2.9-16.5-5.1-31.5-9.5 17.8 48.4-11 78.7-52.7 109.2 7.6 8.1 21 10.8 29.1 15.5 39-22.2 71.3-73.1 55.1-115.2M274 342.8c-7.6-7-14.3-15-19.7-23.8-33.1.4-77.4-32.3-111.9-11.8l7.8 26.3c37.4-16 70.6 22.7 123.8 9.3m21.9-47c4.7 7.5 11.3 14.6 19.7 21.6 18.7-25.4 14.1-74.8-22.8-80.9l-.8 2.2c-2.6 6.8-4.2 13.8-4.9 21 10.5 9.3 13.2 23.6 8.8 36.1m662.7 47c53.2 13.4 86.4-25.3 123.8-9.3l7.8-26.3c-34.5-20.5-78.8 12.2-111.9 11.8-5.4 8.8-12 16.9-19.7 23.8"/><path class="st0" d="M936.7 295.8c-4.4-12.5-1.7-26.9 8.8-36.2-.7-7.2-2.4-14.2-4.9-21l-.8-2.2c-36.9 6.1-41.5 55.6-22.8 80.9 8.5-6.9 15-14.1 19.7-21.5m-269.2-71.5c-10.8-2.1-23.9-4.3-38.1-4.8 3.2 72.9 28.6 117.4 79 142.7-26.2-15.9-23.5-44-18.5-63.1-7.7-14.9-22.4-27.1-22.4-74.8m-268.4 99.3c29.2.9 52.2.4 77.2-2.9V311c-4.1-.5-8.3-1-12.4-1.3l-2.8-.2c-15.8-1.3-31.6-1.3-47.4 0l-2.2.2c-4.1.4-8.3.8-12.4 1.3v12.6zm-92 37.1c8.2-4.8 21.5-7.4 29.1-15.5-41.7-30.5-70.5-60.8-52.7-109.2-14.9 4.5-21.1 6.6-31.5 9.5-16.2 42.1 16 93 55.1 115.2m216.4 1.5c50.4-25.4 75.8-69.8 79-142.7-14.2.5-27.3 2.7-38.1 4.8-.1 47.7-14.7 59.8-22.4 74.9 5 19 7.7 47.2-18.5 63m459.6 717.7c-1.2.1-.5-35.3-.4-37.4 2.5-32.7 17.2-62.5 37.5-88.4 18.8-24 90.3-64.7 93.7-61.2 10.4 10.5 3.8 38.7-4.5 69.8-11.1 41.5-26 61.5-55.2 82.7s-71.1 34.5-71.1 34.5zm-19.8 12.3c8.7-5.7 9.5-27.9 10.9-36.5 2.5-16.4 2.6-33.5-2.2-49.5-12.1-40.4-38.4-72.8-38.4-72.8s-1 49.5 0 96c.3 15.7 1.3 31.5 4.4 46.9 2.3 11.7 9.5 20.6 23 16.9.8-.2 1.6-.6 2.3-1zm14.1 257c4.3-15.6 10.2-30.8 17.5-45.3 18.3-37.5 91-97.6 102.4-103.9 8.2-4.5-4.3 70.4-7.8 81.7-7.5 24.7-16.2 49-29.7 70.9-15.8 25.6-48.1 35.5-77.5 37.7l-13.5 1s5.2-28.3 7-36.1c.6-2 1.1-4 1.6-6zm-89.2 18.6c7.1-31.3 12.8-48.6 39.7-76.7 29.1-30.4 44.1-51.9 47.9-34.4s-8 89.8-18.8 111.1c-9.9 19.6-21.5 38.4-35.7 55.2-3.5 4.2-38.2 42.6-41.9 38.8-2.9-2.9 1.8-62.6 8.8-94zm72.5 119.1s47.1 35.8 68 33.2c20.9-2.7 16.2-20.2 0-30.3s-22-8.5-38.4-6.7c-13.2 1.4-29.6 3.8-29.6 3.8zm-67.3-24.4c.4-7.8 59.2-50.1 109.8-64.9 12.7-3.7 26-6.9 39.4-7.9 6.8-.5 26.4-2.4 33.1-1.9 3.9.3-3.5 16.7-5 20.7-19.3 51.3-83.3 74.8-134.2 63.9-4.5-1-8.9-2.4-13.4-3.4-2-.5-4-.9-6-1.3-11.6-2-23.7-5.2-23.7-5.2zm109.9 92.5c2.1.3 4.1.6 6.2.7 9.8.7 23.8 3.3 33.2-.1 3.8-1.4-102.6-66.2-124.1-75.8-10.8-4.8-22.9-6.5-33.2.3-12 8-19.8 28.2-7.5 39.6 3.7 3.4 8.8 4.7 13.7 5.8 22.3 5.2 44.5 10.2 66.5 16.8 14.9 4.5 29.6 10.3 45.2 12.7zm-35.1 7.1c-.4-.5-.8-.9-1.2-1.3-9.9-9.5-26.5-15.6-39.7-18.9-24-6.1-43.8-11.1-50.1 4s4.9 23.6 26.6 23.6c11.7 0 23.3.9 35 1.4 5.9.2 29.8 4.5 30.6-5.6 0-1.2-.4-2.4-1.2-3.2z"/><path class="st0" d="M933.1 1120.6c28.2-15.2 57.2-28.8 87-40.7 16.4-6.5 31.9-14.9 46.4-25 7.2-5 14.1-10.5 20.6-16.4 1.7-1.6 15.7-16.6 16.8-9.6 1 6.4-.4 13.7-.9 20-.9 12.6-2 25.1-3 37.7-.8 10.1-1.7 20.2-2.4 30.3-.7 8.8-1.7 17.6-1.5 26.4.1 5.6.6 11.2.5 16.9s-.3 11-.6 16.5c0 .7.2 7.5-.4 7.8 0 0-33.4 16.2-59.2 27s-53.4 23.6-74.3 33.7-29 22.2-29 22.2v-146.8zm49.7-150h-.6c-9-.6-19.3-10.4-20.1-19.5-1-11.8 7.8-22.2 20.5-20.5s22.2 10.9 19.5 20.3-8.1 20.1-19.3 19.7z"/><path class="st0" d="M998 1269.9h-.4c-7.1-.5-15.2-8.2-15.8-15.3-.8-9.3 6.1-17.5 16.2-16.2s17.5 8.6 15.4 16-6.6 15.8-15.4 15.5zm-759.2-191.7c1.2.1.5-35.3.4-37.4-2.5-32.7-17.2-62.5-37.5-88.4-18.8-24-90.3-64.7-93.7-61.2-10.4 10.5-3.8 38.7 4.6 69.8 11.1 41.5 26 61.5 55.2 82.7 29 21.2 71 34.5 71 34.5zm19.8 12.2c-8.7-5.7-9.6-27.9-10.9-36.5-2.5-16.4-2.6-33.5 2.2-49.5 12.1-40.4 38.4-72.8 38.4-72.8s1 49.5 0 96c-.3 15.7-1.3 31.5-4.4 46.9-2.4 11.7-9.5 20.6-23 16.9-.8-.2-1.6-.5-2.3-1zm-14.1 257.1c-4.4-15.6-10.2-30.8-17.5-45.3-18.4-37.5-91-97.6-102.4-103.9-8.2-4.5 4.3 70.4 7.8 81.7 7.5 24.7 16.2 49 29.7 70.9 15.8 25.6 48.1 35.5 77.4 37.8l13.5 1s-5.2-28.3-7-36.1c-.5-2.1-1-4.1-1.5-6.1zm89.1 18.6c-7.1-31.3-12.8-48.6-39.7-76.7-29.1-30.4-44.1-51.9-47.9-34.4s8 89.8 18.8 111.1c9.9 19.6 21.5 38.4 35.6 55.2 3.5 4.2 38.2 42.6 41.9 38.8 3.1-2.9-1.6-62.6-8.7-94zm-72.4 119.1s-47.1 35.8-68 33.2-16.2-20.2 0-30.3 22-8.5 38.4-6.7c13.2 1.4 29.6 3.8 29.6 3.8zm67.3-24.4c-.4-7.8-59.2-50.1-109.8-64.9-12.7-3.7-26-6.9-39.4-7.9-6.8-.5-26.4-2.4-33.1-1.9-3.9.3 3.5 16.7 5 20.7 19.3 51.3 83.3 74.8 134.2 63.9 4.5-1 8.9-2.4 13.4-3.4 2-.5 4-.9 6-1.3 11.6-2 23.7-5.2 23.7-5.2zm-109.9 92.5c-2.1.3-4.1.6-6.1.7-9.8.7-23.8 3.3-33.2-.1-3.8-1.4 102.6-66.2 124.1-75.8 10.8-4.8 22.9-6.5 33.2.3 12 7.9 19.8 28.2 7.5 39.6-3.7 3.4-8.8 4.7-13.7 5.8-22.3 5.2-44.5 10.2-66.5 16.8-15 4.5-29.8 10.3-45.3 12.7zm35.1 7.1c.4-.5.8-.9 1.3-1.4 9.9-9.5 26.5-15.6 39.6-18.9 24-6.1 43.8-11.1 50 4.1s-4.9 23.6-26.6 23.6c-11.7 0-23.3.9-35 1.4-5.9.2-29.8 4.5-30.6-5.6.1-1.2.5-2.4 1.3-3.2z"/><path class="st0" d="M288.8 1118.9c-28.2-15.2-57.2-28.8-87-40.7-16.4-6.5-31.9-14.9-46.4-25-7.2-5-14.1-10.5-20.6-16.4-1.7-1.6-15.7-16.6-16.8-9.6-1 6.4.4 13.7.9 20 .9 12.6 2 25.1 3 37.7l2.4 30.3c.7 8.8 1.7 17.6 1.5 26.4-.1 5.6-.6 11.2-.5 16.9.1 5.5.3 11 .6 16.5 0 .7-.2 7.5.5 7.8 0 0 33.4 16.2 59.2 27s53.4 23.6 74.3 33.7 29 22.2 29 22.2l-.1-146.8zm-49.7-150h.6c9-.6 19.3-10.4 20.1-19.5 1-11.8-7.8-22.2-20.6-20.5s-22.2 10.9-19.5 20.3 8.1 20.1 19.4 19.7zm-15.2 299.3h.4c7.1-.5 15.2-8.2 15.8-15.3.8-9.3-6.1-17.5-16.2-16.2s-17.5 8.6-15.4 16 6.5 15.8 15.4 15.5z"/><path d="M582.5 636.4c.2-1.4.5-2.8.7-4.1.1-.6.2-1.3.4-2 .2-1.2-.6-2.3-1.7-2.5h-.4c-.3 0-.7.1-1 .2-3.9 2-7.4 4.6-10.5 7.7-1.4 1.4-2.8 2.9-4.3 4.5h16.2c.2-1.3.4-2.6.6-3.8zm80.1-.8c-3.1-3.1-6.6-5.6-10.4-7.6-.3-.2-.7-.3-1.1-.3h-.4c-.6.1-1.1.4-1.4.9-.3.5-.5 1.1-.3 1.7.1.6.2 1.3.4 1.9.3 1.3.5 2.7.7 4.1.2 1.2.4 2.5.6 3.7h16.2c-1.4-1.5-2.8-3-4.3-4.4zm51.9-7.6c-.4-.6-1.1-.9-1.8-1-.2 0-.5 0-.7.1-.6.2-1 .6-1.3 1.1s-.3 1.2-.1 1.7l.7 1.9c.4 1.1.8 2.3 1.1 3.5l.1.2c.5 1.5.9 3 1.3 4.5h10.4c-3.3-3.7-6.6-7.7-9.7-12zm-194.4 7.6l.1-.2c.3-1.2.7-2.3 1.1-3.4l.7-2c.4-1.1-.2-2.4-1.4-2.8-.2-.1-.5-.1-.7-.1-.7 0-1.4.3-1.8.9-3.1 4.3-6.4 8.3-9.7 12.1h10.4c.4-1.5.8-3 1.3-4.5z" fill="none"/><path class="st0" d="M518.1 628c.7-.9 2-1.2 3-.5.8.5 1.2 1.6.9 2.5l-.7 2c-.4 1.1-.8 2.3-1.1 3.4l-.1.2c-.5 1.5-.9 3-1.3 4.5h46.9c1.5-1.6 2.9-3.1 4.3-4.5 3.1-3.1 6.6-5.7 10.5-7.7.3-.2.7-.3 1-.2 1.2 0 2.2 1 2.2 2.1v.4c-.1.7-.3 1.4-.4 2-.3 1.3-.5 2.7-.7 4.1s-.4 2.5-.6 3.8h31.3l.8-45.3h-.3c-.9-.1-1.9-.2-2.8-.4h-.2l-2.8-.8-2.7-1.1-2.4-1.4c-.6-.4-1.1-.8-1.6-1.1l-.6-.5c-1.4-1.1-2.8-2.3-4-3.6-.5-.5-1.1-1.1-1.6-1.7l-.2-.2c-.5-.6-1.1-1.3-1.7-2-1-1.2-1.9-2.5-2.8-3.8l-.2-.3-.4-.6c-.8-1.2-1.5-2.4-2.2-3.6s-1.3-2.3-1.9-3.4l-.5-.9c-3-5.8-5.5-11.8-7.7-17.9-.8-2.1-1.5-4.3-2.2-6.5l-.2 2.7c-.1 2.4-.3 4.7-.4 7-.5 7.5-1 14.8-2 22.2-.6 4.2-1.2 7.8-2 11.2-.4 1.9-.9 3.8-1.5 5.6s-1.2 3.7-2 5.5c-.3.6-.6 1.2-.9 1.9l-.4.9-.5 1c-.3.6-.7 1.2-1 1.8l-.3.4c-.5.8-1 1.5-1.5 2.2-.6.9-1.3 1.7-2 2.4-.6.7-1.2 1.3-1.9 1.8l-.5.4-.7.5c-.7.5-1.4 1-2.1 1.4-1.9 1.1-4 2-6.1 2.6-.4.1-.8.2-1.2.2-.8 0-1.7-.3-2.4-.8h-.1c-1.4-1-2.6-2.3-3.6-3.7-.4-.5-.7-1-.9-1.6l-.3-.6-.3-.7c-.2-.5-.4-1.1-.6-1.7-.4-1.4-.7-2.8-.8-4.3-.1-1.3-.2-2.6-.2-4.1 0-1.8.1-3.5.2-5.2l.1-2.3c0-1.2.1-2.4.1-3.5s0-2.4-.1-3.4c-.1-1.1-.2-2.2-.4-3.3s-.4-2.2-.7-3.2-.7-2.1-1.1-3c-.1-.1-.2-.3-.2-.5s-.3-.6-.5-.9l-.8-1.5-.9-1.3c-.2-.3-.4-.5-.6-.8l-.4-.5c-.3-.4-.6-.7-.9-1l-.5-.5c-.3-.3-.6-.6-.9-.8l-1.4-1.3-1.7-1.3c-1.6 4.5-3.4 8.8-5.5 13-2.6 5.1-5.4 10.1-8.5 14.9-3.1 4.8-6.6 9.5-10.4 13.8-3.4 3.9-7.2 7.4-11.3 10.5-.5 1-1 1.9-1.5 2.8-1.1 1.8-2.4 3.4-3.8 5-1.4 1.5-2.8 3-4.4 4.3s-3.3 2.6-5 3.7c-.7.5-1.6 1.1-2.6 1.6-.7.5-1.6.9-2.7 1.5-1.8.9-3.7 1.8-5.6 2.5l-3.3 1.2h44.8c3.3-3.4 6.6-7.4 9.7-11.7zm132 8.4c-.2-1.4-.5-2.8-.7-4.1-.1-.6-.2-1.3-.4-1.9-.1-.6 0-1.2.3-1.7s.8-.8 1.4-.9h.4c.4 0 .7.1 1.1.3 3.9 2 7.4 4.6 10.4 7.6 1.4 1.4 2.9 2.9 4.3 4.5h46.9c-.4-1.5-.9-3-1.3-4.5l-.1-.2c-.4-1.2-.8-2.3-1.1-3.5l-.7-1.9c-.2-.6-.2-1.2.1-1.7s.7-.9 1.3-1.1c.2-.1.5-.1.7-.1.7 0 1.4.4 1.8 1 3.1 4.2 6.3 8.3 9.7 12.1H769l-3.3-1.2c-1.9-.8-3.8-1.6-5.6-2.5-1.1-.5-1.9-1-2.7-1.5-1-.5-1.9-1.2-2.6-1.6-1.7-1.1-3.4-2.4-4.9-3.7-1.6-1.4-3.1-2.8-4.5-4.4-1.4-1.6-2.6-3.2-3.7-5-.6-.9-1.1-1.8-1.5-2.8-4.1-3.1-7.9-6.7-11.3-10.5-3.8-4.3-7.3-8.9-10.4-13.8-3.1-4.8-6-9.8-8.5-14.9-2.1-4.2-4-8.6-5.5-13l-1.8 1.3-1.3 1.1-.9.9-.5.5c-.3.3-.6.6-.9 1l-.4.5c-.2.2-.4.5-.6.8l-1 1.4-.8 1.4c-.2.3-.3.6-.4.9s-.2.4-.3.6c-.4 1-.8 2-1.1 3s-.5 2.1-.7 3.2c-.2 1.1-.3 2.2-.4 3.3-.1 1-.1 2.2-.1 3.4s0 2.3.1 3.5l.1 2.3c.1 1.7.2 3.4.2 5.2 0 1.5 0 2.8-.2 4-.1 1.5-.4 3-.8 4.4-.1.5-.3 1.1-.5 1.6l-.3.7-.3.6c-.3.6-.6 1.1-1 1.7-1 1.4-2.2 2.6-3.5 3.6l-.1.1c-.7.5-1.5.8-2.4.8-.4 0-.8-.1-1.2-.2-2.2-.6-4.2-1.5-6.2-2.6-.7-.4-1.4-.9-2-1.4l-.7-.5-.5-.4c-.7-.6-1.3-1.2-2-1.8-.7-.8-1.4-1.6-2.1-2.5l-1.5-2.1-.3-.4c-.4-.6-.7-1.2-1-1.8l-.5-.9-.5-1c-.3-.6-.6-1.2-.8-1.9-.8-1.8-1.4-3.7-2-5.6-.6-1.8-1.1-3.7-1.5-5.6-.8-3.3-1.4-7-2-11.2-1-7.5-1.5-14.8-2-22.3-.1-2.3-.3-4.7-.4-7l-.2-2.7c-.7 2.2-1.5 4.4-2.2 6.5-2.2 6.1-4.7 12.1-7.7 17.9l-.5.9c-.6 1.1-1.2 2.3-1.9 3.4s-1.5 2.4-2.2 3.6l-.4.6-.2.3c-.9 1.3-1.8 2.6-2.8 3.8-.5.7-1.1 1.4-1.6 2l-.2.2c-.5.6-1 1.2-1.6 1.7-1.2 1.3-2.5 2.4-3.9 3.5l-.7.5c-.5.4-1 .7-1.5 1.1l-2.5 1.4-2.7 1.1-2.8.8h-.1c-1 .1-1.9.3-2.8.4h-.3l.8 45.3h31.3c-.2-1.4-.3-2.7-.6-3.9zm183.5 22.1H319.3v602.3c.1 35.6 35.1 64.4 78.3 64.3h67.9c20.7 0 41.4 2 61.7 5.9 41.9 8.4 71.2 25 85 48 13.4-23 42.6-39.6 84.6-48 20.5-3.9 41.4-5.9 62.3-5.9h67.7c43.1.1 78.2-28.7 78.3-64.3V658.5h-71.5zm64.1 601.7l-.2.8v2.2l-.2 2v1l-.3 2-.2 1-.5 2-.2 1.1c-5.2 20.3-22.9 36.9-46.7 43.7-7.1 2-14.5 3-21.8 3h-70.1l-6.8.1c-31.9.5-63.5 6.2-93.6 16.9-8.2 3.1-16.1 6.9-23.6 11.4l-2.7 1.7-1.6 1.1c-.4.2-.7.4-1 .7l-2.5 1.8-2.5 1.8c-3.3 2.5-6.4 5.2-9.4 8.2-.5.5-1.2.8-1.9.8-.5 0-1-.2-1.4-.5l-.3-.1a126.36 126.36 0 00-43.3-26.8c-8.3-3.2-16.8-5.9-25.5-8l-2.4-.5-4.3-1-2.4-.5-4.3-.9-1.8-.3-5-.9-6.8-1.1c-13.6-2.2-27.3-3.3-41.1-3.6l-6.9-.1h-70.8l-3-.1h-.2l-3.5-.3c-24.9-2.7-46.4-15.9-56.6-34.9-3.8-7.3-5.7-15.4-5.6-23.7l-.2-354.9v-7l-.1-230.3c0-1.8 1.9-3.4 4.1-3.4h563.1c2.2 0 4.2 1.6 4.2 3.4l-.1 230.3v361.9zm-427.3 280.1c-4.2-1.7-33.9-9.6-59.5-11.8s-41.1 3.4-42.9 11.8c-3.6 17.3 25.1 31.2 38 32.9 14.7 1.9 33.2.5 45.2-8.9 1.6-1.2 12.7-10.2 17.9-16.9 2.6-3.3 3.7-6.1 1.3-7.1zm338.4-11.8c-25.6 2.2-55.3 10.1-59.5 11.8-2.4 1-1.3 3.8 1.3 7.2 5.2 6.7 16.3 15.6 17.9 16.9 12 9.4 30.5 10.8 45.2 8.9 12.9-1.7 41.6-15.7 38-32.9-1.9-8.5-17.3-14.1-42.9-11.9z"/><path class="st0" d="M730.3 1361.6s-55.2-3.3-71 9.7-17.7 19.9-17.7 19.9 25.6-10.2 44.3-15 44.4-14.6 44.4-14.6zm-171.9 29.5s-2-6.9-17.7-19.9-71-9.7-71-9.7 25.6 9.8 44.3 14.6c18.7 4.8 44.4 15 44.4 15zM323.5 876.6h577.9v8.5H323.5z"/><path class="st0" d="M833.6 658.5H319.3v602.3c.1 35.6 35.1 64.4 78.3 64.3h67.9c20.7 0 41.4 2 61.7 5.9 41.9 8.4 71.2 25 85 48 13.4-23 42.6-39.6 84.6-48 20.5-3.9 41.4-5.9 62.3-5.9h67.7c43.1.1 78.2-28.7 78.3-64.3V658.5h-71.5zm64.1 601.7l-.2.8v2.2l-.2 2v1l-.3 2-.2 1-.5 2-.2 1.1c-5.2 20.3-22.9 36.9-46.7 43.7-7.1 2-14.5 3-21.8 3h-70.1l-6.8.1c-31.9.5-63.5 6.2-93.6 16.9-8.2 3.1-16.1 6.9-23.6 11.4l-2.7 1.7-1.6 1.1c-.4.2-.7.4-1 .7l-2.5 1.8-2.5 1.8c-3.3 2.5-6.4 5.2-9.4 8.2-.5.5-1.2.8-1.9.8-.5 0-1-.2-1.4-.5l-.3-.1a126.36 126.36 0 00-43.3-26.8c-8.3-3.2-16.8-5.9-25.5-8l-2.4-.5-4.3-1-2.4-.5-4.3-.9-1.8-.3-5-.9-6.8-1.1c-13.6-2.2-27.3-3.3-41.1-3.6l-6.9-.1h-70.8l-3-.1h-.2l-3.5-.3c-24.9-2.7-46.4-15.9-56.6-34.9-3.8-7.3-5.7-15.4-5.6-23.7l-.2-354.9v-7l-.1-230.3c0-1.8 1.9-3.4 4.1-3.4h563.1c2.2 0 4.2 1.6 4.2 3.4l-.1 230.3v361.9z"/><path class="st0" d="M323.5 876.6h577.9v8.5H323.5z"/><path class="st0" d="M833.6 658.5H319.3v602.3c.1 35.6 35.1 64.4 78.3 64.3h67.9c20.7 0 41.4 2 61.7 5.9 41.9 8.4 71.2 25 85 48 13.4-23 42.6-39.6 84.6-48 20.5-3.9 41.4-5.9 62.3-5.9h67.7c43.1.1 78.2-28.7 78.3-64.3V658.5h-71.5zm64.1 601.7l-.2.8v2.2l-.2 2v1l-.3 2-.2 1-.5 2-.2 1.1c-5.2 20.3-22.9 36.9-46.7 43.7-7.1 2-14.5 3-21.8 3h-70.1l-6.8.1c-31.9.5-63.5 6.2-93.6 16.9-8.2 3.1-16.1 6.9-23.6 11.4l-2.7 1.7-1.6 1.1c-.4.2-.7.4-1 .7l-2.5 1.8-2.5 1.8c-3.3 2.5-6.4 5.2-9.4 8.2-.5.5-1.2.8-1.9.8-.5 0-1-.2-1.4-.5l-.3-.1a126.36 126.36 0 00-43.3-26.8c-8.3-3.2-16.8-5.9-25.5-8l-2.4-.5-4.3-1-2.4-.5-4.3-.9-1.8-.3-5-.9-6.8-1.1c-13.6-2.2-27.3-3.3-41.1-3.6l-6.9-.1h-70.8l-3-.1h-.2l-3.5-.3c-24.9-2.7-46.4-15.9-56.6-34.9-3.8-7.3-5.7-15.4-5.6-23.7l-.2-354.9v-7l-.1-230.3c0-1.8 1.9-3.4 4.1-3.4h563.1c2.2 0 4.2 1.6 4.2 3.4l-.1 230.3v361.9z"/></g></g><path class="st0" d="M680.9 1021.1v-.1l13.4-40.3.3-.9.9.3 5.9 2 7.2-56.5-28 49.5 5.9 2 .9.3-.3.9-11.9 35.7c0 .1 0 .1-.1.2l-3.5 10.6c0 .1 0 .1-.1.2l-6.7 20.1-1 2.9-.9-2.9-12.1-39v-.1l-4.4-14.2v-.1l-7.3-23.7-15.9 70.7 8.4 2.7 6.3-33.1.8-4.4 1.1 4.3 9.7 39 4.3 1.4.2.1.1.2 12.8 17.6 1.2 1.7 42 10.5 4.3 1.1-4.4.8-30.3 5.8v8.9l70.7-15.9-23.7-7.3h-.1l-14.2-4.4h-.1l-38.9-12.1-2.9-.9 2.9-1 20.1-6.7c.1 0 .1-.1.2-.1l10.6-3.5c.1 0 .1-.1.2-.1l35.7-11.9.9-.3.3.9 2 5.9 49.5-28-56.5 7.2 2 5.9.3.9-.9.3-40.3 13.4h-.1l-10.7 3.6h-.1l-2.3.8-3.9 1.3 2.9-2.9 1.5-1.5 7.1-7.1.1-.1.1-.1 60.4-60.4.7-.7.7.7 4.4 4.4 31.7-47.2-47.2 31.7 4.4 4.4.7.7-.7.7-60.4 60.4-7.2 7.2-1.6 1.6-2.9 2.9 1.3-3.9.8-2.3v-.1l3.7-10.6zm-79.4 17.7l-15.9-70.7-7.3 23.7v.2l-4.4 14.2c0 .1 0 .1-.1.2l-12.1 38.9-.9 2.9-1-2.9-6.7-20.2v-.1l-3.6-10.7v-.1l-11.9-35.7-.3-.9.9-.3 5.9-2-28-49.5 7.2 56.5 5.9-2 .9-.3.3.9 13.4 40.2c0 .1 0 .1.1.2l3.5 10.6c0 .1.1.1.1.2l.8 2.3 1.3 3.9-2.9-2.9-8.8-8.8-60.4-60.4-.7-.7.7-.7 4.4-4.4-47.2-31.7 31.7 47.2 4.4-4.4.7-.7.7.7 60.4 60.4 7.1 7.1.1.1.1.1 1.5 1.5 2.9 2.9-3.9-1.3-2.3-.8h-.1l-10.7-3.6h-.1l-40.3-13.4-.9-.3.3-.9 2-5.9-56.5-7.2 49.5 28 2-5.9.3-.9.9.3 35.7 11.9c.1 0 .1 0 .2.1l10.6 3.5c.1 0 .1 0 .2.1l20.1 6.7 2.9 1-2.9.9-39 12.1h-.1l-14.2 4.4h-.1l-23.7 7.3 70.7 15.9v-8.9l-30.3-5.8-4.4-.8 4.3-1.1 42-10.5 1.2-1.7 12.8-17.6.1-.2.2-.1 4.3-1.4 9.7-39 1.1-4.3.8 4.4 6.3 33.1 8.5-2.9zm-56.6 78.4l-70.7 15.9 23.7 7.3h.2l14.2 4.4h.2l38.9 12.1 2.9.9-2.9 1-20.1 6.7c-.1 0-.1 0-.2.1l-10.6 3.5c-.1 0-.1 0-.2.1l-35.7 11.9-.9.3-.3-.9-2-5.9-49.5 28 56.5-7.2-2-5.9-.3-.9.9-.3 40.2-13.4c.1 0 .1 0 .2-.1l10.6-3.5c.1 0 .1 0 .2-.1l2.3-.8 3.9-1.3-2.9 2.9-69.2 69.2-.7.7-.7-.7-4.4-4.4-31.7 47.2 47.2-31.7-4.4-4.4-.7-.7.7-.7 60.4-60.4 8.7-8.7 2.9-2.9-1.3 3.9-.8 2.3c0 .1 0 .1-.1.2l-3.5 10.6c0 .1 0 .1-.1.2l-13.4 40.2-.3.9-.9-.3-5.9-2-7.2 56.5 28-49.5-5.9-2-.9-.3.3-.9 11.9-35.7c0-.1 0-.1.1-.2l3.5-10.7c0-.1 0-.1.1-.2l6.7-20.1 1-2.9.9 2.9 12.1 38.9c0 .1 0 .1.1.2l4.4 14.2v.2l7.3 23.6 15.9-70.7-8.4-2.7-6.3 33.1-.8 4.4-1.1-4.3-9.7-39-4.3-1.4-.2-.1-.1-.2-12.8-17.6-1.2-1.7-42-10.5-4.3-1.1 4.4-.8 30.3-5.8v-8.9h-.2zm78.4 56.6l15.9 70.8 7.3-23.7v-.1l4.4-14.2v-.1l12.1-39 .9-2.9 1 2.9 6.7 20.1c0 .1.1.1.1.2l3.5 10.6c0 .1.1.1.1.2l11.9 35.7.3.9-.9.3-5.9 2 28 49.5-7.2-56.5-5.9 2-.9.3-.3-.9-13.4-40.3v-.1l-4.4-13.1-1.3-3.9 2.9 2.9 69.2 69.2.7.7-.7.7-4.4 4.4 47.2 31.7-31.7-47.2-4.4 4.4-.7.7-.7-.7-60.4-60.4-8.8-8.8-2.9-2.9 3.9 1.3 2.3.8c.1 0 .1 0 .2.1l10.6 3.5c.1 0 .1 0 .2.1l40.2 13.4.9.3-.3.9-2 5.9 56.5 7.2-49.5-28-2 5.9-.3.9-.9-.3-35.7-11.9c-.1 0-.1 0-.2-.1l-10.6-3.5c-.1 0-.1 0-.2-.1l-20.1-6.7-2.9-1 2.9-.9 38.9-12.1c.1 0 .1 0 .2-.1l14.2-4.4h.2l23.7-7.3-70.7-15.9v8.9l30.3 5.8 4.4.8-4.3 1.1-42 10.5-1.2 1.7-12.8 17.6-.1.2-.2.1-4.3 1.4-9.7 39-1.1 4.3-.8-4.4-6.3-33.1-8.7 2.7z"/><path class="st0" d="M574.8 1105.5l3.2-9.8-29.7-9.6 26.5 19.4zm-1.5-53.8l18.3 25.2 8.3-6.1-26.6-19.1zm39.6-12.5v31.2h10.3l-10.3-31.2zm39.4 13.1l-18.3 25.2 8.3 6.1 10-31.3zm-9 32.6l3.2 9.8 29.7-9.6-32.9-.2zm33.1 1.2l-29.7 9.6 3.2 9.8 26.5-19.4zm-24.9 74.8l-18.3-25.2-8.3 6.1 26.6 19.1zm-79-.5l18.3-25.2-8.3-6.1-10 31.3zm-24.1-33.8l29.7-9.6-3.2-9.8-26.5 19.4zm0-.4l27.1-19.9-27.1-19.9v39.8zm35.2 1l17.8 12.9h22l17.8-12.9 6.8-20.9-6.8-20.9-17.8-12.9h-22l-17.8 12.9-6.8 20.9 6.8 20.9zm-9.9-75.6l27.3 19.6 10.6-32-18.9 6.2-19 6.2zm102.7 34.8l-27.1 19.9 27.1 19.9v-39.8zm-.5 41.4l-33.7.2 10.2 32.1 11.7-16.1 11.8-16.2zm-64.3 45.6l-10.6-32-27.3 19.6 18.9 6.2 19 6.2zm242.7 184.1c-12-7.6-43.9-5.7-84.5 0s-64.5 26.2-101.8 33.5-84.5 7.4-123.8 0-80.6-29.2-123.8-39.2c-15.5-3.6-45.5-5-57.5 8.5-3.9 4.4-5.9 10.4-4.8 18.4 2 14.6 11.3 25.2 11.2 40.6-.1 18.5-1.5 37-2.5 55.5-.1 1.2 0 6.2.1 12.7.2 14.5.6 36-.2 36.4 21.2-9 45.2-10 68.1-6.6 39.7 5.9 76.7 22.7 116.6 27.9 42.4 5.6 84.8 6.4 127.3.2 40.1-5.8 76.9-24.6 117.1-29.1 41.3-4.6 61.9 12 61.9 12s-3.6-12.3-5.4-39.1c-.2-3.8-.5-7.9-.6-12.3-1.3-35.4 0-55.1 9.3-80.3s5.3-31.5-6.7-39.1zm-365.7 160.3l-13.6-3.5v-17.7l-58.7-19.4 3.7-92.8 13.6 4.4-3.2 74.6 35.2 11.7 1.5-75.5 13.5 4.3-1.6 75.6h.1l9.6 3.1v35.2zm84.8-3l-14-1.8v-62.6l-34.7 58.1-16.4-2.1v-96.6l14 1.8v62.5L557 1416l16.4 2.1v96.7zm84.8-82.9l-24.7.8v83.5h-14v-83.1l-25.8.8-.5-16.2 65-2.1v16.3zm77.1-11l-21.5 3.7v81.7l-14 2.6V1427l-21.8 3.5v-16.8l57.3-9.7v16.9zm51.3 50.8c-1.5 5.9-2.1 11.7-6.3 16.5-5 4.5-15 6.1-21.4 8.1l-.8.2.1-5.4v-1.5l.1-7.1c4.2-1.5 7.8-3 11.3-5.8 6.1-6.4 6.7-16.2 8.6-24.5l-27.2-52 13.6-4.8 18.2 37 10.7-45.3 14.2-4.9-21.1 89.5zM653.4 996.5l16.9-17 .4-.3-58.3-58.3-58.3 58.3 17.3 17.3-17.2 17.2 1.8 5.6 13.1-13.2 4.6-14.7-12.2-12.2 23.2-23.2 1.6-5.4.7 3 25.4-25.3 25.4 25.4.7-3 1.6 5.3 23.2 23.2-12.2 12.2 4.6 14.7 13.1 13.2 1.8-5.6zm86.2 168.1l58.3-58.3-58.3-58.3-17.4 17.3-17.2-17.2-5.6 1.8 13.2 13.1 14.8 4.6 12.2-12.2 23.1 23.2 5.4 1.6-3 .7 25.4 25.4-25.4 25.4 3 .7-5.4 1.6-23.1 23.2-12.3-12.2-14.7 4.6-13.2 13.1 5.6 1.9 17.2-17.3zm-127.2 127.2l58.3-58.3-17.3-17.3 17.3-17.3-1.9-5.5-13.1 13.1-4.6 14.8 12.2 12.2-23.2 23.1-1.6 5.4-.7-3-25.4 25.4L587 1259l-.7 3-1.6-5.3-23.2-23.2 12.2-12.2-4.6-14.8-13.1-13.1-1.8 5.5 17.2 17.3-17.3 17.3 57.9 57.9zM497.5 1145l-12.3 12.2-23.1-23.2-5.4-1.6 3-.7-25.4-25.4 25.4-25.4-3-.7 5.4-1.6 23.1-23.2 12.3 12.2 14.7-4.6 13.2-13.1-5.6-1.8-17.2 17.2-16.6-16.5-.8-.8-58.3 58.3 1.4 1.4.5.5 56.4 56.4 17.4-17.3 17.2 17.3 5.6-1.9-13.2-13.1z"/><path class="st0" d="M757.9 1134l-28 8.7 9.7 9.6zm-28-64l28 8.7-18.3-18.4zm-49.9 28.5v15.6l79.8 18 25.8-25.8-25.8-25.7zM494.9 1070l-9.7-9.7-18.3 18.4zm50 44.1v-15.6l-79.9-17.9-25.8 25.7 25.8 25.8zm-50 28.6l-28-8.7 18.3 18.3zm153.8-153.9l9.7-9.6-18.4-18.4zm-10.5-29.9l-25.8-25.8-25.7 25.8 17.7 79 7.8-2.5.2-.1.2.1 7.8 2.5zm-53.4 1.9l-18.4 18.4 9.7 9.6zm-8.7 263l-9.7 9.7 18.4 18.4zm44.3-49.1l-7.8 2.6h-.4l-7.8-2.6-17.7 79 25.7 25.8 25.8-25.8zm19.7 77.1l18.3-18.3-9.7-9.7zm-79.4-77.4l-4.7 14.1 13.2 13.2zm-43.7-24.9l13.2 13.2 14.2-4.7zm7.2-16.3l29.6 7.3-8.3-11.4zm176.4 0l-21.3-4.1-8.3 11.4zm-20.2 24.8l14.2 4.7 13.2-13.2zm-41.1 36.6l7-28.3-11.7 3.8zm24.8-20.2l-8.5 27.3 13.2-13.2zm-85.6-8.1l7.1 28.3 4.6-24.5zm-54.3-86.8l21.3 4 8.3-11.4zm6-29.6l-13.2 13.2 27.4-8.4zm30.5-11.6l8.5-27.4-13.2 13.2zm24.9-20.2l-7.1 28.2 11.7-3.8zm60.7 28.2l-7-28.2-4.7 24.4zm17.8-8l4.7-14.2-13.2-13.2zm43.7 24.8l-13.2-13.2-14.2 4.8zm-7.2 16.4l-29.6-7.4 8.3 11.4z"/></svg>